{"glyphs":{"0":{"ha":803,"x_min":28,"x_max":775,"o":"m 676 822 q 726 759 676 822 q 775 463 775 696 q 676 103 775 229 q 401 -24 578 -24 q 126 103 225 -24 q 28 463 28 229 q 126 822 28 696 q 401 949 225 949 q 676 822 578 949 m 401 244 q 446 244 401 244 q 490 463 490 244 q 401 681 490 681 q 313 463 313 681 q 401 244 313 244 z "},"1":{"ha":439,"x_min":-35,"x_max":390,"o":"m 90 0 l 90 565 l -35 711 l 168 926 l 390 926 l 390 0 l 90 0 z "},"2":{"ha":597,"x_min":-35,"x_max":583,"o":"m -35 0 l 199 444 q 244 581 244 531 q 215 649 244 625 q 131 674 185 674 l 74 669 l 74 926 q 206 940 138 940 q 338 925 276 940 q 452 878 399 910 q 537 788 506 846 q 568 653 568 731 q 538 511 568 585 q 426 278 508 438 l 408 243 l 583 243 l 504 0 l -35 0 z "},"3":{"ha":557,"x_min":28,"x_max":536,"o":"m 28 -10 l 28 249 q 82 246 47 246 q 200 276 164 246 q 236 353 236 307 q 218 407 236 381 q 166 457 200 433 q 108 494 132 481 q 46 526 83 508 q 176 658 176 608 q 117 701 176 701 q 74 698 96 701 q 39 692 51 694 l 28 688 l 28 921 q 217 938 86 938 q 415 878 349 938 q 482 714 482 818 q 465 634 482 674 q 429 575 447 594 l 411 556 q 425 544 417 551 q 455 514 433 538 q 493 464 476 490 q 523 397 510 438 q 536 315 536 357 q 413 71 536 153 q 104 -11 290 -11 q 28 -10 61 -11 z "},"4":{"ha":661,"x_min":-7,"x_max":661,"o":"m -7 286 l 371 926 l 606 926 l 606 315 l 661 315 l 661 129 l 606 129 l 606 0 l 332 0 l 332 129 l -7 129 l -7 286 m 332 521 l 210 315 l 332 315 l 332 521 z "},"5":{"ha":564,"x_min":0,"x_max":543,"o":"m 18 -18 l 18 246 q 175 283 119 246 q 231 383 231 319 q 0 518 231 518 l 167 926 l 543 926 l 543 667 l 369 667 q 387 655 376 663 q 425 619 397 647 q 474 560 453 592 q 513 478 496 529 q 531 371 531 426 q 490 197 531 274 q 379 73 449 119 q 226 3 310 26 q 53 -21 143 -21 l 18 -18 z "},"6":{"ha":756,"x_min":21,"x_max":735,"o":"m 21 342 q 51 522 21 429 q 126 683 82 614 q 213 810 169 753 q 286 897 256 867 l 317 926 l 653 926 q 457 668 542 818 q 658 549 582 643 q 735 326 735 456 q 635 78 735 179 q 386 -24 535 -24 q 125 80 229 -24 q 21 342 21 183 m 294 335 q 319 275 294 300 q 378 250 343 250 q 437 274 413 250 q 461 333 461 299 q 437 392 461 368 q 378 417 413 417 q 319 392 344 417 q 294 335 294 368 z "},"7":{"ha":629,"x_min":-21,"x_max":657,"o":"m -21 0 l 243 668 l -11 668 l 92 926 l 657 926 l 292 0 l -21 0 z "},"8":{"ha":714,"x_min":14,"x_max":700,"o":"m 303 374 q 293 364 303 374 q 282 321 282 353 q 303 267 282 289 q 357 246 325 246 q 410 267 389 246 q 432 321 432 289 q 410 374 432 353 q 357 396 389 396 q 303 374 325 396 m 324 693 q 317 686 324 693 q 310 660 310 679 q 324 626 310 640 q 357 613 338 613 q 390 626 376 613 q 404 660 404 640 q 390 693 404 679 q 357 707 376 707 q 324 693 338 707 m 601 67 q 551 22 601 67 q 357 -24 501 -24 q 113 67 213 -24 q 14 299 14 158 q 24 381 14 342 q 51 445 35 419 q 82 491 67 471 q 108 519 97 511 l 118 529 q 67 679 67 583 q 151 871 67 793 q 357 949 236 949 q 563 871 478 949 q 647 679 647 793 q 635 599 647 636 q 608 544 622 561 l 596 529 q 607 520 600 526 q 632 492 614 514 q 664 445 650 469 q 689 381 678 421 q 700 299 700 342 q 601 67 700 158 z "},"9":{"ha":756,"x_min":21,"x_max":735,"o":"m 735 585 q 704 405 735 497 q 630 243 674 313 q 543 117 586 174 q 469 31 500 60 l 439 0 l 103 0 q 299 258 214 108 q 97 377 174 283 q 21 600 21 471 q 121 849 21 747 q 369 950 221 950 q 631 847 526 950 q 735 585 735 743 m 461 592 q 437 651 461 626 q 378 676 413 676 q 319 652 343 676 q 294 593 294 628 q 319 534 294 558 q 378 510 343 510 q 436 534 411 510 q 461 592 461 558 z "},"\u0000":{"ha":0,"x_min":0,"x_max":0,"o":""}," ":{"ha":278,"x_min":0,"x_max":0,"o":""},"!":{"ha":400,"x_min":42,"x_max":358,"o":"m 89 274 l 42 926 l 358 926 l 311 274 l 89 274 m 65 0 l 65 232 l 335 232 l 335 0 l 65 0 z "},"\"":{"ha":525,"x_min":14,"x_max":511,"o":"m 33 524 l 14 926 l 242 926 l 222 524 l 33 524 m 303 524 l 283 926 l 511 926 l 492 524 l 303 524 z "},"#":{"ha":649,"x_min":0,"x_max":649,"o":"m 53 186 l 72 322 l 0 322 l 26 515 l 100 515 l 111 597 l 39 597 l 65 790 l 138 790 l 157 926 l 353 926 l 333 790 l 381 790 l 400 926 l 596 926 l 576 790 l 649 790 l 622 597 l 550 597 l 538 515 l 610 515 l 583 322 l 511 322 l 492 186 l 296 186 l 315 322 l 268 322 l 249 186 l 53 186 m 307 597 l 294 515 l 342 515 l 354 597 l 307 597 z "},"$":{"ha":592,"x_min":18,"x_max":578,"o":"m 24 13 l 24 292 q 200 257 117 257 q 257 304 257 257 q 233 348 257 324 q 173 402 208 372 q 102 469 138 432 q 42 561 67 506 q 18 682 18 617 q 63 835 18 772 q 185 926 108 897 l 185 1040 l 415 1040 l 415 940 l 488 929 l 488 669 q 419 678 454 678 q 354 644 354 678 q 377 610 354 632 q 433 558 400 589 q 499 489 467 528 q 555 392 532 450 q 578 269 578 335 q 536 110 578 179 q 415 6 494 40 l 415 -115 l 185 -115 l 185 -19 q 104 -7 144 -15 q 44 7 64 1 l 24 13 z "},"%":{"ha":999,"x_min":21,"x_max":978,"o":"m 924 452 q 951 417 924 452 q 978 254 978 382 q 924 57 978 126 q 772 -12 869 -12 q 621 57 675 -12 q 567 254 567 126 q 621 452 567 382 q 772 522 675 522 q 924 452 869 522 m 772 135 q 797 135 772 135 q 821 254 821 135 q 772 374 821 374 q 724 254 724 374 q 772 135 724 135 m 75 474 q 48 509 75 474 q 21 672 21 544 q 75 869 21 800 q 226 939 129 939 q 378 869 324 939 q 432 672 432 800 q 378 474 432 544 q 226 404 324 404 q 75 474 129 404 m 226 792 q 202 792 226 792 q 178 672 178 792 q 226 553 178 553 q 275 672 275 553 q 226 792 275 792 m 233 0 l 601 926 l 765 926 l 397 0 l 233 0 z "},"&":{"ha":835,"x_min":21,"x_max":849,"o":"m 21 257 q 144 492 21 403 q 123 513 136 499 q 88 576 110 528 q 65 678 65 624 q 146 872 65 794 q 347 949 226 949 q 559 871 479 949 q 639 672 639 793 q 626 596 639 633 q 594 533 613 558 q 556 489 575 508 q 522 460 536 469 l 510 450 l 615 351 q 649 392 633 371 q 672 424 665 413 l 681 435 l 849 276 q 828 244 842 264 q 767 172 814 224 q 668 81 721 121 q 532 9 615 42 q 360 -24 449 -24 q 108 54 194 -24 q 21 257 21 132 m 365 211 q 440 225 401 211 l 328 331 q 289 276 289 311 q 311 228 289 244 q 365 211 333 211 m 304 682 q 344 604 304 644 q 399 682 399 640 q 386 719 399 706 q 353 733 374 733 q 318 719 332 733 q 304 682 304 704 z "},"'":{"ha":256,"x_min":14,"x_max":242,"o":"m 33 524 l 14 926 l 242 926 l 222 524 l 33 524 z "},"(":{"ha":386,"x_min":35,"x_max":428,"o":"m 35 463 q 70 781 35 631 q 140 999 106 932 l 175 1065 l 428 1065 q 413 1035 422 1054 q 381 952 404 1015 q 340 823 358 889 q 308 658 322 757 q 293 463 293 558 q 327 159 293 310 q 394 -67 361 8 l 428 -140 l 175 -140 q 160 -113 169 -131 q 126 -37 150 -96 q 83 87 101 22 q 50 254 65 151 q 35 463 35 357 z "},")":{"ha":386,"x_min":-42,"x_max":351,"o":"m 351 463 q 316 144 351 294 q 246 -74 281 -7 l 211 -140 l -42 -140 q -27 -110 -36 -129 q 5 -27 -18 -90 q 46 102 28 36 q 78 267 64 168 q 93 463 93 367 q 79 656 93 558 q 45 824 65 754 q 6 951 25 894 q -28 1036 -14 1008 l -42 1065 l 211 1065 q 226 1038 217 1056 q 260 962 236 1021 q 303 838 285 903 q 336 671 321 774 q 351 463 351 568 z "},"*":{"ha":533,"x_min":14,"x_max":519,"o":"m 179 443 l 193 557 l 101 488 l 14 640 l 119 685 l 14 729 l 101 882 l 193 811 l 179 926 l 354 926 l 339 813 l 432 882 l 519 729 l 414 685 l 519 640 l 432 488 l 339 557 l 354 443 l 179 443 z "},"+":{"ha":639,"x_min":28,"x_max":611,"o":"m 204 83 l 204 260 l 28 260 l 28 490 l 204 490 l 204 667 l 435 667 l 435 490 l 611 490 l 611 260 l 435 260 l 435 83 l 204 83 z "},",":{"ha":381,"x_min":0,"x_max":357,"o":"m 0 -143 l 93 232 l 357 232 l 236 -143 l 0 -143 z "},"-":{"ha":436,"x_min":35,"x_max":401,"o":"m 35 347 l 35 579 l 401 579 l 401 347 l 35 347 z "},".":{"ha":353,"x_min":42,"x_max":311,"o":"m 42 0 l 42 232 l 311 232 l 311 0 l 42 0 z "},"/":{"ha":578,"x_min":-14,"x_max":592,"o":"m -14 -22 l 357 949 l 592 949 l 221 -22 l -14 -22 z "},":":{"ha":353,"x_min":42,"x_max":311,"o":"m 42 0 l 42 232 l 311 232 l 311 0 l 42 0 m 42 375 l 42 607 l 311 607 l 311 375 l 42 375 z "},";":{"ha":381,"x_min":0,"x_max":357,"o":"m 0 -143 l 93 232 l 357 232 l 236 -143 l 0 -143 m 74 375 l 74 607 l 343 607 l 343 375 l 74 375 z "},"<":{"ha":583,"x_min":35,"x_max":549,"o":"m 35 250 l 35 422 l 549 674 l 549 414 l 390 336 l 549 258 l 549 -1 l 35 250 z "},"=":{"ha":639,"x_min":28,"x_max":611,"o":"m 611 367 l 611 165 l 28 165 l 28 367 l 611 367 m 611 408 l 28 408 l 28 610 l 611 610 l 611 408 z "},">":{"ha":583,"x_min":35,"x_max":549,"o":"m 549 422 l 549 250 l 35 -1 l 35 258 l 193 336 l 35 414 l 35 674 l 549 422 z "},"?":{"ha":531,"x_min":21,"x_max":510,"o":"m 58 274 q 78 387 58 333 q 121 472 97 440 q 164 536 144 503 q 183 594 183 569 q 148 659 183 642 q 50 676 113 676 l 21 676 l 21 935 q 163 949 96 949 q 415 871 319 949 q 510 664 510 793 q 485 553 510 610 q 432 458 461 497 q 378 367 403 418 q 354 274 354 317 l 58 274 m 58 0 l 58 232 l 356 232 l 356 0 l 58 0 z "},"@":{"ha":1115,"x_min":76,"x_max":1039,"o":"m 485 517 q 472 502 485 517 q 460 446 460 488 q 484 375 460 404 q 546 346 508 346 q 605 375 581 346 q 629 446 629 404 q 605 517 629 488 q 546 546 581 546 q 485 517 510 546 m 1039 463 q 977 260 1039 338 q 804 183 915 183 q 736 195 768 183 q 692 219 704 207 l 678 231 q 518 169 617 169 q 334 250 399 169 q 269 446 269 331 q 338 641 269 560 q 521 722 406 722 q 622 697 567 722 l 622 718 l 813 718 l 813 394 q 869 322 813 322 q 926 360 904 322 q 947 463 947 397 q 834 773 947 661 q 558 885 721 885 q 283 772 397 885 q 169 463 169 660 q 281 158 169 275 q 558 40 392 40 q 685 53 626 40 q 768 78 743 65 l 793 90 l 822 26 q 788 8 810 19 q 692 -21 765 -3 q 543 -39 619 -39 q 201 107 326 -39 q 76 463 76 253 q 212 827 76 682 q 558 972 347 972 q 904 827 769 972 q 1039 463 1039 682 z "},"A":{"ha":794,"x_min":-28,"x_max":822,"o":"m -28 0 l 279 926 l 515 926 l 822 0 l 532 0 l 506 83 l 288 83 l 261 0 l -28 0 m 351 288 l 443 288 l 397 435 l 351 288 z "},"B":{"ha":710,"x_min":49,"x_max":696,"o":"m 49 0 l 49 926 l 342 926 q 569 860 483 926 q 654 676 654 793 q 637 583 654 625 q 603 524 619 540 l 585 507 q 597 499 589 504 q 624 476 604 494 q 658 435 643 457 q 684 374 672 413 q 696 292 696 335 q 603 81 696 163 q 357 0 511 0 l 49 0 m 335 218 l 351 218 q 406 239 386 218 q 426 299 426 260 q 406 358 426 338 q 351 379 385 379 l 335 379 l 335 218 m 381 599 q 389 608 381 599 q 397 644 397 617 q 381 690 397 672 q 347 708 365 708 l 335 708 l 335 581 l 347 581 q 381 599 365 581 z "},"C":{"ha":751,"x_min":28,"x_max":765,"o":"m 628 343 l 765 101 q 753 88 761 96 q 718 58 746 79 q 658 19 690 36 q 574 -10 626 3 q 465 -24 522 -24 q 145 115 263 -24 q 28 463 28 254 q 145 810 28 671 q 465 949 263 949 q 569 937 519 949 q 652 908 619 925 q 709 875 685 892 q 744 847 733 858 l 756 835 l 621 599 q 603 615 615 606 q 550 642 590 625 q 465 658 510 658 q 358 603 396 658 q 319 463 319 547 q 358 322 319 378 q 465 267 396 267 q 556 286 515 267 q 611 325 596 306 l 628 343 z "},"D":{"ha":813,"x_min":49,"x_max":785,"o":"m 236 0 l 49 0 l 49 926 l 236 926 q 641 806 497 926 q 785 464 785 686 q 641 122 785 243 q 236 0 497 0 m 344 663 l 344 264 l 350 264 q 453 316 413 264 q 493 464 493 368 q 449 608 493 554 q 350 663 406 663 l 344 663 z "},"E":{"ha":569,"x_min":49,"x_max":535,"o":"m 49 0 l 49 926 l 525 926 l 525 683 l 344 683 l 344 581 l 521 581 l 521 350 l 344 350 l 344 243 l 535 243 l 535 0 l 49 0 z "},"F":{"ha":553,"x_min":49,"x_max":525,"o":"m 49 0 l 49 926 l 525 926 l 525 683 l 344 683 l 344 581 l 521 581 l 521 350 l 344 350 l 344 0 l 49 0 z "},"G":{"ha":886,"x_min":28,"x_max":858,"o":"m 858 538 l 858 232 q 707 46 807 115 q 465 -24 607 -24 q 145 115 263 -24 q 28 463 28 254 q 145 810 28 671 q 465 949 263 949 q 569 937 519 949 q 652 908 619 925 q 709 875 685 892 q 744 847 733 858 l 756 835 l 621 599 q 603 615 615 606 q 550 642 590 625 q 465 658 510 658 q 358 603 396 658 q 319 463 319 547 q 358 322 319 378 q 465 267 396 267 q 586 343 543 267 l 501 343 l 501 538 l 858 538 z "},"H":{"ha":786,"x_min":49,"x_max":738,"o":"m 49 0 l 49 926 l 344 926 l 344 611 l 440 611 l 440 926 l 738 926 l 738 0 l 440 0 l 440 343 l 344 343 l 344 0 l 49 0 z "},"I":{"ha":411,"x_min":49,"x_max":363,"o":"m 49 0 l 49 926 l 363 926 l 363 0 l 49 0 z "},"J":{"ha":504,"x_min":0,"x_max":458,"o":"m 0 0 l 0 222 l 83 222 q 144 286 144 222 l 144 926 l 458 926 l 458 235 q 397 56 458 111 q 207 0 335 0 l 0 0 z "},"K":{"ha":792,"x_min":49,"x_max":813,"o":"m 475 0 l 349 256 l 349 0 l 49 0 l 49 926 l 349 926 l 349 749 l 469 926 l 806 926 l 538 531 l 813 0 l 475 0 z "},"L":{"ha":543,"x_min":49,"x_max":543,"o":"m 49 0 l 49 926 l 357 926 l 357 243 l 543 243 l 543 0 l 49 0 z "},"M":{"ha":999,"x_min":49,"x_max":950,"o":"m 49 0 l 49 926 l 296 926 l 500 592 l 703 926 l 950 926 l 950 0 l 654 0 l 654 310 l 500 56 l 344 310 l 344 0 l 49 0 z "},"N":{"ha":817,"x_min":49,"x_max":768,"o":"m 49 0 l 49 926 l 294 926 l 478 624 l 478 926 l 768 926 l 768 0 l 521 0 l 339 297 l 339 0 l 49 0 z "},"O":{"ha":931,"x_min":28,"x_max":903,"o":"m 145 115 q 86 185 145 115 q 28 463 28 254 q 145 810 28 671 q 465 949 263 949 q 785 810 668 949 q 903 463 903 671 q 785 115 903 254 q 465 -24 668 -24 q 145 115 263 -24 m 358 603 q 339 575 358 603 q 319 463 319 547 q 358 322 319 378 q 465 267 396 267 q 573 322 535 267 q 611 463 611 378 q 573 603 611 547 q 465 658 535 658 q 358 603 396 658 z "},"P":{"ha":721,"x_min":49,"x_max":700,"o":"m 700 574 q 597 310 700 400 q 344 221 493 221 l 344 0 l 49 0 l 49 926 l 275 926 q 582 838 464 926 q 700 574 700 750 m 344 676 l 344 471 l 353 471 q 399 496 375 471 q 424 574 424 521 q 399 651 424 626 q 353 676 375 676 l 344 676 z "},"Q":{"ha":931,"x_min":28,"x_max":936,"o":"m 145 115 q 86 185 145 115 q 28 463 28 254 q 145 810 28 671 q 465 949 263 949 q 785 810 668 949 q 903 463 903 671 q 863 243 903 343 l 936 243 l 811 0 l 614 0 q 465 -24 546 -24 q 145 115 263 -24 m 358 603 q 339 575 358 603 q 319 463 319 547 q 358 322 319 378 q 465 267 396 267 q 573 322 535 267 q 611 463 611 378 q 573 603 611 547 q 465 658 535 658 q 358 603 396 658 z "},"R":{"ha":740,"x_min":49,"x_max":761,"o":"m 49 0 l 49 926 l 299 926 q 597 831 482 926 q 713 565 713 736 q 699 468 713 514 q 668 394 686 422 q 632 344 650 365 q 600 314 614 324 l 588 306 l 761 0 l 443 0 l 344 179 l 344 0 l 49 0 m 344 668 l 344 478 l 354 478 q 403 501 376 478 q 431 574 431 525 q 404 645 431 622 q 354 668 378 668 l 344 668 z "},"S":{"ha":594,"x_min":21,"x_max":581,"o":"m 26 13 l 26 292 q 203 257 119 257 q 260 304 260 257 q 235 348 260 324 q 176 402 211 372 q 105 469 140 432 q 45 561 69 506 q 21 682 21 617 q 105 878 21 807 q 311 949 189 949 q 394 944 350 949 q 464 933 439 939 l 490 929 l 490 669 q 422 678 457 678 q 357 644 357 678 q 380 610 357 632 q 436 558 403 589 q 502 489 469 528 q 558 392 535 450 q 581 269 581 335 q 499 59 581 142 q 264 -24 417 -24 q 149 -15 208 -24 q 58 3 89 -6 l 26 13 z "},"T":{"ha":578,"x_min":0,"x_max":578,"o":"m 136 0 l 136 683 l 0 683 l 0 926 l 578 926 l 578 683 l 442 683 l 442 0 l 136 0 z "},"U":{"ha":788,"x_min":44,"x_max":743,"o":"m 393 -24 q 135 68 226 -24 q 44 340 44 160 l 44 926 l 340 926 l 340 350 q 351 273 340 296 q 393 250 361 250 q 435 273 425 250 q 446 350 446 296 l 446 926 l 743 926 l 743 340 q 652 68 743 160 q 393 -24 561 -24 z "},"V":{"ha":838,"x_min":-28,"x_max":865,"o":"m -28 926 l 300 926 l 418 575 l 538 926 l 865 926 l 539 0 l 299 0 l -28 926 z "},"W":{"ha":1147,"x_min":-28,"x_max":1175,"o":"m 278 0 l -28 926 l 286 926 l 388 590 l 472 926 l 675 926 l 760 590 l 861 926 l 1175 926 l 869 0 l 647 0 l 574 267 l 500 0 l 278 0 z "},"X":{"ha":768,"x_min":-28,"x_max":796,"o":"m 314 926 l 383 793 l 453 926 l 778 926 l 546 481 l 796 0 l 472 0 l 383 169 l 296 0 l -28 0 l 221 481 l -10 926 l 314 926 z "},"Y":{"ha":715,"x_min":-28,"x_max":743,"o":"m 211 0 l 211 406 l -28 926 l 285 926 l 360 761 l 431 926 l 743 926 l 507 406 l 507 0 l 211 0 z "},"Z":{"ha":703,"x_min":-28,"x_max":710,"o":"m -28 0 l 281 683 l 39 683 l 133 926 l 710 926 l 401 243 l 694 243 l 601 0 l -28 0 z "},"[":{"ha":410,"x_min":35,"x_max":403,"o":"m 35 -140 l 35 1065 l 403 1065 l 403 831 l 279 831 l 279 94 l 403 94 l 403 -140 l 35 -140 z "},"\\":{"ha":578,"x_min":-14,"x_max":592,"o":"m 221 949 l 592 -22 l 357 -22 l -14 949 l 221 949 z "},"]":{"ha":410,"x_min":7,"x_max":375,"o":"m 375 1065 l 375 -140 l 7 -140 l 7 94 l 131 94 l 131 831 l 7 831 l 7 1065 l 375 1065 z "},"^":{"ha":639,"x_min":21,"x_max":618,"o":"m 433 604 l 318 786 l 206 604 l 21 604 l 196 926 l 443 926 l 618 604 l 433 604 z "},"_":{"ha":540,"x_min":0,"x_max":540,"o":"m 0 -212 l 0 -111 l 540 -111 l 540 -212 l 0 -212 z "},"`":{"ha":368,"x_min":35,"x_max":333,"o":"m 333 717 l 178 717 l 35 932 l 218 932 l 333 717 z "},"a":{"ha":794,"x_min":-28,"x_max":822,"o":"m -28 0 l 279 926 l 515 926 l 822 0 l 532 0 l 506 83 l 288 83 l 261 0 l -28 0 m 351 288 l 443 288 l 397 435 l 351 288 z "},"b":{"ha":710,"x_min":49,"x_max":696,"o":"m 49 0 l 49 926 l 342 926 q 569 860 483 926 q 654 676 654 793 q 637 583 654 625 q 603 524 619 540 l 585 507 q 597 499 589 504 q 624 476 604 494 q 658 435 643 457 q 684 374 672 413 q 696 292 696 335 q 603 81 696 163 q 357 0 511 0 l 49 0 m 335 218 l 351 218 q 406 239 386 218 q 426 299 426 260 q 406 358 426 338 q 351 379 385 379 l 335 379 l 335 218 m 381 599 q 389 608 381 599 q 397 644 397 617 q 381 690 397 672 q 347 708 365 708 l 335 708 l 335 581 l 347 581 q 381 599 365 581 z "},"c":{"ha":751,"x_min":28,"x_max":765,"o":"m 628 343 l 765 101 q 753 88 761 96 q 718 58 746 79 q 658 19 690 36 q 574 -10 626 3 q 465 -24 522 -24 q 145 115 263 -24 q 28 463 28 254 q 145 810 28 671 q 465 949 263 949 q 569 937 519 949 q 652 908 619 925 q 709 875 685 892 q 744 847 733 858 l 756 835 l 621 599 q 603 615 615 606 q 550 642 590 625 q 465 658 510 658 q 358 603 396 658 q 319 463 319 547 q 358 322 319 378 q 465 267 396 267 q 556 286 515 267 q 611 325 596 306 l 628 343 z "},"d":{"ha":813,"x_min":49,"x_max":785,"o":"m 236 0 l 49 0 l 49 926 l 236 926 q 641 806 497 926 q 785 464 785 686 q 641 122 785 243 q 236 0 497 0 m 344 663 l 344 264 l 350 264 q 453 316 413 264 q 493 464 493 368 q 449 608 493 554 q 350 663 406 663 l 344 663 z "},"e":{"ha":569,"x_min":49,"x_max":535,"o":"m 49 0 l 49 926 l 525 926 l 525 683 l 344 683 l 344 581 l 521 581 l 521 350 l 344 350 l 344 243 l 535 243 l 535 0 l 49 0 z "},"f":{"ha":553,"x_min":49,"x_max":525,"o":"m 49 0 l 49 926 l 525 926 l 525 683 l 344 683 l 344 581 l 521 581 l 521 350 l 344 350 l 344 0 l 49 0 z "},"g":{"ha":886,"x_min":28,"x_max":858,"o":"m 858 538 l 858 232 q 707 46 807 115 q 465 -24 607 -24 q 145 115 263 -24 q 28 463 28 254 q 145 810 28 671 q 465 949 263 949 q 569 937 519 949 q 652 908 619 925 q 709 875 685 892 q 744 847 733 858 l 756 835 l 621 599 q 603 615 615 606 q 550 642 590 625 q 465 658 510 658 q 358 603 396 658 q 319 463 319 547 q 358 322 319 378 q 465 267 396 267 q 586 343 543 267 l 501 343 l 501 538 l 858 538 z "},"h":{"ha":786,"x_min":49,"x_max":738,"o":"m 49 0 l 49 926 l 344 926 l 344 611 l 440 611 l 440 926 l 738 926 l 738 0 l 440 0 l 440 343 l 344 343 l 344 0 l 49 0 z "},"i":{"ha":411,"x_min":49,"x_max":363,"o":"m 49 0 l 49 926 l 363 926 l 363 0 l 49 0 z "},"j":{"ha":504,"x_min":0,"x_max":458,"o":"m 0 0 l 0 222 l 83 222 q 144 286 144 222 l 144 926 l 458 926 l 458 235 q 397 56 458 111 q 207 0 335 0 l 0 0 z "},"k":{"ha":792,"x_min":49,"x_max":813,"o":"m 475 0 l 349 256 l 349 0 l 49 0 l 49 926 l 349 926 l 349 749 l 469 926 l 806 926 l 538 531 l 813 0 l 475 0 z "},"l":{"ha":543,"x_min":49,"x_max":543,"o":"m 49 0 l 49 926 l 357 926 l 357 243 l 543 243 l 543 0 l 49 0 z "},"m":{"ha":999,"x_min":49,"x_max":950,"o":"m 49 0 l 49 926 l 296 926 l 500 592 l 703 926 l 950 926 l 950 0 l 654 0 l 654 310 l 500 56 l 344 310 l 344 0 l 49 0 z "},"n":{"ha":817,"x_min":49,"x_max":768,"o":"m 49 0 l 49 926 l 294 926 l 478 624 l 478 926 l 768 926 l 768 0 l 521 0 l 339 297 l 339 0 l 49 0 z "},"o":{"ha":931,"x_min":28,"x_max":903,"o":"m 145 115 q 86 185 145 115 q 28 463 28 254 q 145 810 28 671 q 465 949 263 949 q 785 810 668 949 q 903 463 903 671 q 785 115 903 254 q 465 -24 668 -24 q 145 115 263 -24 m 358 603 q 339 575 358 603 q 319 463 319 547 q 358 322 319 378 q 465 267 396 267 q 573 322 535 267 q 611 463 611 378 q 573 603 611 547 q 465 658 535 658 q 358 603 396 658 z "},"p":{"ha":721,"x_min":49,"x_max":700,"o":"m 700 574 q 597 310 700 400 q 344 221 493 221 l 344 0 l 49 0 l 49 926 l 275 926 q 582 838 464 926 q 700 574 700 750 m 344 676 l 344 471 l 353 471 q 399 496 375 471 q 424 574 424 521 q 399 651 424 626 q 353 676 375 676 l 344 676 z "},"q":{"ha":931,"x_min":28,"x_max":936,"o":"m 145 115 q 86 185 145 115 q 28 463 28 254 q 145 810 28 671 q 465 949 263 949 q 785 810 668 949 q 903 463 903 671 q 863 243 903 343 l 936 243 l 811 0 l 614 0 q 465 -24 546 -24 q 145 115 263 -24 m 358 603 q 339 575 358 603 q 319 463 319 547 q 358 322 319 378 q 465 267 396 267 q 573 322 535 267 q 611 463 611 378 q 573 603 611 547 q 465 658 535 658 q 358 603 396 658 z "},"r":{"ha":740,"x_min":49,"x_max":761,"o":"m 49 0 l 49 926 l 299 926 q 597 831 482 926 q 713 565 713 736 q 699 468 713 514 q 668 394 686 422 q 632 344 650 365 q 600 314 614 324 l 588 306 l 761 0 l 443 0 l 344 179 l 344 0 l 49 0 m 344 668 l 344 478 l 354 478 q 403 501 376 478 q 431 574 431 525 q 404 645 431 622 q 354 668 378 668 l 344 668 z "},"s":{"ha":594,"x_min":21,"x_max":581,"o":"m 26 13 l 26 292 q 203 257 119 257 q 260 304 260 257 q 235 348 260 324 q 176 402 211 372 q 105 469 140 432 q 45 561 69 506 q 21 682 21 617 q 105 878 21 807 q 311 949 189 949 q 394 944 350 949 q 464 933 439 939 l 490 929 l 490 669 q 422 678 457 678 q 357 644 357 678 q 380 610 357 632 q 436 558 403 589 q 502 489 469 528 q 558 392 535 450 q 581 269 581 335 q 499 59 581 142 q 264 -24 417 -24 q 149 -15 208 -24 q 58 3 89 -6 l 26 13 z "},"t":{"ha":578,"x_min":0,"x_max":578,"o":"m 136 0 l 136 683 l 0 683 l 0 926 l 578 926 l 578 683 l 442 683 l 442 0 l 136 0 z "},"u":{"ha":788,"x_min":44,"x_max":743,"o":"m 393 -24 q 135 68 226 -24 q 44 340 44 160 l 44 926 l 340 926 l 340 350 q 351 273 340 296 q 393 250 361 250 q 435 273 425 250 q 446 350 446 296 l 446 926 l 743 926 l 743 340 q 652 68 743 160 q 393 -24 561 -24 z "},"v":{"ha":838,"x_min":-28,"x_max":865,"o":"m -28 926 l 300 926 l 418 575 l 538 926 l 865 926 l 539 0 l 299 0 l -28 926 z "},"w":{"ha":1147,"x_min":-28,"x_max":1175,"o":"m 278 0 l -28 926 l 286 926 l 388 590 l 472 926 l 675 926 l 760 590 l 861 926 l 1175 926 l 869 0 l 647 0 l 574 267 l 500 0 l 278 0 z "},"x":{"ha":768,"x_min":-28,"x_max":796,"o":"m 314 926 l 383 793 l 453 926 l 778 926 l 546 481 l 796 0 l 472 0 l 383 169 l 296 0 l -28 0 l 221 481 l -10 926 l 314 926 z "},"y":{"ha":715,"x_min":-28,"x_max":743,"o":"m 211 0 l 211 406 l -28 926 l 285 926 l 360 761 l 431 926 l 743 926 l 507 406 l 507 0 l 211 0 z "},"z":{"ha":703,"x_min":-28,"x_max":710,"o":"m -28 0 l 281 683 l 39 683 l 133 926 l 710 926 l 401 243 l 694 243 l 601 0 l -28 0 z "},"{":{"ha":485,"x_min":14,"x_max":478,"o":"m 44 351 l 14 351 l 14 574 l 44 574 q 110 638 110 574 l 110 838 q 317 1065 110 1065 l 478 1065 l 478 831 l 374 831 q 354 807 354 831 l 354 610 q 345 549 354 576 q 323 506 336 521 q 297 480 310 490 q 275 467 285 469 l 267 463 q 276 458 271 461 q 297 444 282 456 q 324 419 313 433 q 344 376 335 404 q 354 315 354 349 l 354 118 q 374 94 354 94 l 478 94 l 478 -140 l 317 -140 q 110 88 110 -140 l 110 288 q 44 351 110 351 z "},"|":{"ha":297,"x_min":69,"x_max":228,"o":"m 69 963 l 228 963 l 228 -36 l 69 -36 l 69 963 z "},"}":{"ha":485,"x_min":7,"x_max":471,"o":"m 471 351 l 440 351 q 375 288 375 351 l 375 88 q 168 -140 375 -140 l 7 -140 l 7 94 l 111 94 q 131 118 131 94 l 131 315 q 140 376 131 349 q 162 419 149 404 q 188 445 175 435 q 208 458 200 456 l 218 463 q 208 467 214 464 q 188 481 203 469 q 161 506 172 492 q 140 549 150 521 q 131 610 131 576 l 131 807 q 111 831 131 831 l 7 831 l 7 1065 l 168 1065 q 375 838 375 1065 l 375 638 q 440 574 375 574 l 471 574 l 471 351 z "},"~":{"ha":618,"x_min":21,"x_max":597,"o":"m 151 408 l 21 408 q 200 668 21 668 q 288 644 246 668 q 362 597 331 621 q 413 574 393 574 q 468 663 468 574 l 597 663 q 419 403 597 403 q 331 426 374 403 q 258 474 289 450 q 207 497 226 497 q 151 408 151 497 z "},"¡":{"ha":400,"x_min":42,"x_max":358,"o":"m 42 0 l 89 653 l 311 653 l 358 0 l 42 0 m 65 694 l 65 926 l 335 926 l 335 694 l 65 694 z "},"¢":{"ha":531,"x_min":14,"x_max":531,"o":"m 252 715 q 237 700 252 715 q 222 640 222 686 q 252 566 222 594 q 325 538 282 538 q 379 547 353 538 q 418 564 406 556 l 431 574 l 531 397 q 432 351 492 369 l 432 240 l 201 240 l 201 358 q 65 467 115 392 q 14 640 14 542 q 65 814 14 739 q 201 922 115 889 l 201 1040 l 432 1040 l 432 929 q 484 910 460 921 q 519 892 508 899 l 531 883 l 431 707 q 325 743 388 743 q 252 715 282 743 z "},"£":{"ha":697,"x_min":-14,"x_max":704,"o":"m -14 343 l 31 565 l 118 565 l 140 669 q 249 876 168 804 q 456 949 329 949 q 594 924 532 949 q 681 876 656 900 l 704 853 l 563 656 q 489 682 533 682 q 400 596 415 682 l 394 565 l 525 565 l 479 343 l 350 343 l 329 243 l 704 243 l 617 0 l 1 0 l 72 343 l -14 343 z "},"¤":{"ha":683,"x_min":42,"x_max":642,"o":"m 149 765 l 225 688 q 342 717 281 717 q 457 688 401 717 l 535 765 l 642 658 l 564 581 q 593 465 593 525 q 564 349 593 404 l 642 272 l 535 165 l 457 242 q 342 214 404 214 q 225 242 278 214 l 149 165 l 42 272 l 118 349 q 90 465 90 401 q 118 581 90 528 l 42 658 l 149 765 m 294 513 q 284 503 294 513 q 274 465 274 493 q 294 417 274 438 q 342 397 314 397 q 390 417 369 397 q 410 465 410 438 q 390 513 410 493 q 342 533 369 533 q 294 513 314 533 z "},"¥":{"ha":774,"x_min":-28,"x_max":801,"o":"m 694 343 l 535 343 l 535 0 l 240 0 l 240 343 l 79 343 l 79 565 l 154 565 l -28 926 l 294 926 l 389 731 l 482 926 l 801 926 l 618 565 l 694 565 l 694 343 z "},"¦":{"ha":297,"x_min":69,"x_max":228,"o":"m 69 963 l 228 963 l 228 515 l 69 515 l 69 963 m 69 411 l 228 411 l 228 -36 l 69 -36 l 69 411 z "},"§":{"ha":626,"x_min":21,"x_max":613,"o":"m 24 -237 l 24 40 q 228 10 135 10 q 290 51 290 10 q 263 83 290 67 q 195 122 235 100 q 116 172 156 143 q 49 251 76 200 q 21 365 21 301 q 67 515 21 451 q 21 669 21 586 q 103 873 21 797 q 332 949 186 949 q 417 944 372 949 q 489 935 463 939 l 514 931 l 514 671 q 421 678 460 678 q 350 640 350 678 q 391 598 350 625 q 481 540 432 571 q 572 450 531 510 q 613 317 613 390 q 564 164 613 229 q 611 22 611 93 q 523 -189 611 -107 q 267 -271 435 -271 q 144 -262 206 -271 q 53 -246 83 -254 l 24 -237 m 285 319 l 364 275 q 378 319 378 293 q 346 375 378 357 l 267 419 q 253 375 253 401 q 285 319 253 338 z "},"¨":{"ha":486,"x_min":35,"x_max":451,"o":"m 35 717 l 35 857 l 213 857 l 213 717 l 35 717 m 274 717 l 274 857 l 451 857 l 451 717 l 274 717 z "},"©":{"ha":1028,"x_min":28,"x_max":1000,"o":"m 235 454 q 320 665 235 585 q 529 746 406 746 q 635 731 585 746 q 708 701 686 717 l 731 686 l 646 538 q 535 576 601 576 q 447 542 483 576 q 410 454 410 507 q 448 367 410 401 q 539 332 486 332 q 599 342 571 332 q 642 364 628 353 l 654 375 l 739 226 q 715 209 731 219 q 645 181 699 199 q 535 163 592 163 q 319 244 404 163 q 235 454 235 325 m 170 119 q 99 190 170 119 q 28 463 28 261 q 170 806 28 664 q 514 949 313 949 q 858 806 715 949 q 1000 463 1000 664 q 858 119 1000 261 q 514 -24 715 -24 q 170 119 313 -24 m 206 770 q 143 707 206 770 q 79 463 79 643 q 206 155 79 282 q 514 28 333 28 q 822 155 694 28 q 949 463 949 282 q 822 770 949 643 q 514 897 694 897 q 206 770 333 897 z "},"ª":{"ha":549,"x_min":-21,"x_max":569,"o":"m -21 324 l 193 926 l 354 926 l 569 324 l 379 324 l 364 371 l 185 371 l 168 324 l -21 324 m 246 525 l 313 525 l 274 642 l 246 525 z "},"«":{"ha":736,"x_min":0,"x_max":722,"o":"m 183 0 l 0 315 l 183 629 l 417 629 l 247 315 l 417 0 l 183 0 m 489 0 l 306 315 l 489 629 l 722 629 l 553 315 l 722 0 l 489 0 z "},"¬":{"ha":740,"x_min":42,"x_max":699,"o":"m 468 119 l 468 342 l 42 342 l 42 571 l 699 571 l 699 119 l 468 119 z "},"®":{"ha":828,"x_min":21,"x_max":807,"o":"m 268 349 l 268 765 l 411 765 q 546 725 494 765 q 597 608 597 685 q 583 543 597 572 q 553 503 568 514 l 539 492 l 619 349 l 481 349 l 417 468 l 394 468 l 394 349 l 268 349 m 394 658 l 394 556 l 413 556 q 453 569 438 556 q 469 607 469 583 q 453 644 469 631 q 413 658 438 658 l 394 658 m 136 278 q 78 335 136 278 q 21 556 21 393 q 136 833 21 718 q 414 949 251 949 q 692 833 576 949 q 807 556 807 718 q 692 278 807 393 q 414 163 576 163 q 136 278 251 163 m 172 797 q 122 747 172 797 q 72 556 72 697 q 172 314 72 414 q 414 214 272 214 q 656 314 556 214 q 756 556 756 414 q 656 797 756 697 q 414 897 556 897 q 172 797 272 897 z "},"¯":{"ha":431,"x_min":35,"x_max":396,"o":"m 35 717 l 35 854 l 396 854 l 396 717 l 35 717 z "},"°":{"ha":478,"x_min":21,"x_max":457,"o":"m 393 885 q 425 853 393 885 q 457 731 457 821 q 393 576 457 640 q 239 513 329 513 q 85 576 149 513 q 21 731 21 640 q 85 885 21 821 q 239 949 149 949 q 393 885 329 949 m 205 765 q 198 757 205 765 q 190 731 190 750 q 205 697 190 711 q 239 682 219 682 q 273 697 258 682 q 288 731 288 711 q 273 765 288 750 q 239 779 258 779 q 205 765 219 779 z "},"±":{"ha":639,"x_min":28,"x_max":611,"o":"m 204 264 l 204 440 l 28 440 l 28 671 l 204 671 l 204 847 l 435 847 l 435 671 l 611 671 l 611 440 l 435 440 l 435 264 l 204 264 m 611 0 l 28 0 l 28 231 l 611 231 l 611 0 z "},"²":{"ha":319,"x_min":-28,"x_max":313,"o":"m -28 417 l 100 661 q 126 736 126 713 q 64 788 126 788 l 32 785 l 32 926 q 104 933 68 933 q 246 895 188 933 q 304 775 304 857 q 288 698 304 738 q 228 571 272 658 l 217 550 l 313 550 l 269 417 l -28 417 z "},"³":{"ha":300,"x_min":7,"x_max":286,"o":"m 7 411 l 7 553 q 36 551 18 551 q 122 611 122 551 q 17 706 122 657 q 96 779 96 756 q 61 803 96 803 l 7 794 l 7 926 q 111 932 53 932 q 224 899 183 932 q 264 810 264 865 q 253 766 264 788 q 231 733 242 744 l 218 722 q 237 706 225 717 q 267 661 249 696 q 286 590 286 626 q 218 456 286 501 q 49 411 150 411 l 7 411 z "},"´":{"ha":368,"x_min":35,"x_max":333,"o":"m 190 717 l 35 717 l 150 932 l 333 932 l 190 717 z "},"µ":{"ha":681,"x_min":42,"x_max":639,"o":"m 340 -3 q 299 2 318 -3 q 271 11 279 7 l 263 17 l 263 -221 l 42 -221 l 42 608 l 294 608 l 294 278 q 340 222 294 222 q 386 278 386 222 l 386 608 l 639 608 l 639 0 l 432 0 l 432 25 q 340 -3 401 -3 z "},"¶":{"ha":882,"x_min":21,"x_max":840,"o":"m 390 471 l 390 676 q 282 574 282 676 q 390 471 282 471 m 840 -268 l 640 -268 l 640 676 l 589 676 l 589 -268 l 390 -268 l 390 221 q 123 316 225 221 q 21 574 21 411 q 123 831 21 736 q 390 926 225 926 l 840 926 l 840 -268 z "},"·":{"ha":353,"x_min":42,"x_max":311,"o":"m 42 347 l 42 579 l 311 579 l 311 347 l 42 347 z "},"¸":{"ha":432,"x_min":35,"x_max":397,"o":"m 35 -344 l 63 -237 q 161 -253 113 -253 q 222 -238 199 -253 q 244 -197 244 -224 q 169 -147 244 -147 l 111 -154 l 189 0 l 293 0 l 260 -67 q 274 -67 265 -67 q 308 -76 283 -68 q 350 -96 332 -83 q 383 -135 368 -108 q 397 -199 397 -162 q 347 -312 397 -264 q 182 -361 296 -361 q 109 -357 146 -361 q 53 -349 72 -353 l 35 -344 z "},"¹":{"ha":242,"x_min":-21,"x_max":214,"o":"m 49 417 l 49 728 l -21 808 l 92 926 l 214 926 l 214 417 l 49 417 z "},"º":{"ha":597,"x_min":14,"x_max":583,"o":"m 90 404 q 52 449 90 404 q 14 631 14 494 q 90 857 14 767 q 299 947 167 947 q 507 857 431 947 q 583 631 583 767 q 507 404 583 494 q 299 314 431 314 q 90 404 167 314 m 237 715 q 226 699 237 715 q 215 631 215 683 q 237 546 215 578 q 299 514 258 514 q 360 546 339 514 q 382 631 382 578 q 360 715 382 683 q 299 747 339 747 q 237 715 258 747 z "},"»":{"ha":736,"x_min":14,"x_max":736,"o":"m 431 315 l 247 0 l 14 0 l 183 315 l 14 629 l 247 629 l 431 315 m 736 315 l 553 0 l 319 0 l 489 315 l 319 629 l 553 629 l 736 315 z "},"¼":{"ha":721,"x_min":-14,"x_max":714,"o":"m 56 417 l 56 728 l -14 808 l 99 926 l 221 926 l 221 417 l 56 417 m 81 0 l 449 926 l 607 926 l 239 0 l 81 0 m 332 151 l 554 510 l 683 510 l 683 168 l 714 168 l 714 71 l 683 71 l 683 0 l 539 0 l 539 71 l 332 71 l 332 151 m 539 310 l 451 168 l 539 168 l 539 310 z "},"½":{"ha":761,"x_min":-14,"x_max":747,"o":"m 56 417 l 56 728 l -14 808 l 99 926 l 221 926 l 221 417 l 56 417 m 407 0 l 535 244 q 561 319 561 296 q 499 371 561 371 l 467 368 l 467 510 q 539 517 503 517 q 681 478 622 517 q 739 358 739 440 q 723 281 739 321 q 663 154 707 242 l 651 133 l 747 133 l 704 0 l 407 0 m 81 0 l 449 926 l 607 926 l 239 0 l 81 0 z "},"¾":{"ha":749,"x_min":14,"x_max":742,"o":"m 108 0 l 476 926 l 635 926 l 267 0 l 108 0 m 14 411 l 14 553 q 43 551 25 551 q 129 611 129 551 q 24 706 129 657 q 103 779 103 756 q 68 803 103 803 l 14 794 l 14 926 q 118 932 60 932 q 231 899 190 932 q 271 810 271 865 q 259 766 271 788 q 236 733 247 744 l 225 722 q 244 706 232 717 q 274 661 256 696 q 293 590 293 626 q 225 456 293 501 q 56 411 157 411 l 14 411 m 360 151 l 582 510 l 711 510 l 711 168 l 742 168 l 742 71 l 711 71 l 711 0 l 567 0 l 567 71 l 360 71 l 360 151 m 567 310 l 479 168 l 567 168 l 567 310 z "},"¿":{"ha":531,"x_min":21,"x_max":510,"o":"m 472 653 q 453 540 472 593 q 410 455 433 486 q 367 390 386 424 q 347 332 347 357 q 383 267 347 285 q 481 250 418 250 l 510 250 l 510 -8 q 368 -22 435 -22 q 116 56 211 -22 q 21 263 21 133 q 45 373 21 317 q 99 469 69 429 q 152 559 128 508 q 176 653 176 610 l 472 653 m 472 926 l 472 694 l 175 694 l 175 926 l 472 926 z "},"À":{"ha":794,"x_min":-28,"x_max":822,"o":"m -28 0 l 279 926 l 515 926 l 822 0 l 532 0 l 506 83 l 288 83 l 261 0 l -28 0 m 351 288 l 443 288 l 397 435 l 351 288 m 464 981 l 308 981 l 165 1196 l 349 1196 l 464 981 z "},"Á":{"ha":794,"x_min":-28,"x_max":822,"o":"m -28 0 l 279 926 l 515 926 l 822 0 l 532 0 l 506 83 l 288 83 l 261 0 l -28 0 m 351 288 l 443 288 l 397 435 l 351 288 m 488 981 l 332 981 l 447 1196 l 631 1196 l 488 981 z "},"Â":{"ha":794,"x_min":-28,"x_max":822,"o":"m -28 0 l 279 926 l 515 926 l 822 0 l 532 0 l 506 83 l 288 83 l 261 0 l -28 0 m 351 288 l 443 288 l 397 435 l 351 288 m 179 981 l 294 1196 l 497 1196 l 613 981 l 454 981 l 396 1079 l 338 981 l 179 981 z "},"Ã":{"ha":794,"x_min":-28,"x_max":822,"o":"m -28 0 l 279 926 l 515 926 l 822 0 l 532 0 l 506 83 l 288 83 l 261 0 l -28 0 m 351 288 l 443 288 l 397 435 l 351 288 m 293 981 l 175 981 q 319 1167 175 1167 q 409 1144 358 1167 q 468 1122 460 1122 q 500 1167 500 1122 l 618 1167 q 474 981 618 981 q 384 1002 435 981 q 325 1024 333 1024 q 293 981 293 1024 z "},"Ä":{"ha":794,"x_min":-28,"x_max":822,"o":"m -28 0 l 279 926 l 515 926 l 822 0 l 532 0 l 506 83 l 288 83 l 261 0 l -28 0 m 351 288 l 443 288 l 397 435 l 351 288 m 189 981 l 189 1121 l 367 1121 l 367 981 l 189 981 m 428 981 l 428 1121 l 606 1121 l 606 981 l 428 981 z "},"Å":{"ha":794,"x_min":-28,"x_max":822,"o":"m -28 0 l 279 926 l 515 926 l 822 0 l 532 0 l 506 83 l 288 83 l 261 0 l -28 0 m 351 288 l 443 288 l 397 435 l 351 288 m 221 1133 q 272 1258 221 1207 q 396 1310 324 1310 q 521 1258 469 1310 q 572 1133 572 1206 q 521 1010 572 1061 q 396 958 469 958 q 272 1010 322 958 q 221 1133 221 1061 m 352 1178 q 343 1169 352 1178 q 335 1133 335 1160 q 352 1090 335 1107 q 396 1072 369 1072 q 440 1090 422 1072 q 458 1133 458 1107 q 440 1178 458 1160 q 396 1196 422 1196 q 352 1178 369 1196 z "},"Æ":{"ha":1079,"x_min":-28,"x_max":1044,"o":"m -28 0 l 293 926 l 501 926 l 558 753 l 558 926 l 1035 926 l 1035 683 l 854 683 l 854 581 l 1031 581 l 1031 350 l 854 350 l 854 243 l 1044 243 l 1044 0 l 532 0 l 507 83 l 275 83 l 247 0 l -28 0 m 343 288 l 446 288 l 397 449 l 343 288 z "},"Ç":{"ha":751,"x_min":28,"x_max":765,"o":"m 242 -344 l 269 -237 q 368 -253 319 -253 q 428 -238 406 -253 q 451 -197 451 -224 q 376 -147 451 -147 l 318 -154 l 386 -17 q 123 143 218 10 q 28 463 28 276 q 145 810 28 671 q 465 949 263 949 q 569 937 519 949 q 652 908 619 925 q 709 875 685 892 q 744 847 733 858 l 756 835 l 621 599 q 603 615 615 606 q 550 642 590 625 q 465 658 510 658 q 358 603 396 658 q 319 463 319 547 q 358 322 319 378 q 465 267 396 267 q 556 286 515 267 q 611 325 596 306 l 628 343 l 765 101 q 754 89 761 97 q 722 60 747 81 q 666 24 696 40 q 588 -6 636 8 q 488 -22 540 -19 l 467 -67 q 481 -67 472 -67 q 515 -76 490 -68 q 557 -96 539 -83 q 590 -135 575 -108 q 604 -199 604 -162 q 553 -312 604 -264 q 389 -361 503 -361 q 316 -357 353 -361 q 261 -349 279 -353 l 242 -344 z "},"È":{"ha":569,"x_min":49,"x_max":535,"o":"m 49 0 l 49 926 l 525 926 l 525 683 l 344 683 l 344 581 l 521 581 l 521 350 l 344 350 l 344 243 l 535 243 l 535 0 l 49 0 m 365 981 l 210 981 l 67 1196 l 250 1196 l 365 981 z "},"É":{"ha":569,"x_min":49,"x_max":535,"o":"m 49 0 l 49 926 l 525 926 l 525 683 l 344 683 l 344 581 l 521 581 l 521 350 l 344 350 l 344 243 l 535 243 l 535 0 l 49 0 m 361 981 l 206 981 l 321 1196 l 504 1196 l 361 981 z "},"Ê":{"ha":569,"x_min":49,"x_max":535,"o":"m 49 0 l 49 926 l 525 926 l 525 683 l 344 683 l 344 581 l 521 581 l 521 350 l 344 350 l 344 243 l 535 243 l 535 0 l 49 0 m 67 981 l 182 1196 l 385 1196 l 500 981 l 342 981 l 283 1079 l 225 981 l 67 981 z "},"Ë":{"ha":569,"x_min":49,"x_max":535,"o":"m 49 0 l 49 926 l 525 926 l 525 683 l 344 683 l 344 581 l 521 581 l 521 350 l 344 350 l 344 243 l 535 243 l 535 0 l 49 0 m 76 981 l 76 1121 l 254 1121 l 254 981 l 76 981 m 315 981 l 315 1121 l 493 1121 l 493 981 l 315 981 z "},"Ì":{"ha":411,"x_min":1,"x_max":363,"o":"m 49 0 l 49 926 l 363 926 l 363 0 l 49 0 m 300 981 l 144 981 l 1 1196 l 185 1196 l 300 981 z "},"Í":{"ha":411,"x_min":49,"x_max":411,"o":"m 49 0 l 49 926 l 363 926 l 363 0 l 49 0 m 268 981 l 113 981 l 228 1196 l 411 1196 l 268 981 z "},"Î":{"ha":411,"x_min":-11,"x_max":422,"o":"m 49 0 l 49 926 l 363 926 l 363 0 l 49 0 m -11 981 l 104 1196 l 307 1196 l 422 981 l 264 981 l 206 1079 l 147 981 l -11 981 z "},"Ï":{"ha":411,"x_min":-3,"x_max":414,"o":"m 49 0 l 49 926 l 363 926 l 363 0 l 49 0 m -3 981 l -3 1121 l 175 1121 l 175 981 l -3 981 m 236 981 l 236 1121 l 414 1121 l 414 981 l 236 981 z "},"Ð":{"ha":792,"x_min":0,"x_max":764,"o":"m 0 585 l 28 585 l 28 926 l 215 926 q 620 806 476 926 q 764 464 764 686 q 620 122 764 243 q 215 0 476 0 l 28 0 l 28 369 l 0 369 l 0 585 m 324 663 l 324 585 l 408 585 l 408 369 l 324 369 l 324 264 l 329 264 q 432 316 392 264 q 472 464 472 368 q 428 608 472 554 q 329 663 385 663 l 324 663 z "},"Ñ":{"ha":817,"x_min":49,"x_max":768,"o":"m 49 0 l 49 926 l 294 926 l 478 624 l 478 926 l 768 926 l 768 0 l 521 0 l 339 297 l 339 0 l 49 0 m 304 981 l 186 981 q 331 1167 186 1167 q 420 1144 369 1167 q 479 1122 471 1122 q 511 1167 511 1122 l 629 1167 q 485 981 629 981 q 395 1002 446 981 q 336 1024 344 1024 q 304 981 304 1024 z "},"Ò":{"ha":931,"x_min":28,"x_max":903,"o":"m 145 115 q 86 185 145 115 q 28 463 28 254 q 145 810 28 671 q 465 949 263 949 q 785 810 668 949 q 903 463 903 671 q 785 115 903 254 q 465 -24 668 -24 q 145 115 263 -24 m 358 603 q 339 575 358 603 q 319 463 319 547 q 358 322 319 378 q 465 267 396 267 q 573 322 535 267 q 611 463 611 378 q 573 603 611 547 q 465 658 535 658 q 358 603 396 658 m 560 981 l 404 981 l 261 1196 l 444 1196 l 560 981 z "},"Ó":{"ha":931,"x_min":28,"x_max":903,"o":"m 145 115 q 86 185 145 115 q 28 463 28 254 q 145 810 28 671 q 465 949 263 949 q 785 810 668 949 q 903 463 903 671 q 785 115 903 254 q 465 -24 668 -24 q 145 115 263 -24 m 358 603 q 339 575 358 603 q 319 463 319 547 q 358 322 319 378 q 465 267 396 267 q 573 322 535 267 q 611 463 611 378 q 573 603 611 547 q 465 658 535 658 q 358 603 396 658 m 528 981 l 372 981 l 488 1196 l 671 1196 l 528 981 z "},"Ô":{"ha":931,"x_min":28,"x_max":903,"o":"m 145 115 q 86 185 145 115 q 28 463 28 254 q 145 810 28 671 q 465 949 263 949 q 785 810 668 949 q 903 463 903 671 q 785 115 903 254 q 465 -24 668 -24 q 145 115 263 -24 m 358 603 q 339 575 358 603 q 319 463 319 547 q 358 322 319 378 q 465 267 396 267 q 573 322 535 267 q 611 463 611 378 q 573 603 611 547 q 465 658 535 658 q 358 603 396 658 m 247 981 l 363 1196 l 565 1196 l 681 981 l 522 981 l 464 1079 l 406 981 l 247 981 z "},"Õ":{"ha":931,"x_min":28,"x_max":903,"o":"m 145 115 q 86 185 145 115 q 28 463 28 254 q 145 810 28 671 q 465 949 263 949 q 785 810 668 949 q 903 463 903 671 q 785 115 903 254 q 465 -24 668 -24 q 145 115 263 -24 m 358 603 q 339 575 358 603 q 319 463 319 547 q 358 322 319 378 q 465 267 396 267 q 573 322 535 267 q 611 463 611 378 q 573 603 611 547 q 465 658 535 658 q 358 603 396 658 m 361 981 l 243 981 q 388 1167 243 1167 q 477 1144 426 1167 q 536 1122 528 1122 q 568 1167 568 1122 l 686 1167 q 542 981 686 981 q 452 1002 503 981 q 393 1024 401 1024 q 361 981 361 1024 z "},"Ö":{"ha":931,"x_min":28,"x_max":903,"o":"m 145 115 q 86 185 145 115 q 28 463 28 254 q 145 810 28 671 q 465 949 263 949 q 785 810 668 949 q 903 463 903 671 q 785 115 903 254 q 465 -24 668 -24 q 145 115 263 -24 m 358 603 q 339 575 358 603 q 319 463 319 547 q 358 322 319 378 q 465 267 396 267 q 573 322 535 267 q 611 463 611 378 q 573 603 611 547 q 465 658 535 658 q 358 603 396 658 m 257 981 l 257 1121 l 435 1121 l 435 981 l 257 981 m 496 981 l 496 1121 l 674 1121 l 674 981 l 496 981 z "},"×":{"ha":633,"x_min":14,"x_max":619,"o":"m 14 236 l 154 375 l 14 514 l 178 678 l 317 538 l 456 678 l 619 514 l 479 375 l 619 236 l 456 72 l 317 213 l 178 72 l 14 236 z "},"Ø":{"ha":931,"x_min":21,"x_max":910,"o":"m 29 463 q 147 810 29 671 q 467 949 264 949 q 629 919 556 949 l 681 985 l 910 781 l 853 708 q 904 463 904 597 q 787 115 904 254 q 467 -24 669 -24 q 301 6 381 -24 l 250 -60 l 21 144 l 79 219 q 29 463 29 326 m 359 603 q 340 575 359 603 q 321 463 321 547 q 359 322 321 378 q 467 267 397 267 q 574 322 536 267 q 613 463 613 378 q 574 603 613 547 q 467 658 536 658 q 359 603 397 658 z "},"Ù":{"ha":788,"x_min":44,"x_max":743,"o":"m 393 -24 q 135 68 226 -24 q 44 340 44 160 l 44 926 l 340 926 l 340 350 q 351 273 340 296 q 393 250 361 250 q 435 273 425 250 q 446 350 446 296 l 446 926 l 743 926 l 743 340 q 652 68 743 160 q 393 -24 561 -24 m 488 981 l 332 981 l 189 1196 l 372 1196 l 488 981 z "},"Ú":{"ha":788,"x_min":44,"x_max":743,"o":"m 393 -24 q 135 68 226 -24 q 44 340 44 160 l 44 926 l 340 926 l 340 350 q 351 273 340 296 q 393 250 361 250 q 435 273 425 250 q 446 350 446 296 l 446 926 l 743 926 l 743 340 q 652 68 743 160 q 393 -24 561 -24 m 456 981 l 300 981 l 415 1196 l 599 1196 l 456 981 z "},"Û":{"ha":788,"x_min":44,"x_max":743,"o":"m 393 -24 q 135 68 226 -24 q 44 340 44 160 l 44 926 l 340 926 l 340 350 q 351 273 340 296 q 393 250 361 250 q 435 273 425 250 q 446 350 446 296 l 446 926 l 743 926 l 743 340 q 652 68 743 160 q 393 -24 561 -24 m 176 981 l 292 1196 l 494 1196 l 610 981 l 451 981 l 393 1079 l 335 981 l 176 981 z "},"Ü":{"ha":788,"x_min":44,"x_max":743,"o":"m 393 -24 q 135 68 226 -24 q 44 340 44 160 l 44 926 l 340 926 l 340 350 q 351 273 340 296 q 393 250 361 250 q 435 273 425 250 q 446 350 446 296 l 446 926 l 743 926 l 743 340 q 652 68 743 160 q 393 -24 561 -24 m 185 981 l 185 1121 l 363 1121 l 363 981 l 185 981 m 424 981 l 424 1121 l 601 1121 l 601 981 l 424 981 z "},"Ý":{"ha":715,"x_min":-28,"x_max":743,"o":"m 211 0 l 211 406 l -28 926 l 285 926 l 360 761 l 431 926 l 743 926 l 507 406 l 507 0 l 211 0 m 421 981 l 265 981 l 381 1196 l 564 1196 l 421 981 z "},"Þ":{"ha":721,"x_min":49,"x_max":700,"o":"m 700 463 q 597 199 700 289 q 344 110 493 110 l 344 0 l 49 0 l 49 926 l 363 926 l 363 810 q 608 703 515 790 q 700 463 700 617 m 344 565 l 344 360 l 353 360 q 399 385 375 360 q 424 463 424 410 q 399 540 424 515 q 353 565 375 565 l 344 565 z "},"ß":{"ha":1179,"x_min":21,"x_max":1165,"o":"m 26 13 l 26 292 q 203 257 119 257 q 260 304 260 257 q 235 348 260 324 q 176 402 211 372 q 105 469 140 432 q 45 561 69 506 q 21 682 21 617 q 105 878 21 807 q 311 949 189 949 q 394 944 350 949 q 464 933 439 939 l 490 929 l 490 669 q 422 678 457 678 q 357 644 357 678 q 380 610 357 632 q 436 558 403 589 q 502 489 469 528 q 558 392 535 450 q 581 269 581 335 q 499 59 581 142 q 264 -24 417 -24 q 149 -15 208 -24 q 58 3 89 -6 l 26 13 m 611 13 l 611 292 q 788 257 704 257 q 844 304 844 257 q 820 348 844 324 q 760 402 796 372 q 690 469 725 432 q 630 561 654 506 q 606 682 606 617 q 690 878 606 807 q 896 949 774 949 q 979 944 935 949 q 1050 933 1024 939 l 1075 929 l 1075 669 q 1007 678 1042 678 q 942 644 942 678 q 965 610 942 632 q 1020 558 988 589 q 1086 489 1053 528 q 1142 392 1119 450 q 1165 269 1165 335 q 1083 59 1165 142 q 849 -24 1001 -24 q 733 -15 793 -24 q 642 3 674 -6 l 611 13 z "},"à":{"ha":794,"x_min":-28,"x_max":822,"o":"m -28 0 l 279 926 l 515 926 l 822 0 l 532 0 l 506 83 l 288 83 l 261 0 l -28 0 m 351 288 l 443 288 l 397 435 l 351 288 m 464 981 l 308 981 l 165 1196 l 349 1196 l 464 981 z "},"á":{"ha":794,"x_min":-28,"x_max":822,"o":"m -28 0 l 279 926 l 515 926 l 822 0 l 532 0 l 506 83 l 288 83 l 261 0 l -28 0 m 351 288 l 443 288 l 397 435 l 351 288 m 488 981 l 332 981 l 447 1196 l 631 1196 l 488 981 z "},"â":{"ha":794,"x_min":-28,"x_max":822,"o":"m -28 0 l 279 926 l 515 926 l 822 0 l 532 0 l 506 83 l 288 83 l 261 0 l -28 0 m 351 288 l 443 288 l 397 435 l 351 288 m 179 981 l 294 1196 l 497 1196 l 613 981 l 454 981 l 396 1079 l 338 981 l 179 981 z "},"ã":{"ha":794,"x_min":-28,"x_max":822,"o":"m -28 0 l 279 926 l 515 926 l 822 0 l 532 0 l 506 83 l 288 83 l 261 0 l -28 0 m 351 288 l 443 288 l 397 435 l 351 288 m 293 981 l 175 981 q 319 1167 175 1167 q 409 1144 358 1167 q 468 1122 460 1122 q 500 1167 500 1122 l 618 1167 q 474 981 618 981 q 384 1002 435 981 q 325 1024 333 1024 q 293 981 293 1024 z "},"ä":{"ha":794,"x_min":-28,"x_max":822,"o":"m -28 0 l 279 926 l 515 926 l 822 0 l 532 0 l 506 83 l 288 83 l 261 0 l -28 0 m 351 288 l 443 288 l 397 435 l 351 288 m 189 981 l 189 1121 l 367 1121 l 367 981 l 189 981 m 428 981 l 428 1121 l 606 1121 l 606 981 l 428 981 z "},"å":{"ha":794,"x_min":-28,"x_max":822,"o":"m -28 0 l 279 926 l 515 926 l 822 0 l 532 0 l 506 83 l 288 83 l 261 0 l -28 0 m 351 288 l 443 288 l 397 435 l 351 288 m 221 1133 q 272 1258 221 1207 q 396 1310 324 1310 q 521 1258 469 1310 q 572 1133 572 1206 q 521 1010 572 1061 q 396 958 469 958 q 272 1010 322 958 q 221 1133 221 1061 m 352 1178 q 343 1169 352 1178 q 335 1133 335 1160 q 352 1090 335 1107 q 396 1072 369 1072 q 440 1090 422 1072 q 458 1133 458 1107 q 440 1178 458 1160 q 396 1196 422 1196 q 352 1178 369 1196 z "},"æ":{"ha":1079,"x_min":-28,"x_max":1044,"o":"m -28 0 l 293 926 l 501 926 l 558 753 l 558 926 l 1035 926 l 1035 683 l 854 683 l 854 581 l 1031 581 l 1031 350 l 854 350 l 854 243 l 1044 243 l 1044 0 l 532 0 l 507 83 l 275 83 l 247 0 l -28 0 m 343 288 l 446 288 l 397 449 l 343 288 z "},"ç":{"ha":751,"x_min":28,"x_max":765,"o":"m 242 -344 l 269 -237 q 368 -253 319 -253 q 428 -238 406 -253 q 451 -197 451 -224 q 376 -147 451 -147 l 318 -154 l 386 -17 q 123 143 218 10 q 28 463 28 276 q 145 810 28 671 q 465 949 263 949 q 569 937 519 949 q 652 908 619 925 q 709 875 685 892 q 744 847 733 858 l 756 835 l 621 599 q 603 615 615 606 q 550 642 590 625 q 465 658 510 658 q 358 603 396 658 q 319 463 319 547 q 358 322 319 378 q 465 267 396 267 q 556 286 515 267 q 611 325 596 306 l 628 343 l 765 101 q 754 89 761 97 q 722 60 747 81 q 666 24 696 40 q 588 -6 636 8 q 488 -22 540 -19 l 467 -67 q 481 -67 472 -67 q 515 -76 490 -68 q 557 -96 539 -83 q 590 -135 575 -108 q 604 -199 604 -162 q 553 -312 604 -264 q 389 -361 503 -361 q 316 -357 353 -361 q 261 -349 279 -353 l 242 -344 z "},"è":{"ha":569,"x_min":49,"x_max":535,"o":"m 49 0 l 49 926 l 525 926 l 525 683 l 344 683 l 344 581 l 521 581 l 521 350 l 344 350 l 344 243 l 535 243 l 535 0 l 49 0 m 365 981 l 210 981 l 67 1196 l 250 1196 l 365 981 z "},"é":{"ha":569,"x_min":49,"x_max":535,"o":"m 49 0 l 49 926 l 525 926 l 525 683 l 344 683 l 344 581 l 521 581 l 521 350 l 344 350 l 344 243 l 535 243 l 535 0 l 49 0 m 361 981 l 206 981 l 321 1196 l 504 1196 l 361 981 z "},"ê":{"ha":569,"x_min":49,"x_max":535,"o":"m 49 0 l 49 926 l 525 926 l 525 683 l 344 683 l 344 581 l 521 581 l 521 350 l 344 350 l 344 243 l 535 243 l 535 0 l 49 0 m 67 981 l 182 1196 l 385 1196 l 500 981 l 342 981 l 283 1079 l 225 981 l 67 981 z "},"ë":{"ha":569,"x_min":49,"x_max":535,"o":"m 49 0 l 49 926 l 525 926 l 525 683 l 344 683 l 344 581 l 521 581 l 521 350 l 344 350 l 344 243 l 535 243 l 535 0 l 49 0 m 76 981 l 76 1121 l 254 1121 l 254 981 l 76 981 m 315 981 l 315 1121 l 493 1121 l 493 981 l 315 981 z "},"ì":{"ha":411,"x_min":1,"x_max":363,"o":"m 49 0 l 49 926 l 363 926 l 363 0 l 49 0 m 300 981 l 144 981 l 1 1196 l 185 1196 l 300 981 z "},"í":{"ha":411,"x_min":49,"x_max":411,"o":"m 49 0 l 49 926 l 363 926 l 363 0 l 49 0 m 268 981 l 113 981 l 228 1196 l 411 1196 l 268 981 z "},"î":{"ha":411,"x_min":-11,"x_max":422,"o":"m 49 0 l 49 926 l 363 926 l 363 0 l 49 0 m -11 981 l 104 1196 l 307 1196 l 422 981 l 264 981 l 206 1079 l 147 981 l -11 981 z "},"ï":{"ha":411,"x_min":-3,"x_max":414,"o":"m 49 0 l 49 926 l 363 926 l 363 0 l 49 0 m -3 981 l -3 1121 l 175 1121 l 175 981 l -3 981 m 236 981 l 236 1121 l 414 1121 l 414 981 l 236 981 z "},"ð":{"ha":792,"x_min":0,"x_max":764,"o":"m 0 585 l 28 585 l 28 926 l 215 926 q 620 806 476 926 q 764 464 764 686 q 620 122 764 243 q 215 0 476 0 l 28 0 l 28 369 l 0 369 l 0 585 m 324 663 l 324 585 l 408 585 l 408 369 l 324 369 l 324 264 l 329 264 q 432 316 392 264 q 472 464 472 368 q 428 608 472 554 q 329 663 385 663 l 324 663 z "},"ñ":{"ha":817,"x_min":49,"x_max":768,"o":"m 49 0 l 49 926 l 294 926 l 478 624 l 478 926 l 768 926 l 768 0 l 521 0 l 339 297 l 339 0 l 49 0 m 304 981 l 186 981 q 331 1167 186 1167 q 420 1144 369 1167 q 479 1122 471 1122 q 511 1167 511 1122 l 629 1167 q 485 981 629 981 q 395 1002 446 981 q 336 1024 344 1024 q 304 981 304 1024 z "},"ò":{"ha":931,"x_min":28,"x_max":903,"o":"m 145 115 q 86 185 145 115 q 28 463 28 254 q 145 810 28 671 q 465 949 263 949 q 785 810 668 949 q 903 463 903 671 q 785 115 903 254 q 465 -24 668 -24 q 145 115 263 -24 m 358 603 q 339 575 358 603 q 319 463 319 547 q 358 322 319 378 q 465 267 396 267 q 573 322 535 267 q 611 463 611 378 q 573 603 611 547 q 465 658 535 658 q 358 603 396 658 m 560 981 l 404 981 l 261 1196 l 444 1196 l 560 981 z "},"ó":{"ha":931,"x_min":28,"x_max":903,"o":"m 145 115 q 86 185 145 115 q 28 463 28 254 q 145 810 28 671 q 465 949 263 949 q 785 810 668 949 q 903 463 903 671 q 785 115 903 254 q 465 -24 668 -24 q 145 115 263 -24 m 358 603 q 339 575 358 603 q 319 463 319 547 q 358 322 319 378 q 465 267 396 267 q 573 322 535 267 q 611 463 611 378 q 573 603 611 547 q 465 658 535 658 q 358 603 396 658 m 528 981 l 372 981 l 488 1196 l 671 1196 l 528 981 z "},"ô":{"ha":931,"x_min":28,"x_max":903,"o":"m 145 115 q 86 185 145 115 q 28 463 28 254 q 145 810 28 671 q 465 949 263 949 q 785 810 668 949 q 903 463 903 671 q 785 115 903 254 q 465 -24 668 -24 q 145 115 263 -24 m 358 603 q 339 575 358 603 q 319 463 319 547 q 358 322 319 378 q 465 267 396 267 q 573 322 535 267 q 611 463 611 378 q 573 603 611 547 q 465 658 535 658 q 358 603 396 658 m 247 981 l 363 1196 l 565 1196 l 681 981 l 522 981 l 464 1079 l 406 981 l 247 981 z "},"õ":{"ha":931,"x_min":28,"x_max":903,"o":"m 145 115 q 86 185 145 115 q 28 463 28 254 q 145 810 28 671 q 465 949 263 949 q 785 810 668 949 q 903 463 903 671 q 785 115 903 254 q 465 -24 668 -24 q 145 115 263 -24 m 358 603 q 339 575 358 603 q 319 463 319 547 q 358 322 319 378 q 465 267 396 267 q 573 322 535 267 q 611 463 611 378 q 573 603 611 547 q 465 658 535 658 q 358 603 396 658 m 361 981 l 243 981 q 388 1167 243 1167 q 477 1144 426 1167 q 536 1122 528 1122 q 568 1167 568 1122 l 686 1167 q 542 981 686 981 q 452 1002 503 981 q 393 1024 401 1024 q 361 981 361 1024 z "},"ö":{"ha":931,"x_min":28,"x_max":903,"o":"m 145 115 q 86 185 145 115 q 28 463 28 254 q 145 810 28 671 q 465 949 263 949 q 785 810 668 949 q 903 463 903 671 q 785 115 903 254 q 465 -24 668 -24 q 145 115 263 -24 m 358 603 q 339 575 358 603 q 319 463 319 547 q 358 322 319 378 q 465 267 396 267 q 573 322 535 267 q 611 463 611 378 q 573 603 611 547 q 465 658 535 658 q 358 603 396 658 m 257 981 l 257 1121 l 435 1121 l 435 981 l 257 981 m 496 981 l 496 1121 l 674 1121 l 674 981 l 496 981 z "},"÷":{"ha":639,"x_min":28,"x_max":611,"o":"m 611 260 l 28 260 l 28 490 l 611 490 l 611 260 m 411 524 l 228 524 l 228 693 l 411 693 l 411 524 m 228 226 l 411 226 l 411 57 l 228 57 l 228 226 z "},"ø":{"ha":931,"x_min":21,"x_max":910,"o":"m 29 463 q 147 810 29 671 q 467 949 264 949 q 629 919 556 949 l 681 985 l 910 781 l 853 708 q 904 463 904 597 q 787 115 904 254 q 467 -24 669 -24 q 301 6 381 -24 l 250 -60 l 21 144 l 79 219 q 29 463 29 326 m 359 603 q 340 575 359 603 q 321 463 321 547 q 359 322 321 378 q 467 267 397 267 q 574 322 536 267 q 613 463 613 378 q 574 603 613 547 q 467 658 536 658 q 359 603 397 658 z "},"ù":{"ha":788,"x_min":44,"x_max":743,"o":"m 393 -24 q 135 68 226 -24 q 44 340 44 160 l 44 926 l 340 926 l 340 350 q 351 273 340 296 q 393 250 361 250 q 435 273 425 250 q 446 350 446 296 l 446 926 l 743 926 l 743 340 q 652 68 743 160 q 393 -24 561 -24 m 488 981 l 332 981 l 189 1196 l 372 1196 l 488 981 z "},"ú":{"ha":788,"x_min":44,"x_max":743,"o":"m 393 -24 q 135 68 226 -24 q 44 340 44 160 l 44 926 l 340 926 l 340 350 q 351 273 340 296 q 393 250 361 250 q 435 273 425 250 q 446 350 446 296 l 446 926 l 743 926 l 743 340 q 652 68 743 160 q 393 -24 561 -24 m 456 981 l 300 981 l 415 1196 l 599 1196 l 456 981 z "},"û":{"ha":788,"x_min":44,"x_max":743,"o":"m 393 -24 q 135 68 226 -24 q 44 340 44 160 l 44 926 l 340 926 l 340 350 q 351 273 340 296 q 393 250 361 250 q 435 273 425 250 q 446 350 446 296 l 446 926 l 743 926 l 743 340 q 652 68 743 160 q 393 -24 561 -24 m 176 981 l 292 1196 l 494 1196 l 610 981 l 451 981 l 393 1079 l 335 981 l 176 981 z "},"ü":{"ha":788,"x_min":44,"x_max":743,"o":"m 393 -24 q 135 68 226 -24 q 44 340 44 160 l 44 926 l 340 926 l 340 350 q 351 273 340 296 q 393 250 361 250 q 435 273 425 250 q 446 350 446 296 l 446 926 l 743 926 l 743 340 q 652 68 743 160 q 393 -24 561 -24 m 185 981 l 185 1121 l 363 1121 l 363 981 l 185 981 m 424 981 l 424 1121 l 601 1121 l 601 981 l 424 981 z "},"ý":{"ha":715,"x_min":-28,"x_max":743,"o":"m 211 0 l 211 406 l -28 926 l 285 926 l 360 761 l 431 926 l 743 926 l 507 406 l 507 0 l 211 0 m 421 981 l 265 981 l 381 1196 l 564 1196 l 421 981 z "},"þ":{"ha":721,"x_min":49,"x_max":700,"o":"m 700 463 q 597 199 700 289 q 344 110 493 110 l 344 0 l 49 0 l 49 926 l 363 926 l 363 810 q 608 703 515 790 q 700 463 700 617 m 344 565 l 344 360 l 353 360 q 399 385 375 360 q 424 463 424 410 q 399 540 424 515 q 353 565 375 565 l 344 565 z "},"ÿ":{"ha":715,"x_min":-28,"x_max":743,"o":"m 211 0 l 211 406 l -28 926 l 285 926 l 360 761 l 431 926 l 743 926 l 507 406 l 507 0 l 211 0 m 150 981 l 150 1121 l 328 1121 l 328 981 l 150 981 m 389 981 l 389 1121 l 567 1121 l 567 981 l 389 981 z "},"Ā":{"ha":794,"x_min":-28,"x_max":822,"o":"m -28 0 l 279 926 l 515 926 l 822 0 l 532 0 l 506 83 l 288 83 l 261 0 l -28 0 m 351 288 l 443 288 l 397 435 l 351 288 m 217 981 l 217 1118 l 578 1118 l 578 981 l 217 981 z "},"ā":{"ha":794,"x_min":-28,"x_max":822,"o":"m -28 0 l 279 926 l 515 926 l 822 0 l 532 0 l 506 83 l 288 83 l 261 0 l -28 0 m 351 288 l 443 288 l 397 435 l 351 288 m 217 981 l 217 1118 l 578 1118 l 578 981 l 217 981 z "},"Ă":{"ha":794,"x_min":-28,"x_max":822,"o":"m -28 0 l 279 926 l 515 926 l 822 0 l 532 0 l 506 83 l 288 83 l 261 0 l -28 0 m 351 288 l 443 288 l 397 435 l 351 288 m 548 1042 q 523 1008 548 1042 q 397 974 499 974 q 247 1042 296 974 q 197 1183 197 1111 l 322 1183 q 323 1176 322 1181 q 328 1158 324 1171 q 340 1136 332 1146 q 362 1119 347 1126 q 397 1111 376 1111 q 448 1129 429 1111 q 469 1165 467 1147 l 472 1183 l 597 1183 q 548 1042 597 1111 z "},"ă":{"ha":794,"x_min":-28,"x_max":822,"o":"m -28 0 l 279 926 l 515 926 l 822 0 l 532 0 l 506 83 l 288 83 l 261 0 l -28 0 m 351 288 l 443 288 l 397 435 l 351 288 m 548 1042 q 523 1008 548 1042 q 397 974 499 974 q 247 1042 296 974 q 197 1183 197 1111 l 322 1183 q 323 1176 322 1181 q 328 1158 324 1171 q 340 1136 332 1146 q 362 1119 347 1126 q 397 1111 376 1111 q 448 1129 429 1111 q 469 1165 467 1147 l 472 1183 l 597 1183 q 548 1042 597 1111 z "},"Ą":{"ha":794,"x_min":-28,"x_max":832,"o":"m 832 -290 q 743 -304 806 -304 q 592 -262 649 -304 q 536 -149 536 -219 q 640 0 536 -49 l 532 0 l 506 83 l 288 83 l 261 0 l -28 0 l 279 926 l 515 926 l 822 0 l 764 0 q 743 -12 756 -4 q 710 -51 731 -21 q 689 -114 689 -81 q 715 -174 689 -153 q 782 -196 740 -196 q 819 -193 800 -196 l 832 -290 m 351 288 l 443 288 l 397 435 l 351 288 z "},"ą":{"ha":794,"x_min":-28,"x_max":832,"o":"m 832 -290 q 743 -304 806 -304 q 592 -262 649 -304 q 536 -149 536 -219 q 640 0 536 -49 l 532 0 l 506 83 l 288 83 l 261 0 l -28 0 l 279 926 l 515 926 l 822 0 l 764 0 q 743 -12 756 -4 q 710 -51 731 -21 q 689 -114 689 -81 q 715 -174 689 -153 q 782 -196 740 -196 q 819 -193 800 -196 l 832 -290 m 351 288 l 443 288 l 397 435 l 351 288 z "},"Ć":{"ha":751,"x_min":28,"x_max":765,"o":"m 628 343 l 765 101 q 753 88 761 96 q 718 58 746 79 q 658 19 690 36 q 574 -10 626 3 q 465 -24 522 -24 q 145 115 263 -24 q 28 463 28 254 q 145 810 28 671 q 465 949 263 949 q 569 937 519 949 q 652 908 619 925 q 709 875 685 892 q 744 847 733 858 l 756 835 l 621 599 q 603 615 615 606 q 550 642 590 625 q 465 658 510 658 q 358 603 396 658 q 319 463 319 547 q 358 322 319 378 q 465 267 396 267 q 556 286 515 267 q 611 325 596 306 l 628 343 m 494 981 l 339 981 l 454 1196 l 638 1196 l 494 981 z "},"ć":{"ha":751,"x_min":28,"x_max":765,"o":"m 628 343 l 765 101 q 753 88 761 96 q 718 58 746 79 q 658 19 690 36 q 574 -10 626 3 q 465 -24 522 -24 q 145 115 263 -24 q 28 463 28 254 q 145 810 28 671 q 465 949 263 949 q 569 937 519 949 q 652 908 619 925 q 709 875 685 892 q 744 847 733 858 l 756 835 l 621 599 q 603 615 615 606 q 550 642 590 625 q 465 658 510 658 q 358 603 396 658 q 319 463 319 547 q 358 322 319 378 q 465 267 396 267 q 556 286 515 267 q 611 325 596 306 l 628 343 m 494 981 l 339 981 l 454 1196 l 638 1196 l 494 981 z "},"Ĉ":{"ha":751,"x_min":28,"x_max":765,"o":"m 628 343 l 765 101 q 753 88 761 96 q 718 58 746 79 q 658 19 690 36 q 574 -10 626 3 q 465 -24 522 -24 q 145 115 263 -24 q 28 463 28 254 q 145 810 28 671 q 465 949 263 949 q 569 937 519 949 q 652 908 619 925 q 709 875 685 892 q 744 847 733 858 l 756 835 l 621 599 q 603 615 615 606 q 550 642 590 625 q 465 658 510 658 q 358 603 396 658 q 319 463 319 547 q 358 322 319 378 q 465 267 396 267 q 556 286 515 267 q 611 325 596 306 l 628 343 m 228 981 l 343 1196 l 546 1196 l 661 981 l 503 981 l 444 1079 l 386 981 l 228 981 z "},"ĉ":{"ha":751,"x_min":28,"x_max":765,"o":"m 628 343 l 765 101 q 753 88 761 96 q 718 58 746 79 q 658 19 690 36 q 574 -10 626 3 q 465 -24 522 -24 q 145 115 263 -24 q 28 463 28 254 q 145 810 28 671 q 465 949 263 949 q 569 937 519 949 q 652 908 619 925 q 709 875 685 892 q 744 847 733 858 l 756 835 l 621 599 q 603 615 615 606 q 550 642 590 625 q 465 658 510 658 q 358 603 396 658 q 319 463 319 547 q 358 322 319 378 q 465 267 396 267 q 556 286 515 267 q 611 325 596 306 l 628 343 m 228 981 l 343 1196 l 546 1196 l 661 981 l 503 981 l 444 1079 l 386 981 l 228 981 z "},"Ċ":{"ha":751,"x_min":28,"x_max":765,"o":"m 628 343 l 765 101 q 753 88 761 96 q 718 58 746 79 q 658 19 690 36 q 574 -10 626 3 q 465 -24 522 -24 q 145 115 263 -24 q 28 463 28 254 q 145 810 28 671 q 465 949 263 949 q 569 937 519 949 q 652 908 619 925 q 709 875 685 892 q 744 847 733 858 l 756 835 l 621 599 q 603 615 615 606 q 550 642 590 625 q 465 658 510 658 q 358 603 396 658 q 319 463 319 547 q 358 322 319 378 q 465 267 396 267 q 556 286 515 267 q 611 325 596 306 l 628 343 m 343 981 l 343 1121 l 521 1121 l 521 981 l 343 981 z "},"ċ":{"ha":751,"x_min":28,"x_max":765,"o":"m 628 343 l 765 101 q 753 88 761 96 q 718 58 746 79 q 658 19 690 36 q 574 -10 626 3 q 465 -24 522 -24 q 145 115 263 -24 q 28 463 28 254 q 145 810 28 671 q 465 949 263 949 q 569 937 519 949 q 652 908 619 925 q 709 875 685 892 q 744 847 733 858 l 756 835 l 621 599 q 603 615 615 606 q 550 642 590 625 q 465 658 510 658 q 358 603 396 658 q 319 463 319 547 q 358 322 319 378 q 465 267 396 267 q 556 286 515 267 q 611 325 596 306 l 628 343 m 343 981 l 343 1121 l 521 1121 l 521 981 l 343 981 z "},"Č":{"ha":751,"x_min":28,"x_max":765,"o":"m 628 343 l 765 101 q 753 88 761 96 q 718 58 746 79 q 658 19 690 36 q 574 -10 626 3 q 465 -24 522 -24 q 145 115 263 -24 q 28 463 28 254 q 145 810 28 671 q 465 949 263 949 q 569 937 519 949 q 652 908 619 925 q 709 875 685 892 q 744 847 733 858 l 756 835 l 621 599 q 603 615 615 606 q 550 642 590 625 q 465 658 510 658 q 358 603 396 658 q 319 463 319 547 q 358 322 319 378 q 465 267 396 267 q 556 286 515 267 q 611 325 596 306 l 628 343 m 329 981 l 214 1196 l 372 1196 l 431 1097 l 489 1196 l 647 1196 l 532 981 l 329 981 z "},"č":{"ha":751,"x_min":28,"x_max":765,"o":"m 628 343 l 765 101 q 753 88 761 96 q 718 58 746 79 q 658 19 690 36 q 574 -10 626 3 q 465 -24 522 -24 q 145 115 263 -24 q 28 463 28 254 q 145 810 28 671 q 465 949 263 949 q 569 937 519 949 q 652 908 619 925 q 709 875 685 892 q 744 847 733 858 l 756 835 l 621 599 q 603 615 615 606 q 550 642 590 625 q 465 658 510 658 q 358 603 396 658 q 319 463 319 547 q 358 322 319 378 q 465 267 396 267 q 556 286 515 267 q 611 325 596 306 l 628 343 m 329 981 l 214 1196 l 372 1196 l 431 1097 l 489 1196 l 647 1196 l 532 981 l 329 981 z "},"Ď":{"ha":813,"x_min":49,"x_max":785,"o":"m 236 0 l 49 0 l 49 926 l 236 926 q 641 806 497 926 q 785 464 785 686 q 641 122 785 243 q 236 0 497 0 m 344 663 l 344 264 l 350 264 q 453 316 413 264 q 493 464 493 368 q 449 608 493 554 q 350 663 406 663 l 344 663 m 304 981 l 189 1196 l 347 1196 l 406 1097 l 464 1196 l 622 1196 l 507 981 l 304 981 z "},"ď":{"ha":813,"x_min":49,"x_max":785,"o":"m 236 0 l 49 0 l 49 926 l 236 926 q 641 806 497 926 q 785 464 785 686 q 641 122 785 243 q 236 0 497 0 m 344 663 l 344 264 l 350 264 q 453 316 413 264 q 493 464 493 368 q 449 608 493 554 q 350 663 406 663 l 344 663 m 304 981 l 189 1196 l 347 1196 l 406 1097 l 464 1196 l 622 1196 l 507 981 l 304 981 z "},"Đ":{"ha":792,"x_min":0,"x_max":764,"o":"m 0 585 l 28 585 l 28 926 l 215 926 q 620 806 476 926 q 764 464 764 686 q 620 122 764 243 q 215 0 476 0 l 28 0 l 28 369 l 0 369 l 0 585 m 324 663 l 324 585 l 408 585 l 408 369 l 324 369 l 324 264 l 329 264 q 432 316 392 264 q 472 464 472 368 q 428 608 472 554 q 329 663 385 663 l 324 663 z "},"đ":{"ha":792,"x_min":0,"x_max":764,"o":"m 0 585 l 28 585 l 28 926 l 215 926 q 620 806 476 926 q 764 464 764 686 q 620 122 764 243 q 215 0 476 0 l 28 0 l 28 369 l 0 369 l 0 585 m 324 663 l 324 585 l 408 585 l 408 369 l 324 369 l 324 264 l 329 264 q 432 316 392 264 q 472 464 472 368 q 428 608 472 554 q 329 663 385 663 l 324 663 z "},"Ē":{"ha":569,"x_min":49,"x_max":535,"o":"m 49 0 l 49 926 l 525 926 l 525 683 l 344 683 l 344 581 l 521 581 l 521 350 l 344 350 l 344 243 l 535 243 l 535 0 l 49 0 m 104 981 l 104 1118 l 465 1118 l 465 981 l 104 981 z "},"ē":{"ha":569,"x_min":49,"x_max":535,"o":"m 49 0 l 49 926 l 525 926 l 525 683 l 344 683 l 344 581 l 521 581 l 521 350 l 344 350 l 344 243 l 535 243 l 535 0 l 49 0 m 104 981 l 104 1118 l 465 1118 l 465 981 l 104 981 z "},"Ĕ":{"ha":569,"x_min":49,"x_max":535,"o":"m 49 0 l 49 926 l 525 926 l 525 683 l 344 683 l 344 581 l 521 581 l 521 350 l 344 350 l 344 243 l 535 243 l 535 0 l 49 0 m 435 1042 q 411 1008 435 1042 q 285 974 386 974 q 134 1042 183 974 q 85 1183 85 1111 l 210 1183 q 210 1176 210 1181 q 215 1158 211 1171 q 227 1136 219 1146 q 249 1119 235 1126 q 285 1111 264 1111 q 335 1129 317 1111 q 357 1165 354 1147 l 360 1183 l 485 1183 q 435 1042 485 1111 z "},"ĕ":{"ha":569,"x_min":49,"x_max":535,"o":"m 49 0 l 49 926 l 525 926 l 525 683 l 344 683 l 344 581 l 521 581 l 521 350 l 344 350 l 344 243 l 535 243 l 535 0 l 49 0 m 435 1042 q 411 1008 435 1042 q 285 974 386 974 q 134 1042 183 974 q 85 1183 85 1111 l 210 1183 q 210 1176 210 1181 q 215 1158 211 1171 q 227 1136 219 1146 q 249 1119 235 1126 q 285 1111 264 1111 q 335 1129 317 1111 q 357 1165 354 1147 l 360 1183 l 485 1183 q 435 1042 485 1111 z "},"Ė":{"ha":569,"x_min":49,"x_max":535,"o":"m 49 0 l 49 926 l 525 926 l 525 683 l 344 683 l 344 581 l 521 581 l 521 350 l 344 350 l 344 243 l 535 243 l 535 0 l 49 0 m 196 981 l 196 1121 l 374 1121 l 374 981 l 196 981 z "},"ė":{"ha":569,"x_min":49,"x_max":535,"o":"m 49 0 l 49 926 l 525 926 l 525 683 l 344 683 l 344 581 l 521 581 l 521 350 l 344 350 l 344 243 l 535 243 l 535 0 l 49 0 m 196 981 l 196 1121 l 374 1121 l 374 981 l 196 981 z "},"Ę":{"ha":569,"x_min":49,"x_max":535,"o":"m 49 0 l 49 926 l 525 926 l 525 683 l 344 683 l 344 581 l 521 581 l 521 350 l 344 350 l 344 243 l 535 243 l 535 0 l 465 0 q 444 -13 457 -4 q 411 -51 431 -22 q 392 -114 392 -81 q 417 -174 392 -153 q 485 -196 443 -196 q 522 -193 503 -196 l 535 -290 q 446 -304 508 -304 q 295 -262 351 -304 q 239 -149 239 -219 q 343 0 239 -49 l 49 0 z "},"ę":{"ha":569,"x_min":49,"x_max":535,"o":"m 49 0 l 49 926 l 525 926 l 525 683 l 344 683 l 344 581 l 521 581 l 521 350 l 344 350 l 344 243 l 535 243 l 535 0 l 465 0 q 444 -13 457 -4 q 411 -51 431 -22 q 392 -114 392 -81 q 417 -174 392 -153 q 485 -196 443 -196 q 522 -193 503 -196 l 535 -290 q 446 -304 508 -304 q 295 -262 351 -304 q 239 -149 239 -219 q 343 0 239 -49 l 49 0 z "},"Ě":{"ha":569,"x_min":49,"x_max":535,"o":"m 49 0 l 49 926 l 525 926 l 525 683 l 344 683 l 344 581 l 521 581 l 521 350 l 344 350 l 344 243 l 535 243 l 535 0 l 49 0 m 182 981 l 67 1196 l 225 1196 l 283 1097 l 342 1196 l 500 1196 l 385 981 l 182 981 z "},"ě":{"ha":569,"x_min":49,"x_max":535,"o":"m 49 0 l 49 926 l 525 926 l 525 683 l 344 683 l 344 581 l 521 581 l 521 350 l 344 350 l 344 243 l 535 243 l 535 0 l 49 0 m 182 981 l 67 1196 l 225 1196 l 283 1097 l 342 1196 l 500 1196 l 385 981 l 182 981 z "},"Ĝ":{"ha":886,"x_min":28,"x_max":858,"o":"m 858 538 l 858 232 q 707 46 807 115 q 465 -24 607 -24 q 145 115 263 -24 q 28 463 28 254 q 145 810 28 671 q 465 949 263 949 q 569 937 519 949 q 652 908 619 925 q 709 875 685 892 q 744 847 733 858 l 756 835 l 621 599 q 603 615 615 606 q 550 642 590 625 q 465 658 510 658 q 358 603 396 658 q 319 463 319 547 q 358 322 319 378 q 465 267 396 267 q 586 343 543 267 l 501 343 l 501 538 l 858 538 m 232 981 l 347 1196 l 550 1196 l 665 981 l 507 981 l 449 1079 l 390 981 l 232 981 z "},"ĝ":{"ha":886,"x_min":28,"x_max":858,"o":"m 858 538 l 858 232 q 707 46 807 115 q 465 -24 607 -24 q 145 115 263 -24 q 28 463 28 254 q 145 810 28 671 q 465 949 263 949 q 569 937 519 949 q 652 908 619 925 q 709 875 685 892 q 744 847 733 858 l 756 835 l 621 599 q 603 615 615 606 q 550 642 590 625 q 465 658 510 658 q 358 603 396 658 q 319 463 319 547 q 358 322 319 378 q 465 267 396 267 q 586 343 543 267 l 501 343 l 501 538 l 858 538 m 232 981 l 347 1196 l 550 1196 l 665 981 l 507 981 l 449 1079 l 390 981 l 232 981 z "},"Ğ":{"ha":886,"x_min":28,"x_max":858,"o":"m 858 538 l 858 232 q 707 46 807 115 q 465 -24 607 -24 q 145 115 263 -24 q 28 463 28 254 q 145 810 28 671 q 465 949 263 949 q 569 937 519 949 q 652 908 619 925 q 709 875 685 892 q 744 847 733 858 l 756 835 l 621 599 q 603 615 615 606 q 550 642 590 625 q 465 658 510 658 q 358 603 396 658 q 319 463 319 547 q 358 322 319 378 q 465 267 396 267 q 586 343 543 267 l 501 343 l 501 538 l 858 538 m 599 1042 q 575 1008 599 1042 q 449 974 550 974 q 298 1042 347 974 q 249 1183 249 1111 l 374 1183 q 374 1176 374 1181 q 379 1158 375 1171 q 391 1136 383 1146 q 413 1119 399 1126 q 449 1111 428 1111 q 499 1129 481 1111 q 521 1165 518 1147 l 524 1183 l 649 1183 q 599 1042 649 1111 z "},"ğ":{"ha":886,"x_min":28,"x_max":858,"o":"m 858 538 l 858 232 q 707 46 807 115 q 465 -24 607 -24 q 145 115 263 -24 q 28 463 28 254 q 145 810 28 671 q 465 949 263 949 q 569 937 519 949 q 652 908 619 925 q 709 875 685 892 q 744 847 733 858 l 756 835 l 621 599 q 603 615 615 606 q 550 642 590 625 q 465 658 510 658 q 358 603 396 658 q 319 463 319 547 q 358 322 319 378 q 465 267 396 267 q 586 343 543 267 l 501 343 l 501 538 l 858 538 m 599 1042 q 575 1008 599 1042 q 449 974 550 974 q 298 1042 347 974 q 249 1183 249 1111 l 374 1183 q 374 1176 374 1181 q 379 1158 375 1171 q 391 1136 383 1146 q 413 1119 399 1126 q 449 1111 428 1111 q 499 1129 481 1111 q 521 1165 518 1147 l 524 1183 l 649 1183 q 599 1042 649 1111 z "},"Ġ":{"ha":886,"x_min":28,"x_max":858,"o":"m 858 538 l 858 232 q 707 46 807 115 q 465 -24 607 -24 q 145 115 263 -24 q 28 463 28 254 q 145 810 28 671 q 465 949 263 949 q 569 937 519 949 q 652 908 619 925 q 709 875 685 892 q 744 847 733 858 l 756 835 l 621 599 q 603 615 615 606 q 550 642 590 625 q 465 658 510 658 q 358 603 396 658 q 319 463 319 547 q 358 322 319 378 q 465 267 396 267 q 586 343 543 267 l 501 343 l 501 538 l 858 538 m 360 981 l 360 1121 l 538 1121 l 538 981 l 360 981 z "},"ġ":{"ha":886,"x_min":28,"x_max":858,"o":"m 858 538 l 858 232 q 707 46 807 115 q 465 -24 607 -24 q 145 115 263 -24 q 28 463 28 254 q 145 810 28 671 q 465 949 263 949 q 569 937 519 949 q 652 908 619 925 q 709 875 685 892 q 744 847 733 858 l 756 835 l 621 599 q 603 615 615 606 q 550 642 590 625 q 465 658 510 658 q 358 603 396 658 q 319 463 319 547 q 358 322 319 378 q 465 267 396 267 q 586 343 543 267 l 501 343 l 501 538 l 858 538 m 360 981 l 360 1121 l 538 1121 l 538 981 l 360 981 z "},"Ģ":{"ha":886,"x_min":28,"x_max":858,"o":"m 858 538 l 858 232 q 707 46 807 115 q 465 -24 607 -24 q 145 115 263 -24 q 28 463 28 254 q 145 810 28 671 q 465 949 263 949 q 569 937 519 949 q 652 908 619 925 q 709 875 685 892 q 744 847 733 858 l 756 835 l 621 599 q 603 615 615 606 q 550 642 590 625 q 465 658 510 658 q 358 603 396 658 q 319 463 319 547 q 358 322 319 378 q 465 267 396 267 q 586 343 543 267 l 501 343 l 501 538 l 858 538 m 413 -272 l 257 -272 l 372 -57 l 556 -57 l 413 -272 z "},"ģ":{"ha":886,"x_min":28,"x_max":858,"o":"m 858 538 l 858 232 q 707 46 807 115 q 465 -24 607 -24 q 145 115 263 -24 q 28 463 28 254 q 145 810 28 671 q 465 949 263 949 q 569 937 519 949 q 652 908 619 925 q 709 875 685 892 q 744 847 733 858 l 756 835 l 621 599 q 603 615 615 606 q 550 642 590 625 q 465 658 510 658 q 358 603 396 658 q 319 463 319 547 q 358 322 319 378 q 465 267 396 267 q 586 343 543 267 l 501 343 l 501 538 l 858 538 m 413 -272 l 257 -272 l 372 -57 l 556 -57 l 413 -272 z "},"Ĥ":{"ha":786,"x_min":49,"x_max":738,"o":"m 49 0 l 49 926 l 344 926 l 344 611 l 440 611 l 440 926 l 738 926 l 738 0 l 440 0 l 440 343 l 344 343 l 344 0 l 49 0 m 175 981 l 290 1196 l 493 1196 l 608 981 l 450 981 l 392 1079 l 333 981 l 175 981 z "},"ĥ":{"ha":786,"x_min":49,"x_max":738,"o":"m 49 0 l 49 926 l 344 926 l 344 611 l 440 611 l 440 926 l 738 926 l 738 0 l 440 0 l 440 343 l 344 343 l 344 0 l 49 0 m 175 981 l 290 1196 l 493 1196 l 608 981 l 450 981 l 392 1079 l 333 981 l 175 981 z "},"Ħ":{"ha":786,"x_min":0,"x_max":786,"o":"m 49 0 l 49 692 l 0 692 l 0 838 l 49 838 l 49 926 l 344 926 l 344 838 l 440 838 l 440 926 l 738 926 l 738 838 l 786 838 l 786 692 l 738 692 l 738 0 l 440 0 l 440 343 l 344 343 l 344 0 l 49 0 m 344 611 l 440 611 l 440 692 l 344 692 l 344 611 z "},"ħ":{"ha":786,"x_min":0,"x_max":786,"o":"m 49 0 l 49 692 l 0 692 l 0 838 l 49 838 l 49 926 l 344 926 l 344 838 l 440 838 l 440 926 l 738 926 l 738 838 l 786 838 l 786 692 l 738 692 l 738 0 l 440 0 l 440 343 l 344 343 l 344 0 l 49 0 m 344 611 l 440 611 l 440 692 l 344 692 l 344 611 z "},"Ĩ":{"ha":411,"x_min":-15,"x_max":428,"o":"m 49 0 l 49 926 l 363 926 l 363 0 l 49 0 m 103 981 l -15 981 q 129 1167 -15 1167 q 219 1144 168 1167 q 278 1122 269 1122 q 310 1167 310 1122 l 428 1167 q 283 981 428 981 q 194 1002 244 981 q 135 1024 143 1024 q 103 981 103 1024 z "},"ĩ":{"ha":411,"x_min":-15,"x_max":428,"o":"m 49 0 l 49 926 l 363 926 l 363 0 l 49 0 m 103 981 l -15 981 q 129 1167 -15 1167 q 219 1144 168 1167 q 278 1122 269 1122 q 310 1167 310 1122 l 428 1167 q 283 981 428 981 q 194 1002 244 981 q 135 1024 143 1024 q 103 981 103 1024 z "},"Ī":{"ha":411,"x_min":25,"x_max":386,"o":"m 49 0 l 49 926 l 363 926 l 363 0 l 49 0 m 25 981 l 25 1118 l 386 1118 l 386 981 l 25 981 z "},"ī":{"ha":411,"x_min":25,"x_max":386,"o":"m 49 0 l 49 926 l 363 926 l 363 0 l 49 0 m 25 981 l 25 1118 l 386 1118 l 386 981 l 25 981 z "},"Ĭ":{"ha":411,"x_min":6,"x_max":406,"o":"m 49 0 l 49 926 l 363 926 l 363 0 l 49 0 m 356 1042 q 332 1008 356 1042 q 206 974 307 974 q 55 1042 104 974 q 6 1183 6 1111 l 131 1183 q 131 1176 131 1181 q 136 1158 132 1171 q 148 1136 140 1146 q 170 1119 156 1126 q 206 1111 185 1111 q 256 1129 238 1111 q 278 1165 275 1147 l 281 1183 l 406 1183 q 356 1042 406 1111 z "},"ĭ":{"ha":411,"x_min":6,"x_max":406,"o":"m 49 0 l 49 926 l 363 926 l 363 0 l 49 0 m 356 1042 q 332 1008 356 1042 q 206 974 307 974 q 55 1042 104 974 q 6 1183 6 1111 l 131 1183 q 131 1176 131 1181 q 136 1158 132 1171 q 148 1136 140 1146 q 170 1119 156 1126 q 206 1111 185 1111 q 256 1129 238 1111 q 278 1165 275 1147 l 281 1183 l 406 1183 q 356 1042 406 1111 z "},"Į":{"ha":411,"x_min":49,"x_max":363,"o":"m 49 0 l 49 926 l 363 926 l 363 0 l 279 0 q 258 -13 271 -4 q 225 -51 244 -22 q 206 -114 206 -81 q 231 -174 206 -153 q 299 -196 257 -196 q 336 -193 317 -196 l 349 -290 q 260 -304 322 -304 q 109 -262 165 -304 q 53 -149 53 -219 q 157 0 53 -49 l 49 0 z "},"į":{"ha":411,"x_min":49,"x_max":363,"o":"m 49 0 l 49 926 l 363 926 l 363 0 l 279 0 q 258 -13 271 -4 q 225 -51 244 -22 q 206 -114 206 -81 q 231 -174 206 -153 q 299 -196 257 -196 q 336 -193 317 -196 l 349 -290 q 260 -304 322 -304 q 109 -262 165 -304 q 53 -149 53 -219 q 157 0 53 -49 l 49 0 z "},"İ":{"ha":411,"x_min":49,"x_max":363,"o":"m 49 0 l 49 926 l 363 926 l 363 0 l 49 0 m 117 981 l 117 1121 l 294 1121 l 294 981 l 117 981 z "},"ı":{"ha":411,"x_min":49,"x_max":363,"o":"m 49 0 l 49 926 l 363 926 l 363 0 l 49 0 z "},"Ĳ":{"ha":915,"x_min":49,"x_max":869,"o":"m 49 0 l 49 926 l 363 926 l 363 0 l 49 0 m 411 0 l 411 222 l 494 222 q 556 286 556 222 l 556 926 l 869 926 l 869 235 q 808 56 869 111 q 618 0 746 0 l 411 0 z "},"ĳ":{"ha":915,"x_min":49,"x_max":869,"o":"m 49 0 l 49 926 l 363 926 l 363 0 l 49 0 m 411 0 l 411 222 l 494 222 q 556 286 556 222 l 556 926 l 869 926 l 869 235 q 808 56 869 111 q 618 0 746 0 l 411 0 z "},"Ĵ":{"ha":504,"x_min":0,"x_max":517,"o":"m 0 0 l 0 222 l 83 222 q 144 286 144 222 l 144 926 l 458 926 l 458 235 q 397 56 458 111 q 207 0 335 0 l 0 0 m 83 981 l 199 1196 l 401 1196 l 517 981 l 358 981 l 300 1079 l 242 981 l 83 981 z "},"ĵ":{"ha":504,"x_min":0,"x_max":517,"o":"m 0 0 l 0 222 l 83 222 q 144 286 144 222 l 144 926 l 458 926 l 458 235 q 397 56 458 111 q 207 0 335 0 l 0 0 m 83 981 l 199 1196 l 401 1196 l 517 981 l 358 981 l 300 1079 l 242 981 l 83 981 z "},"Ķ":{"ha":792,"x_min":49,"x_max":813,"o":"m 475 0 l 349 256 l 349 0 l 49 0 l 49 926 l 349 926 l 349 749 l 469 926 l 806 926 l 538 531 l 813 0 l 475 0 m 356 -272 l 200 -272 l 315 -57 l 499 -57 l 356 -272 z "},"ķ":{"ha":792,"x_min":49,"x_max":813,"o":"m 475 0 l 349 256 l 349 0 l 49 0 l 49 926 l 349 926 l 349 749 l 469 926 l 806 926 l 538 531 l 813 0 l 475 0 m 356 -272 l 200 -272 l 315 -57 l 499 -57 l 356 -272 z "},"ĸ":{"ha":792,"x_min":49,"x_max":813,"o":"m 475 0 l 349 256 l 349 0 l 49 0 l 49 926 l 349 926 l 349 749 l 469 926 l 806 926 l 538 531 l 813 0 l 475 0 z "},"Ĺ":{"ha":543,"x_min":49,"x_max":543,"o":"m 49 0 l 49 926 l 357 926 l 357 243 l 543 243 l 543 0 l 49 0 m 261 981 l 106 981 l 221 1196 l 404 1196 l 261 981 z "},"ĺ":{"ha":543,"x_min":49,"x_max":543,"o":"m 49 0 l 49 926 l 357 926 l 357 243 l 543 243 l 543 0 l 49 0 m 261 981 l 106 981 l 221 1196 l 404 1196 l 261 981 z "},"Ļ":{"ha":543,"x_min":49,"x_max":543,"o":"m 49 0 l 49 926 l 357 926 l 357 243 l 543 243 l 543 0 l 49 0 m 263 -272 l 107 -272 l 222 -57 l 406 -57 l 263 -272 z "},"ļ":{"ha":543,"x_min":49,"x_max":543,"o":"m 49 0 l 49 926 l 357 926 l 357 243 l 543 243 l 543 0 l 49 0 m 263 -272 l 107 -272 l 222 -57 l 406 -57 l 263 -272 z "},"Ľ":{"ha":738,"x_min":49,"x_max":738,"o":"m 49 0 l 49 926 l 357 926 l 357 243 l 543 243 l 543 0 l 49 0 m 353 551 l 474 926 l 738 926 l 589 551 l 353 551 z "},"ľ":{"ha":738,"x_min":49,"x_max":738,"o":"m 49 0 l 49 926 l 357 926 l 357 243 l 543 243 l 543 0 l 49 0 m 353 551 l 474 926 l 738 926 l 589 551 l 353 551 z "},"Ŀ":{"ha":699,"x_min":49,"x_max":671,"o":"m 49 0 l 49 926 l 357 926 l 357 243 l 543 243 l 543 0 l 49 0 m 401 347 l 401 579 l 671 579 l 671 347 l 401 347 z "},"ŀ":{"ha":699,"x_min":49,"x_max":671,"o":"m 49 0 l 49 926 l 357 926 l 357 243 l 543 243 l 543 0 l 49 0 m 401 347 l 401 579 l 671 579 l 671 347 l 401 347 z "},"Ł":{"ha":543,"x_min":-32,"x_max":543,"o":"m 49 0 l 49 289 l -32 489 l 49 521 l 49 926 l 357 926 l 357 646 l 403 664 l 483 464 l 357 413 l 357 243 l 543 243 l 543 0 l 49 0 z "},"ł":{"ha":543,"x_min":-32,"x_max":543,"o":"m 49 0 l 49 289 l -32 489 l 49 521 l 49 926 l 357 926 l 357 646 l 403 664 l 483 464 l 357 413 l 357 243 l 543 243 l 543 0 l 49 0 z "},"Ń":{"ha":817,"x_min":49,"x_max":768,"o":"m 49 0 l 49 926 l 294 926 l 478 624 l 478 926 l 768 926 l 768 0 l 521 0 l 339 297 l 339 0 l 49 0 m 471 981 l 315 981 l 431 1196 l 614 1196 l 471 981 z "},"ń":{"ha":817,"x_min":49,"x_max":768,"o":"m 49 0 l 49 926 l 294 926 l 478 624 l 478 926 l 768 926 l 768 0 l 521 0 l 339 297 l 339 0 l 49 0 m 471 981 l 315 981 l 431 1196 l 614 1196 l 471 981 z "},"Ņ":{"ha":817,"x_min":49,"x_max":768,"o":"m 49 0 l 49 926 l 294 926 l 478 624 l 478 926 l 768 926 l 768 0 l 521 0 l 339 297 l 339 0 l 49 0 m 400 -272 l 244 -272 l 360 -57 l 543 -57 l 400 -272 z "},"ņ":{"ha":817,"x_min":49,"x_max":768,"o":"m 49 0 l 49 926 l 294 926 l 478 624 l 478 926 l 768 926 l 768 0 l 521 0 l 339 297 l 339 0 l 49 0 m 400 -272 l 244 -272 l 360 -57 l 543 -57 l 400 -272 z "},"Ň":{"ha":817,"x_min":49,"x_max":768,"o":"m 49 0 l 49 926 l 294 926 l 478 624 l 478 926 l 768 926 l 768 0 l 521 0 l 339 297 l 339 0 l 49 0 m 306 981 l 190 1196 l 349 1196 l 407 1097 l 465 1196 l 624 1196 l 508 981 l 306 981 z "},"ň":{"ha":817,"x_min":49,"x_max":768,"o":"m 49 0 l 49 926 l 294 926 l 478 624 l 478 926 l 768 926 l 768 0 l 521 0 l 339 297 l 339 0 l 49 0 m 306 981 l 190 1196 l 349 1196 l 407 1097 l 465 1196 l 624 1196 l 508 981 l 306 981 z "},"ŉ":{"ha":1203,"x_min":0,"x_max":1133,"o":"m 414 0 l 414 926 l 660 926 l 843 624 l 843 926 l 1133 926 l 1133 0 l 886 0 l 704 297 l 704 0 l 414 0 m 0 551 l 121 926 l 385 926 l 236 551 l 0 551 m 0 551 l 121 926 l 385 926 l 236 551 l 0 551 z "},"Ŋ":{"ha":817,"x_min":49,"x_max":768,"o":"m 478 17 l 478 69 l 339 297 l 339 0 l 49 0 l 49 926 l 294 926 l 478 624 l 478 926 l 768 926 l 768 -35 q 710 -216 768 -162 q 521 -269 651 -269 l 376 -269 l 376 -47 l 403 -47 q 461 -31 444 -47 q 478 17 478 -15 z "},"ŋ":{"ha":817,"x_min":49,"x_max":768,"o":"m 478 17 l 478 69 l 339 297 l 339 0 l 49 0 l 49 926 l 294 926 l 478 624 l 478 926 l 768 926 l 768 -35 q 710 -216 768 -162 q 521 -269 651 -269 l 376 -269 l 376 -47 l 403 -47 q 461 -31 444 -47 q 478 17 478 -15 z "},"Ō":{"ha":931,"x_min":28,"x_max":903,"o":"m 145 115 q 86 185 145 115 q 28 463 28 254 q 145 810 28 671 q 465 949 263 949 q 785 810 668 949 q 903 463 903 671 q 785 115 903 254 q 465 -24 668 -24 q 145 115 263 -24 m 358 603 q 339 575 358 603 q 319 463 319 547 q 358 322 319 378 q 465 267 396 267 q 573 322 535 267 q 611 463 611 378 q 573 603 611 547 q 465 658 535 658 q 358 603 396 658 m 285 981 l 285 1118 l 646 1118 l 646 981 l 285 981 z "},"ō":{"ha":931,"x_min":28,"x_max":903,"o":"m 145 115 q 86 185 145 115 q 28 463 28 254 q 145 810 28 671 q 465 949 263 949 q 785 810 668 949 q 903 463 903 671 q 785 115 903 254 q 465 -24 668 -24 q 145 115 263 -24 m 358 603 q 339 575 358 603 q 319 463 319 547 q 358 322 319 378 q 465 267 396 267 q 573 322 535 267 q 611 463 611 378 q 573 603 611 547 q 465 658 535 658 q 358 603 396 658 m 285 981 l 285 1118 l 646 1118 l 646 981 l 285 981 z "},"Ŏ":{"ha":931,"x_min":28,"x_max":903,"o":"m 145 115 q 86 185 145 115 q 28 463 28 254 q 145 810 28 671 q 465 949 263 949 q 785 810 668 949 q 903 463 903 671 q 785 115 903 254 q 465 -24 668 -24 q 145 115 263 -24 m 358 603 q 339 575 358 603 q 319 463 319 547 q 358 322 319 378 q 465 267 396 267 q 573 322 535 267 q 611 463 611 378 q 573 603 611 547 q 465 658 535 658 q 358 603 396 658 m 616 1042 q 591 1008 616 1042 q 465 974 567 974 q 315 1042 364 974 q 265 1183 265 1111 l 390 1183 q 391 1176 390 1181 q 396 1158 392 1171 q 408 1136 400 1146 q 430 1119 415 1126 q 465 1111 444 1111 q 516 1129 497 1111 q 538 1165 535 1147 l 540 1183 l 665 1183 q 616 1042 665 1111 z "},"ŏ":{"ha":931,"x_min":28,"x_max":903,"o":"m 145 115 q 86 185 145 115 q 28 463 28 254 q 145 810 28 671 q 465 949 263 949 q 785 810 668 949 q 903 463 903 671 q 785 115 903 254 q 465 -24 668 -24 q 145 115 263 -24 m 358 603 q 339 575 358 603 q 319 463 319 547 q 358 322 319 378 q 465 267 396 267 q 573 322 535 267 q 611 463 611 378 q 573 603 611 547 q 465 658 535 658 q 358 603 396 658 m 616 1042 q 591 1008 616 1042 q 465 974 567 974 q 315 1042 364 974 q 265 1183 265 1111 l 390 1183 q 391 1176 390 1181 q 396 1158 392 1171 q 408 1136 400 1146 q 430 1119 415 1126 q 465 1111 444 1111 q 516 1129 497 1111 q 538 1165 535 1147 l 540 1183 l 665 1183 q 616 1042 665 1111 z "},"Ő":{"ha":931,"x_min":28,"x_max":903,"o":"m 145 115 q 86 185 145 115 q 28 463 28 254 q 145 810 28 671 q 465 949 263 949 q 785 810 668 949 q 903 463 903 671 q 785 115 903 254 q 465 -24 668 -24 q 145 115 263 -24 m 358 603 q 339 575 358 603 q 319 463 319 547 q 358 322 319 378 q 465 267 396 267 q 573 322 535 267 q 611 463 611 378 q 573 603 611 547 q 465 658 535 658 q 358 603 396 658 m 421 981 l 289 981 l 404 1196 l 574 1196 l 421 981 m 640 981 l 508 981 l 624 1196 l 793 1196 l 640 981 z "},"ő":{"ha":931,"x_min":28,"x_max":903,"o":"m 145 115 q 86 185 145 115 q 28 463 28 254 q 145 810 28 671 q 465 949 263 949 q 785 810 668 949 q 903 463 903 671 q 785 115 903 254 q 465 -24 668 -24 q 145 115 263 -24 m 358 603 q 339 575 358 603 q 319 463 319 547 q 358 322 319 378 q 465 267 396 267 q 573 322 535 267 q 611 463 611 378 q 573 603 611 547 q 465 658 535 658 q 358 603 396 658 m 421 981 l 289 981 l 404 1196 l 574 1196 l 421 981 m 640 981 l 508 981 l 624 1196 l 793 1196 l 640 981 z "},"Œ":{"ha":1239,"x_min":28,"x_max":1204,"o":"m 145 115 q 86 185 145 115 q 28 463 28 254 q 145 810 28 671 q 465 949 263 949 q 718 871 610 949 l 718 926 l 1194 926 l 1194 683 l 1014 683 l 1014 581 l 1190 581 l 1190 350 l 1014 350 l 1014 243 l 1204 243 l 1204 0 l 718 0 l 718 53 q 465 -24 611 -24 q 145 115 263 -24 m 358 603 q 339 575 358 603 q 319 463 319 547 q 358 322 319 378 q 465 267 396 267 q 573 322 535 267 q 611 463 611 378 q 573 603 611 547 q 465 658 535 658 q 358 603 396 658 z "},"œ":{"ha":1239,"x_min":28,"x_max":1204,"o":"m 145 115 q 86 185 145 115 q 28 463 28 254 q 145 810 28 671 q 465 949 263 949 q 718 871 610 949 l 718 926 l 1194 926 l 1194 683 l 1014 683 l 1014 581 l 1190 581 l 1190 350 l 1014 350 l 1014 243 l 1204 243 l 1204 0 l 718 0 l 718 53 q 465 -24 611 -24 q 145 115 263 -24 m 358 603 q 339 575 358 603 q 319 463 319 547 q 358 322 319 378 q 465 267 396 267 q 573 322 535 267 q 611 463 611 378 q 573 603 611 547 q 465 658 535 658 q 358 603 396 658 z "},"Ŕ":{"ha":740,"x_min":49,"x_max":761,"o":"m 49 0 l 49 926 l 299 926 q 597 831 482 926 q 713 565 713 736 q 699 468 713 514 q 668 394 686 422 q 632 344 650 365 q 600 314 614 324 l 588 306 l 761 0 l 443 0 l 344 179 l 344 0 l 49 0 m 344 668 l 344 478 l 354 478 q 403 501 376 478 q 431 574 431 525 q 404 645 431 622 q 354 668 378 668 l 344 668 m 432 981 l 276 981 l 392 1196 l 575 1196 l 432 981 z "},"ŕ":{"ha":740,"x_min":49,"x_max":761,"o":"m 49 0 l 49 926 l 299 926 q 597 831 482 926 q 713 565 713 736 q 699 468 713 514 q 668 394 686 422 q 632 344 650 365 q 600 314 614 324 l 588 306 l 761 0 l 443 0 l 344 179 l 344 0 l 49 0 m 344 668 l 344 478 l 354 478 q 403 501 376 478 q 431 574 431 525 q 404 645 431 622 q 354 668 378 668 l 344 668 m 432 981 l 276 981 l 392 1196 l 575 1196 l 432 981 z "},"Ŗ":{"ha":740,"x_min":49,"x_max":761,"o":"m 49 0 l 49 926 l 299 926 q 597 831 482 926 q 713 565 713 736 q 699 468 713 514 q 668 394 686 422 q 632 344 650 365 q 600 314 614 324 l 588 306 l 761 0 l 443 0 l 344 179 l 344 0 l 49 0 m 344 668 l 344 478 l 354 478 q 403 501 376 478 q 431 574 431 525 q 404 645 431 622 q 354 668 378 668 l 344 668 m 358 -272 l 203 -272 l 318 -57 l 501 -57 l 358 -272 z "},"ŗ":{"ha":740,"x_min":49,"x_max":761,"o":"m 49 0 l 49 926 l 299 926 q 597 831 482 926 q 713 565 713 736 q 699 468 713 514 q 668 394 686 422 q 632 344 650 365 q 600 314 614 324 l 588 306 l 761 0 l 443 0 l 344 179 l 344 0 l 49 0 m 344 668 l 344 478 l 354 478 q 403 501 376 478 q 431 574 431 525 q 404 645 431 622 q 354 668 378 668 l 344 668 m 358 -272 l 203 -272 l 318 -57 l 501 -57 l 358 -272 z "},"Ř":{"ha":740,"x_min":49,"x_max":761,"o":"m 49 0 l 49 926 l 299 926 q 597 831 482 926 q 713 565 713 736 q 699 468 713 514 q 668 394 686 422 q 632 344 650 365 q 600 314 614 324 l 588 306 l 761 0 l 443 0 l 344 179 l 344 0 l 49 0 m 344 668 l 344 478 l 354 478 q 403 501 376 478 q 431 574 431 525 q 404 645 431 622 q 354 668 378 668 l 344 668 m 268 981 l 153 1196 l 311 1196 l 369 1097 l 428 1196 l 586 1196 l 471 981 l 268 981 z "},"ř":{"ha":740,"x_min":49,"x_max":761,"o":"m 49 0 l 49 926 l 299 926 q 597 831 482 926 q 713 565 713 736 q 699 468 713 514 q 668 394 686 422 q 632 344 650 365 q 600 314 614 324 l 588 306 l 761 0 l 443 0 l 344 179 l 344 0 l 49 0 m 344 668 l 344 478 l 354 478 q 403 501 376 478 q 431 574 431 525 q 404 645 431 622 q 354 668 378 668 l 344 668 m 268 981 l 153 1196 l 311 1196 l 369 1097 l 428 1196 l 586 1196 l 471 981 l 268 981 z "},"Ś":{"ha":594,"x_min":21,"x_max":581,"o":"m 26 13 l 26 292 q 203 257 119 257 q 260 304 260 257 q 235 348 260 324 q 176 402 211 372 q 105 469 140 432 q 45 561 69 506 q 21 682 21 617 q 105 878 21 807 q 311 949 189 949 q 394 944 350 949 q 464 933 439 939 l 490 929 l 490 669 q 422 678 457 678 q 357 644 357 678 q 380 610 357 632 q 436 558 403 589 q 502 489 469 528 q 558 392 535 450 q 581 269 581 335 q 499 59 581 142 q 264 -24 417 -24 q 149 -15 208 -24 q 58 3 89 -6 l 26 13 m 361 981 l 206 981 l 321 1196 l 504 1196 l 361 981 z "},"ś":{"ha":594,"x_min":21,"x_max":581,"o":"m 26 13 l 26 292 q 203 257 119 257 q 260 304 260 257 q 235 348 260 324 q 176 402 211 372 q 105 469 140 432 q 45 561 69 506 q 21 682 21 617 q 105 878 21 807 q 311 949 189 949 q 394 944 350 949 q 464 933 439 939 l 490 929 l 490 669 q 422 678 457 678 q 357 644 357 678 q 380 610 357 632 q 436 558 403 589 q 502 489 469 528 q 558 392 535 450 q 581 269 581 335 q 499 59 581 142 q 264 -24 417 -24 q 149 -15 208 -24 q 58 3 89 -6 l 26 13 m 361 981 l 206 981 l 321 1196 l 504 1196 l 361 981 z "},"Ŝ":{"ha":594,"x_min":21,"x_max":581,"o":"m 26 13 l 26 292 q 203 257 119 257 q 260 304 260 257 q 235 348 260 324 q 176 402 211 372 q 105 469 140 432 q 45 561 69 506 q 21 682 21 617 q 105 878 21 807 q 311 949 189 949 q 394 944 350 949 q 464 933 439 939 l 490 929 l 490 669 q 422 678 457 678 q 357 644 357 678 q 380 610 357 632 q 436 558 403 589 q 502 489 469 528 q 558 392 535 450 q 581 269 581 335 q 499 59 581 142 q 264 -24 417 -24 q 149 -15 208 -24 q 58 3 89 -6 l 26 13 m 67 981 l 182 1196 l 385 1196 l 500 981 l 342 981 l 283 1079 l 225 981 l 67 981 z "},"ŝ":{"ha":594,"x_min":21,"x_max":581,"o":"m 26 13 l 26 292 q 203 257 119 257 q 260 304 260 257 q 235 348 260 324 q 176 402 211 372 q 105 469 140 432 q 45 561 69 506 q 21 682 21 617 q 105 878 21 807 q 311 949 189 949 q 394 944 350 949 q 464 933 439 939 l 490 929 l 490 669 q 422 678 457 678 q 357 644 357 678 q 380 610 357 632 q 436 558 403 589 q 502 489 469 528 q 558 392 535 450 q 581 269 581 335 q 499 59 581 142 q 264 -24 417 -24 q 149 -15 208 -24 q 58 3 89 -6 l 26 13 m 67 981 l 182 1196 l 385 1196 l 500 981 l 342 981 l 283 1079 l 225 981 l 67 981 z "},"Ş":{"ha":594,"x_min":21,"x_max":581,"o":"m 89 -344 l 117 -237 q 215 -253 167 -253 q 276 -238 253 -253 q 299 -197 299 -224 q 224 -147 299 -147 l 165 -154 l 231 -22 q 129 -11 181 -19 q 53 6 78 -3 l 26 13 l 26 292 q 203 257 119 257 q 260 304 260 257 q 235 348 260 324 q 176 402 211 372 q 105 469 140 432 q 45 561 69 506 q 21 682 21 617 q 105 878 21 807 q 311 949 189 949 q 394 944 350 949 q 464 933 439 939 l 490 929 l 490 669 q 422 678 457 678 q 357 644 357 678 q 380 610 357 632 q 436 558 403 589 q 502 489 469 528 q 558 392 535 450 q 581 269 581 335 q 518 81 581 158 q 338 -17 456 3 l 314 -67 q 328 -67 319 -67 q 362 -76 338 -68 q 404 -96 386 -83 q 437 -135 422 -108 q 451 -199 451 -162 q 401 -312 451 -264 q 236 -361 350 -361 q 163 -357 200 -361 q 108 -349 126 -353 l 89 -344 z "},"ş":{"ha":594,"x_min":21,"x_max":581,"o":"m 89 -344 l 117 -237 q 215 -253 167 -253 q 276 -238 253 -253 q 299 -197 299 -224 q 224 -147 299 -147 l 165 -154 l 231 -22 q 129 -11 181 -19 q 53 6 78 -3 l 26 13 l 26 292 q 203 257 119 257 q 260 304 260 257 q 235 348 260 324 q 176 402 211 372 q 105 469 140 432 q 45 561 69 506 q 21 682 21 617 q 105 878 21 807 q 311 949 189 949 q 394 944 350 949 q 464 933 439 939 l 490 929 l 490 669 q 422 678 457 678 q 357 644 357 678 q 380 610 357 632 q 436 558 403 589 q 502 489 469 528 q 558 392 535 450 q 581 269 581 335 q 518 81 581 158 q 338 -17 456 3 l 314 -67 q 328 -67 319 -67 q 362 -76 338 -68 q 404 -96 386 -83 q 437 -135 422 -108 q 451 -199 451 -162 q 401 -312 451 -264 q 236 -361 350 -361 q 163 -357 200 -361 q 108 -349 126 -353 l 89 -344 z "},"Š":{"ha":594,"x_min":21,"x_max":581,"o":"m 26 13 l 26 292 q 203 257 119 257 q 260 304 260 257 q 235 348 260 324 q 176 402 211 372 q 105 469 140 432 q 45 561 69 506 q 21 682 21 617 q 105 878 21 807 q 311 949 189 949 q 394 944 350 949 q 464 933 439 939 l 490 929 l 490 669 q 422 678 457 678 q 357 644 357 678 q 380 610 357 632 q 436 558 403 589 q 502 489 469 528 q 558 392 535 450 q 581 269 581 335 q 499 59 581 142 q 264 -24 417 -24 q 149 -15 208 -24 q 58 3 89 -6 l 26 13 m 210 981 l 94 1196 l 253 1196 l 311 1097 l 369 1196 l 528 1196 l 413 981 l 210 981 z "},"š":{"ha":594,"x_min":21,"x_max":581,"o":"m 26 13 l 26 292 q 203 257 119 257 q 260 304 260 257 q 235 348 260 324 q 176 402 211 372 q 105 469 140 432 q 45 561 69 506 q 21 682 21 617 q 105 878 21 807 q 311 949 189 949 q 394 944 350 949 q 464 933 439 939 l 490 929 l 490 669 q 422 678 457 678 q 357 644 357 678 q 380 610 357 632 q 436 558 403 589 q 502 489 469 528 q 558 392 535 450 q 581 269 581 335 q 499 59 581 142 q 264 -24 417 -24 q 149 -15 208 -24 q 58 3 89 -6 l 26 13 m 182 981 l 67 1196 l 225 1196 l 283 1097 l 342 1196 l 500 1196 l 385 981 l 182 981 z "},"Ţ":{"ha":578,"x_min":0,"x_max":578,"o":"m 136 0 l 136 683 l 0 683 l 0 926 l 578 926 l 578 683 l 442 683 l 442 0 l 346 0 l 313 -67 q 327 -67 318 -67 q 360 -76 336 -68 q 403 -96 385 -83 q 435 -135 421 -108 q 450 -199 450 -162 q 399 -312 450 -264 q 235 -361 349 -361 q 162 -357 199 -361 q 106 -349 125 -353 l 88 -344 l 115 -237 q 214 -253 165 -253 q 274 -238 251 -253 q 297 -197 297 -224 q 222 -147 297 -147 l 164 -154 l 242 0 l 136 0 z "},"ţ":{"ha":578,"x_min":0,"x_max":578,"o":"m 136 0 l 136 683 l 0 683 l 0 926 l 578 926 l 578 683 l 442 683 l 442 0 l 346 0 l 313 -67 q 327 -67 318 -67 q 360 -76 336 -68 q 403 -96 385 -83 q 435 -135 421 -108 q 450 -199 450 -162 q 399 -312 450 -264 q 235 -361 349 -361 q 162 -357 199 -361 q 106 -349 125 -353 l 88 -344 l 115 -237 q 214 -253 165 -253 q 274 -238 251 -253 q 297 -197 297 -224 q 222 -147 297 -147 l 164 -154 l 242 0 l 136 0 z "},"Ť":{"ha":578,"x_min":0,"x_max":578,"o":"m 136 0 l 136 683 l 0 683 l 0 926 l 578 926 l 578 683 l 442 683 l 442 0 l 136 0 m 186 981 l 71 1196 l 229 1196 l 288 1097 l 346 1196 l 504 1196 l 389 981 l 186 981 z "},"ť":{"ha":578,"x_min":0,"x_max":578,"o":"m 136 0 l 136 683 l 0 683 l 0 926 l 578 926 l 578 683 l 442 683 l 442 0 l 136 0 m 186 981 l 71 1196 l 229 1196 l 288 1097 l 346 1196 l 504 1196 l 389 981 l 186 981 z "},"Ŧ":{"ha":578,"x_min":0,"x_max":578,"o":"m 136 0 l 136 342 l 57 342 l 57 557 l 136 557 l 136 683 l 0 683 l 0 926 l 578 926 l 578 683 l 442 683 l 442 557 l 521 557 l 521 342 l 442 342 l 442 0 l 136 0 z "},"ŧ":{"ha":578,"x_min":0,"x_max":578,"o":"m 136 0 l 136 342 l 57 342 l 57 557 l 136 557 l 136 683 l 0 683 l 0 926 l 578 926 l 578 683 l 442 683 l 442 557 l 521 557 l 521 342 l 442 342 l 442 0 l 136 0 z "},"Ũ":{"ha":788,"x_min":44,"x_max":743,"o":"m 393 -24 q 135 68 226 -24 q 44 340 44 160 l 44 926 l 340 926 l 340 350 q 351 273 340 296 q 393 250 361 250 q 435 273 425 250 q 446 350 446 296 l 446 926 l 743 926 l 743 340 q 652 68 743 160 q 393 -24 561 -24 m 290 981 l 172 981 q 317 1167 172 1167 q 406 1144 356 1167 q 465 1122 457 1122 q 497 1167 497 1122 l 615 1167 q 471 981 615 981 q 381 1002 432 981 q 322 1024 331 1024 q 290 981 290 1024 z "},"ũ":{"ha":788,"x_min":44,"x_max":743,"o":"m 393 -24 q 135 68 226 -24 q 44 340 44 160 l 44 926 l 340 926 l 340 350 q 351 273 340 296 q 393 250 361 250 q 435 273 425 250 q 446 350 446 296 l 446 926 l 743 926 l 743 340 q 652 68 743 160 q 393 -24 561 -24 m 290 981 l 172 981 q 317 1167 172 1167 q 406 1144 356 1167 q 465 1122 457 1122 q 497 1167 497 1122 l 615 1167 q 471 981 615 981 q 381 1002 432 981 q 322 1024 331 1024 q 290 981 290 1024 z "},"Ū":{"ha":788,"x_min":44,"x_max":743,"o":"m 393 -24 q 135 68 226 -24 q 44 340 44 160 l 44 926 l 340 926 l 340 350 q 351 273 340 296 q 393 250 361 250 q 435 273 425 250 q 446 350 446 296 l 446 926 l 743 926 l 743 340 q 652 68 743 160 q 393 -24 561 -24 m 213 981 l 213 1118 l 574 1118 l 574 981 l 213 981 z "},"ū":{"ha":788,"x_min":44,"x_max":743,"o":"m 393 -24 q 135 68 226 -24 q 44 340 44 160 l 44 926 l 340 926 l 340 350 q 351 273 340 296 q 393 250 361 250 q 435 273 425 250 q 446 350 446 296 l 446 926 l 743 926 l 743 340 q 652 68 743 160 q 393 -24 561 -24 m 213 981 l 213 1118 l 574 1118 l 574 981 l 213 981 z "},"Ŭ":{"ha":788,"x_min":44,"x_max":743,"o":"m 393 -24 q 135 68 226 -24 q 44 340 44 160 l 44 926 l 340 926 l 340 350 q 351 273 340 296 q 393 250 361 250 q 435 273 425 250 q 446 350 446 296 l 446 926 l 743 926 l 743 340 q 652 68 743 160 q 393 -24 561 -24 m 544 1042 q 519 1008 544 1042 q 393 974 494 974 q 242 1042 292 974 q 193 1183 193 1111 l 318 1183 q 319 1176 318 1181 q 324 1158 319 1171 q 335 1136 328 1146 q 358 1119 343 1126 q 393 1111 372 1111 q 444 1129 425 1111 q 465 1165 463 1147 l 468 1183 l 593 1183 q 544 1042 593 1111 z "},"ŭ":{"ha":788,"x_min":44,"x_max":743,"o":"m 393 -24 q 135 68 226 -24 q 44 340 44 160 l 44 926 l 340 926 l 340 350 q 351 273 340 296 q 393 250 361 250 q 435 273 425 250 q 446 350 446 296 l 446 926 l 743 926 l 743 340 q 652 68 743 160 q 393 -24 561 -24 m 544 1042 q 519 1008 544 1042 q 393 974 494 974 q 242 1042 292 974 q 193 1183 193 1111 l 318 1183 q 319 1176 318 1181 q 324 1158 319 1171 q 335 1136 328 1146 q 358 1119 343 1126 q 393 1111 372 1111 q 444 1129 425 1111 q 465 1165 463 1147 l 468 1183 l 593 1183 q 544 1042 593 1111 z "},"Ů":{"ha":788,"x_min":44,"x_max":743,"o":"m 393 -24 q 135 68 226 -24 q 44 340 44 160 l 44 926 l 340 926 l 340 350 q 351 273 340 296 q 393 250 361 250 q 435 273 425 250 q 446 350 446 296 l 446 926 l 743 926 l 743 340 q 652 68 743 160 q 393 -24 561 -24 m 218 1133 q 269 1258 218 1207 q 393 1310 321 1310 q 518 1258 467 1310 q 569 1133 569 1206 q 518 1010 569 1061 q 393 958 467 958 q 269 1010 319 958 q 218 1133 218 1061 m 349 1178 q 341 1169 349 1178 q 332 1133 332 1160 q 349 1090 332 1107 q 393 1072 367 1072 q 438 1090 419 1072 q 456 1133 456 1107 q 438 1178 456 1160 q 393 1196 419 1196 q 349 1178 367 1196 z "},"ů":{"ha":788,"x_min":44,"x_max":743,"o":"m 393 -24 q 135 68 226 -24 q 44 340 44 160 l 44 926 l 340 926 l 340 350 q 351 273 340 296 q 393 250 361 250 q 435 273 425 250 q 446 350 446 296 l 446 926 l 743 926 l 743 340 q 652 68 743 160 q 393 -24 561 -24 m 218 1133 q 269 1258 218 1207 q 393 1310 321 1310 q 518 1258 467 1310 q 569 1133 569 1206 q 518 1010 569 1061 q 393 958 467 958 q 269 1010 319 958 q 218 1133 218 1061 m 349 1178 q 341 1169 349 1178 q 332 1133 332 1160 q 349 1090 332 1107 q 393 1072 367 1072 q 438 1090 419 1072 q 456 1133 456 1107 q 438 1178 456 1160 q 393 1196 419 1196 q 349 1178 367 1196 z "},"Ű":{"ha":788,"x_min":44,"x_max":743,"o":"m 393 -24 q 135 68 226 -24 q 44 340 44 160 l 44 926 l 340 926 l 340 350 q 351 273 340 296 q 393 250 361 250 q 435 273 425 250 q 446 350 446 296 l 446 926 l 743 926 l 743 340 q 652 68 743 160 q 393 -24 561 -24 m 335 981 l 203 981 l 318 1196 l 488 1196 l 335 981 m 554 981 l 422 981 l 538 1196 l 707 1196 l 554 981 z "},"ű":{"ha":788,"x_min":44,"x_max":743,"o":"m 393 -24 q 135 68 226 -24 q 44 340 44 160 l 44 926 l 340 926 l 340 350 q 351 273 340 296 q 393 250 361 250 q 435 273 425 250 q 446 350 446 296 l 446 926 l 743 926 l 743 340 q 652 68 743 160 q 393 -24 561 -24 m 335 981 l 203 981 l 318 1196 l 488 1196 l 335 981 m 554 981 l 422 981 l 538 1196 l 707 1196 l 554 981 z "},"Ų":{"ha":788,"x_min":44,"x_max":743,"o":"m 611 -290 q 522 -304 585 -304 q 372 -262 428 -304 q 315 -149 315 -219 q 381 -24 315 -72 q 131 72 218 -19 q 44 340 44 163 l 44 926 l 340 926 l 340 350 q 351 273 340 296 q 393 250 361 250 q 435 273 425 250 q 446 350 446 296 l 446 926 l 743 926 l 743 340 q 539 -1 743 68 q 468 -114 468 -42 q 494 -174 468 -153 q 561 -196 519 -196 q 599 -193 579 -196 l 611 -290 z "},"ų":{"ha":788,"x_min":44,"x_max":743,"o":"m 611 -290 q 522 -304 585 -304 q 372 -262 428 -304 q 315 -149 315 -219 q 381 -24 315 -72 q 131 72 218 -19 q 44 340 44 163 l 44 926 l 340 926 l 340 350 q 351 273 340 296 q 393 250 361 250 q 435 273 425 250 q 446 350 446 296 l 446 926 l 743 926 l 743 340 q 539 -1 743 68 q 468 -114 468 -42 q 494 -174 468 -153 q 561 -196 519 -196 q 599 -193 579 -196 l 611 -290 z "},"Ŵ":{"ha":1147,"x_min":-28,"x_max":1175,"o":"m 278 0 l -28 926 l 286 926 l 388 590 l 472 926 l 675 926 l 760 590 l 861 926 l 1175 926 l 869 0 l 647 0 l 574 267 l 500 0 l 278 0 m 356 981 l 471 1196 l 674 1196 l 789 981 l 631 981 l 572 1079 l 514 981 l 356 981 z "},"ŵ":{"ha":1147,"x_min":-28,"x_max":1175,"o":"m 278 0 l -28 926 l 286 926 l 388 590 l 472 926 l 675 926 l 760 590 l 861 926 l 1175 926 l 869 0 l 647 0 l 574 267 l 500 0 l 278 0 m 356 981 l 471 1196 l 674 1196 l 789 981 l 631 981 l 572 1079 l 514 981 l 356 981 z "},"Ŷ":{"ha":715,"x_min":-28,"x_max":743,"o":"m 211 0 l 211 406 l -28 926 l 285 926 l 360 761 l 431 926 l 743 926 l 507 406 l 507 0 l 211 0 m 142 981 l 257 1196 l 460 1196 l 575 981 l 417 981 l 358 1079 l 300 981 l 142 981 z "},"ŷ":{"ha":715,"x_min":-28,"x_max":743,"o":"m 211 0 l 211 406 l -28 926 l 285 926 l 360 761 l 431 926 l 743 926 l 507 406 l 507 0 l 211 0 m 142 981 l 257 1196 l 460 1196 l 575 981 l 417 981 l 358 1079 l 300 981 l 142 981 z "},"Ÿ":{"ha":715,"x_min":-28,"x_max":743,"o":"m 211 0 l 211 406 l -28 926 l 285 926 l 360 761 l 431 926 l 743 926 l 507 406 l 507 0 l 211 0 m 150 981 l 150 1121 l 328 1121 l 328 981 l 150 981 m 389 981 l 389 1121 l 567 1121 l 567 981 l 389 981 z "},"Ź":{"ha":703,"x_min":-28,"x_max":710,"o":"m -28 0 l 281 683 l 39 683 l 133 926 l 710 926 l 401 243 l 694 243 l 601 0 l -28 0 m 474 981 l 318 981 l 433 1196 l 617 1196 l 474 981 z "},"ź":{"ha":703,"x_min":-28,"x_max":710,"o":"m -28 0 l 281 683 l 39 683 l 133 926 l 710 926 l 401 243 l 694 243 l 601 0 l -28 0 m 474 981 l 318 981 l 433 1196 l 617 1196 l 474 981 z "},"Ż":{"ha":703,"x_min":-28,"x_max":710,"o":"m -28 0 l 281 683 l 39 683 l 133 926 l 710 926 l 401 243 l 694 243 l 601 0 l -28 0 m 308 981 l 308 1121 l 486 1121 l 486 981 l 308 981 z "},"ż":{"ha":703,"x_min":-28,"x_max":710,"o":"m -28 0 l 281 683 l 39 683 l 133 926 l 710 926 l 401 243 l 694 243 l 601 0 l -28 0 m 308 981 l 308 1121 l 486 1121 l 486 981 l 308 981 z "},"Ž":{"ha":703,"x_min":-28,"x_max":710,"o":"m -28 0 l 281 683 l 39 683 l 133 926 l 710 926 l 401 243 l 694 243 l 601 0 l -28 0 m 282 981 l 167 1196 l 325 1196 l 383 1097 l 442 1196 l 600 1196 l 485 981 l 282 981 z "},"ž":{"ha":703,"x_min":-28,"x_max":710,"o":"m -28 0 l 281 683 l 39 683 l 133 926 l 710 926 l 401 243 l 694 243 l 601 0 l -28 0 m 282 981 l 167 1196 l 325 1196 l 383 1097 l 442 1196 l 600 1196 l 485 981 l 282 981 z "},"ƒ":{"ha":640,"x_min":-14,"x_max":647,"o":"m 415 565 l 558 565 l 526 343 l 385 343 l 299 -268 l -14 -268 l 71 343 l 24 343 l 56 565 l 104 565 l 117 661 q 220 871 133 793 q 457 949 307 949 q 551 943 503 949 q 622 932 599 938 l 647 926 l 610 668 q 521 678 560 678 q 478 674 496 678 q 443 653 461 671 q 421 603 425 635 l 415 565 z "},"Ơ":{"ha":1031,"x_min":28,"x_max":1031,"o":"m 145 115 q 86 185 145 115 q 28 463 28 254 q 145 810 28 671 q 465 949 263 949 q 720 870 615 949 q 871 658 825 792 q 942 758 942 683 l 853 758 l 853 926 l 1031 926 l 1031 785 q 885 611 1031 646 q 903 463 903 535 q 785 115 903 254 q 465 -24 668 -24 q 145 115 263 -24 m 358 603 q 339 575 358 603 q 319 463 319 547 q 358 322 319 378 q 465 267 396 267 q 573 322 535 267 q 611 463 611 378 q 573 603 611 547 q 465 658 535 658 q 358 603 396 658 z "},"ơ":{"ha":1031,"x_min":28,"x_max":1031,"o":"m 145 115 q 86 185 145 115 q 28 463 28 254 q 145 810 28 671 q 465 949 263 949 q 720 870 615 949 q 871 658 825 792 q 942 758 942 683 l 853 758 l 853 926 l 1031 926 l 1031 785 q 885 611 1031 646 q 903 463 903 535 q 785 115 903 254 q 465 -24 668 -24 q 145 115 263 -24 m 358 603 q 339 575 358 603 q 319 463 319 547 q 358 322 319 378 q 465 267 396 267 q 573 322 535 267 q 611 463 611 378 q 573 603 611 547 q 465 658 535 658 q 358 603 396 658 z "},"Ư":{"ha":965,"x_min":44,"x_max":965,"o":"m 393 -24 q 135 68 226 -24 q 44 340 44 160 l 44 926 l 340 926 l 340 350 q 351 273 340 296 q 393 250 361 250 q 435 273 425 250 q 446 350 446 296 l 446 926 l 743 926 l 743 649 q 838 676 800 649 q 876 758 876 704 l 788 758 l 788 926 l 965 926 l 965 785 q 901 647 965 689 q 743 606 838 606 l 743 340 q 652 68 743 160 q 393 -24 561 -24 z "},"ư":{"ha":965,"x_min":44,"x_max":965,"o":"m 393 -24 q 135 68 226 -24 q 44 340 44 160 l 44 926 l 340 926 l 340 350 q 351 273 340 296 q 393 250 361 250 q 435 273 425 250 q 446 350 446 296 l 446 926 l 743 926 l 743 649 q 838 676 800 649 q 876 758 876 704 l 788 758 l 788 926 l 965 926 l 965 785 q 901 647 965 689 q 743 606 838 606 l 743 340 q 652 68 743 160 q 393 -24 561 -24 z "},"Ș":{"ha":594,"x_min":21,"x_max":581,"o":"m 26 13 l 26 292 q 203 257 119 257 q 260 304 260 257 q 235 348 260 324 q 176 402 211 372 q 105 469 140 432 q 45 561 69 506 q 21 682 21 617 q 105 878 21 807 q 311 949 189 949 q 394 944 350 949 q 464 933 439 939 l 490 929 l 490 669 q 422 678 457 678 q 357 644 357 678 q 380 610 357 632 q 436 558 403 589 q 502 489 469 528 q 558 392 535 450 q 581 269 581 335 q 499 59 581 142 q 264 -24 417 -24 q 149 -15 208 -24 q 58 3 89 -6 l 26 13 m 233 -272 l 78 -272 l 193 -57 l 376 -57 l 233 -272 z "},"ș":{"ha":594,"x_min":21,"x_max":581,"o":"m 26 13 l 26 292 q 203 257 119 257 q 260 304 260 257 q 235 348 260 324 q 176 402 211 372 q 105 469 140 432 q 45 561 69 506 q 21 682 21 617 q 105 878 21 807 q 311 949 189 949 q 394 944 350 949 q 464 933 439 939 l 490 929 l 490 669 q 422 678 457 678 q 357 644 357 678 q 380 610 357 632 q 436 558 403 589 q 502 489 469 528 q 558 392 535 450 q 581 269 581 335 q 499 59 581 142 q 264 -24 417 -24 q 149 -15 208 -24 q 58 3 89 -6 l 26 13 m 233 -272 l 78 -272 l 193 -57 l 376 -57 l 233 -272 z "},"Ț":{"ha":578,"x_min":0,"x_max":578,"o":"m 136 0 l 136 683 l 0 683 l 0 926 l 578 926 l 578 683 l 442 683 l 442 0 l 136 0 m 244 -272 l 89 -272 l 204 -57 l 388 -57 l 244 -272 z "},"ț":{"ha":578,"x_min":0,"x_max":578,"o":"m 136 0 l 136 683 l 0 683 l 0 926 l 578 926 l 578 683 l 442 683 l 442 0 l 136 0 m 244 -272 l 89 -272 l 204 -57 l 388 -57 l 244 -272 z "},"ˆ":{"ha":503,"x_min":35,"x_max":468,"o":"m 35 717 l 150 932 l 353 932 l 468 717 l 310 717 l 251 815 l 193 717 l 35 717 z "},"ˇ":{"ha":503,"x_min":35,"x_max":468,"o":"m 150 717 l 35 932 l 193 932 l 251 833 l 310 932 l 468 932 l 353 717 l 150 717 z "},"ˉ":{"ha":431,"x_min":35,"x_max":396,"o":"m 35 717 l 35 854 l 396 854 l 396 717 l 35 717 z "},"˘":{"ha":469,"x_min":35,"x_max":435,"o":"m 385 778 q 361 744 385 778 q 235 710 336 710 q 84 778 133 710 q 35 919 35 847 l 160 919 q 160 912 160 917 q 165 894 161 907 q 177 872 169 882 q 199 855 185 863 q 235 847 214 847 q 285 865 267 847 q 307 901 304 883 l 310 919 l 435 919 q 385 778 435 847 z "},"˙":{"ha":247,"x_min":35,"x_max":213,"o":"m 35 717 l 35 857 l 213 857 l 213 717 l 35 717 z "},"˚":{"ha":421,"x_min":35,"x_max":386,"o":"m 35 869 q 86 994 35 943 q 210 1046 138 1046 q 335 994 283 1046 q 386 869 386 942 q 335 746 386 797 q 210 694 283 694 q 85 746 136 694 q 35 869 35 797 m 166 914 q 157 905 166 914 q 149 869 149 896 q 166 826 149 843 q 210 808 183 808 q 254 826 236 808 q 272 869 272 843 q 254 914 272 896 q 210 932 236 932 q 166 914 183 932 z "},"˛":{"ha":365,"x_min":35,"x_max":331,"o":"m 331 -290 q 242 -304 304 -304 q 91 -262 147 -304 q 35 -149 35 -219 q 69 -53 35 -93 q 139 0 104 -12 l 174 14 l 263 0 q 242 -12 254 -4 q 208 -51 229 -21 q 188 -114 188 -81 q 213 -174 188 -153 q 281 -196 239 -196 q 318 -193 299 -196 l 331 -290 z "},"˜":{"ha":513,"x_min":35,"x_max":478,"o":"m 153 717 l 35 717 q 179 903 35 903 q 269 881 218 903 q 328 858 319 858 q 360 903 360 858 l 478 903 q 333 717 478 717 q 244 738 294 717 q 185 760 193 760 q 153 717 153 760 z "},"˝":{"ha":581,"x_min":35,"x_max":539,"o":"m 167 717 l 35 717 l 150 932 l 319 932 l 167 717 m 386 717 l 254 717 l 369 932 l 539 932 l 386 717 z "},"̀":{"ha":340,"x_min":35,"x_max":306,"o":"m 164 1108 l 35 1260 l 190 1260 l 306 1108 l 164 1108 z "},"́":{"ha":340,"x_min":35,"x_max":306,"o":"m 306 1260 l 176 1108 l 35 1108 l 150 1260 l 306 1260 z "},"̂":{"ha":503,"x_min":35,"x_max":468,"o":"m 35 1114 l 150 1265 l 353 1265 l 468 1114 l 310 1114 l 251 1183 l 193 1114 l 35 1114 z "},"̃":{"ha":485,"x_min":35,"x_max":450,"o":"m 139 1114 l 35 1114 q 165 1244 35 1244 q 249 1229 196 1244 q 314 1214 303 1214 q 346 1244 346 1214 l 450 1244 q 319 1114 450 1114 q 235 1129 289 1114 q 171 1144 182 1144 q 139 1114 139 1144 z "},"̆":{"ha":469,"x_min":35,"x_max":435,"o":"m 386 1155 q 362 1131 386 1155 q 235 1107 338 1107 q 83 1155 132 1107 q 35 1253 35 1203 l 146 1253 q 151 1239 147 1247 q 176 1217 154 1231 q 235 1203 199 1203 q 274 1208 257 1203 q 301 1220 292 1213 q 315 1235 310 1228 q 322 1247 321 1243 l 324 1253 l 435 1253 q 386 1155 435 1203 z "},"̉":{"ha":346,"x_min":28,"x_max":318,"o":"m 50 1353 l 28 1438 q 135 1451 81 1451 q 273 1412 228 1451 q 318 1321 318 1372 q 281 1240 318 1271 q 186 1210 244 1210 l 186 1176 l 94 1176 l 94 1282 q 125 1281 100 1281 q 164 1292 149 1281 q 179 1324 179 1303 q 121 1365 179 1365 q 86 1362 104 1365 q 58 1356 68 1358 l 50 1353 z "},"̛":{"ha":288,"x_min":28,"x_max":260,"o":"m 28 606 l 28 649 l 40 649 q 133 676 96 649 q 171 758 171 704 l 82 758 l 82 926 l 260 926 l 260 785 q 197 647 260 689 q 40 606 133 606 l 28 606 z "},"̣":{"ha":247,"x_min":35,"x_max":213,"o":"m 35 -225 l 35 -57 l 213 -57 l 213 -225 l 35 -225 z "},";":{"ha":381,"x_min":0,"x_max":357,"o":"m 0 -143 l 93 232 l 357 232 l 236 -143 l 0 -143 m 74 375 l 74 607 l 343 607 l 343 375 l 74 375 z "},"Δ":{"ha":1036,"x_min":42,"x_max":994,"o":"m 42 0 l 429 926 l 607 926 l 994 0 l 42 0 m 444 244 l 583 244 l 514 410 l 444 244 z "},"Ω":{"ha":1028,"x_min":42,"x_max":983,"o":"m 647 608 q 620 637 647 608 q 511 665 593 665 q 376 608 429 665 q 322 453 322 551 q 369 314 322 376 q 489 233 415 251 l 489 0 l 50 0 l 50 235 l 135 235 q 124 247 131 239 q 102 279 118 254 q 74 333 86 304 q 51 406 61 361 q 42 497 42 450 q 175 824 42 699 q 511 949 308 949 q 849 824 714 949 q 983 497 983 699 q 974 406 983 450 q 950 333 964 363 q 922 280 936 303 q 897 246 907 257 l 888 235 l 972 235 l 972 0 l 533 0 l 533 233 q 653 314 607 251 q 700 453 700 376 q 647 608 700 551 z "},"π":{"ha":792,"x_min":42,"x_max":750,"o":"m 657 -17 q 485 31 542 -17 q 429 188 429 78 l 429 385 l 363 385 l 363 0 l 110 0 l 110 385 l 42 385 l 42 608 l 750 608 l 750 385 l 682 385 l 682 208 q 729 156 682 156 l 657 -17 z "},"Ḃ":{"ha":710,"x_min":49,"x_max":696,"o":"m 49 0 l 49 926 l 342 926 q 569 860 483 926 q 654 676 654 793 q 637 583 654 625 q 603 524 619 540 l 585 507 q 597 499 589 504 q 624 476 604 494 q 658 435 643 457 q 684 374 672 413 q 696 292 696 335 q 603 81 696 163 q 357 0 511 0 l 49 0 m 335 218 l 351 218 q 406 239 386 218 q 426 299 426 260 q 406 358 426 338 q 351 379 385 379 l 335 379 l 335 218 m 381 599 q 389 608 381 599 q 397 644 397 617 q 381 690 397 672 q 347 708 365 708 l 335 708 l 335 581 l 347 581 q 381 599 365 581 m 267 981 l 267 1121 l 444 1121 l 444 981 l 267 981 z "},"ḃ":{"ha":710,"x_min":49,"x_max":696,"o":"m 49 0 l 49 926 l 342 926 q 569 860 483 926 q 654 676 654 793 q 637 583 654 625 q 603 524 619 540 l 585 507 q 597 499 589 504 q 624 476 604 494 q 658 435 643 457 q 684 374 672 413 q 696 292 696 335 q 603 81 696 163 q 357 0 511 0 l 49 0 m 335 218 l 351 218 q 406 239 386 218 q 426 299 426 260 q 406 358 426 338 q 351 379 385 379 l 335 379 l 335 218 m 381 599 q 389 608 381 599 q 397 644 397 617 q 381 690 397 672 q 347 708 365 708 l 335 708 l 335 581 l 347 581 q 381 599 365 581 m 267 981 l 267 1121 l 444 1121 l 444 981 l 267 981 z "},"Ḋ":{"ha":813,"x_min":49,"x_max":785,"o":"m 236 0 l 49 0 l 49 926 l 236 926 q 641 806 497 926 q 785 464 785 686 q 641 122 785 243 q 236 0 497 0 m 344 663 l 344 264 l 350 264 q 453 316 413 264 q 493 464 493 368 q 449 608 493 554 q 350 663 406 663 l 344 663 m 299 981 l 299 1121 l 476 1121 l 476 981 l 299 981 z "},"ḋ":{"ha":813,"x_min":49,"x_max":785,"o":"m 236 0 l 49 0 l 49 926 l 236 926 q 641 806 497 926 q 785 464 785 686 q 641 122 785 243 q 236 0 497 0 m 344 663 l 344 264 l 350 264 q 453 316 413 264 q 493 464 493 368 q 449 608 493 554 q 350 663 406 663 l 344 663 m 299 981 l 299 1121 l 476 1121 l 476 981 l 299 981 z "},"Ḟ":{"ha":553,"x_min":49,"x_max":525,"o":"m 49 0 l 49 926 l 525 926 l 525 683 l 344 683 l 344 581 l 521 581 l 521 350 l 344 350 l 344 0 l 49 0 m 199 981 l 199 1121 l 376 1121 l 376 981 l 199 981 z "},"ḟ":{"ha":553,"x_min":49,"x_max":525,"o":"m 49 0 l 49 926 l 525 926 l 525 683 l 344 683 l 344 581 l 521 581 l 521 350 l 344 350 l 344 0 l 49 0 m 199 981 l 199 1121 l 376 1121 l 376 981 l 199 981 z "},"Ḣ":{"ha":786,"x_min":49,"x_max":738,"o":"m 49 0 l 49 926 l 344 926 l 344 611 l 440 611 l 440 926 l 738 926 l 738 0 l 440 0 l 440 343 l 344 343 l 344 0 l 49 0 m 304 981 l 304 1121 l 482 1121 l 482 981 l 304 981 z "},"ḣ":{"ha":786,"x_min":49,"x_max":738,"o":"m 49 0 l 49 926 l 344 926 l 344 611 l 440 611 l 440 926 l 738 926 l 738 0 l 440 0 l 440 343 l 344 343 l 344 0 l 49 0 m 304 981 l 304 1121 l 482 1121 l 482 981 l 304 981 z "},"Ṁ":{"ha":999,"x_min":49,"x_max":950,"o":"m 49 0 l 49 926 l 296 926 l 500 592 l 703 926 l 950 926 l 950 0 l 654 0 l 654 310 l 500 56 l 344 310 l 344 0 l 49 0 m 410 981 l 410 1121 l 588 1121 l 588 981 l 410 981 z "},"ṁ":{"ha":999,"x_min":49,"x_max":950,"o":"m 49 0 l 49 926 l 296 926 l 500 592 l 703 926 l 950 926 l 950 0 l 654 0 l 654 310 l 500 56 l 344 310 l 344 0 l 49 0 m 410 981 l 410 1121 l 588 1121 l 588 981 l 410 981 z "},"Ṗ":{"ha":721,"x_min":49,"x_max":700,"o":"m 700 574 q 597 310 700 400 q 344 221 493 221 l 344 0 l 49 0 l 49 926 l 275 926 q 582 838 464 926 q 700 574 700 750 m 344 676 l 344 471 l 353 471 q 399 496 375 471 q 424 574 424 521 q 399 651 424 626 q 353 676 375 676 l 344 676 m 286 981 l 286 1121 l 464 1121 l 464 981 l 286 981 z "},"ṗ":{"ha":721,"x_min":49,"x_max":700,"o":"m 700 574 q 597 310 700 400 q 344 221 493 221 l 344 0 l 49 0 l 49 926 l 275 926 q 582 838 464 926 q 700 574 700 750 m 344 676 l 344 471 l 353 471 q 399 496 375 471 q 424 574 424 521 q 399 651 424 626 q 353 676 375 676 l 344 676 m 286 981 l 286 1121 l 464 1121 l 464 981 l 286 981 z "},"Ṡ":{"ha":594,"x_min":21,"x_max":581,"o":"m 26 13 l 26 292 q 203 257 119 257 q 260 304 260 257 q 235 348 260 324 q 176 402 211 372 q 105 469 140 432 q 45 561 69 506 q 21 682 21 617 q 105 878 21 807 q 311 949 189 949 q 394 944 350 949 q 464 933 439 939 l 490 929 l 490 669 q 422 678 457 678 q 357 644 357 678 q 380 610 357 632 q 436 558 403 589 q 502 489 469 528 q 558 392 535 450 q 581 269 581 335 q 499 59 581 142 q 264 -24 417 -24 q 149 -15 208 -24 q 58 3 89 -6 l 26 13 m 221 981 l 221 1121 l 399 1121 l 399 981 l 221 981 z "},"ṡ":{"ha":594,"x_min":21,"x_max":581,"o":"m 26 13 l 26 292 q 203 257 119 257 q 260 304 260 257 q 235 348 260 324 q 176 402 211 372 q 105 469 140 432 q 45 561 69 506 q 21 682 21 617 q 105 878 21 807 q 311 949 189 949 q 394 944 350 949 q 464 933 439 939 l 490 929 l 490 669 q 422 678 457 678 q 357 644 357 678 q 380 610 357 632 q 436 558 403 589 q 502 489 469 528 q 558 392 535 450 q 581 269 581 335 q 499 59 581 142 q 264 -24 417 -24 q 149 -15 208 -24 q 58 3 89 -6 l 26 13 m 221 981 l 221 1121 l 399 1121 l 399 981 l 221 981 z "},"Ṫ":{"ha":578,"x_min":0,"x_max":578,"o":"m 136 0 l 136 683 l 0 683 l 0 926 l 578 926 l 578 683 l 442 683 l 442 0 l 136 0 m 200 981 l 200 1121 l 378 1121 l 378 981 l 200 981 z "},"ṫ":{"ha":578,"x_min":0,"x_max":578,"o":"m 136 0 l 136 683 l 0 683 l 0 926 l 578 926 l 578 683 l 442 683 l 442 0 l 136 0 m 200 981 l 200 1121 l 378 1121 l 378 981 l 200 981 z "},"Ẁ":{"ha":1147,"x_min":-28,"x_max":1175,"o":"m 660 981 l 504 981 l 361 1196 l 544 1196 l 660 981 m 278 0 l -28 926 l 286 926 l 388 590 l 472 926 l 675 926 l 760 590 l 861 926 l 1175 926 l 869 0 l 647 0 l 574 267 l 500 0 l 278 0 z "},"ẁ":{"ha":1147,"x_min":-28,"x_max":1175,"o":"m 660 981 l 504 981 l 361 1196 l 544 1196 l 660 981 m 278 0 l -28 926 l 286 926 l 388 590 l 472 926 l 675 926 l 760 590 l 861 926 l 1175 926 l 869 0 l 647 0 l 574 267 l 500 0 l 278 0 z "},"Ẃ":{"ha":1147,"x_min":-28,"x_max":1175,"o":"m 278 0 l -28 926 l 286 926 l 388 590 l 472 926 l 675 926 l 760 590 l 861 926 l 1175 926 l 869 0 l 647 0 l 574 267 l 500 0 l 278 0 m 660 981 l 504 981 l 619 1196 l 803 1196 l 660 981 z "},"ẃ":{"ha":1147,"x_min":-28,"x_max":1175,"o":"m 278 0 l -28 926 l 286 926 l 388 590 l 472 926 l 675 926 l 760 590 l 861 926 l 1175 926 l 869 0 l 647 0 l 574 267 l 500 0 l 278 0 m 660 981 l 504 981 l 619 1196 l 803 1196 l 660 981 z "},"Ẅ":{"ha":1147,"x_min":-28,"x_max":1175,"o":"m 278 0 l -28 926 l 286 926 l 388 590 l 472 926 l 675 926 l 760 590 l 861 926 l 1175 926 l 869 0 l 647 0 l 574 267 l 500 0 l 278 0 m 365 981 l 365 1121 l 543 1121 l 543 981 l 365 981 m 604 981 l 604 1121 l 782 1121 l 782 981 l 604 981 z "},"ẅ":{"ha":1147,"x_min":-28,"x_max":1175,"o":"m 278 0 l -28 926 l 286 926 l 388 590 l 472 926 l 675 926 l 760 590 l 861 926 l 1175 926 l 869 0 l 647 0 l 574 267 l 500 0 l 278 0 m 365 981 l 365 1121 l 543 1121 l 543 981 l 365 981 m 604 981 l 604 1121 l 782 1121 l 782 981 l 604 981 z "},"Ạ":{"ha":794,"x_min":-28,"x_max":822,"o":"m 308 -225 l 308 -85 l 486 -85 l 486 -225 l 308 -225 m -28 0 l 279 926 l 515 926 l 822 0 l 532 0 l 506 83 l 288 83 l 261 0 l -28 0 m 351 288 l 443 288 l 397 435 l 351 288 z "},"ạ":{"ha":794,"x_min":-28,"x_max":822,"o":"m 308 -225 l 308 -85 l 486 -85 l 486 -225 l 308 -225 m -28 0 l 279 926 l 515 926 l 822 0 l 532 0 l 506 83 l 288 83 l 261 0 l -28 0 m 351 288 l 443 288 l 397 435 l 351 288 z "},"Ả":{"ha":794,"x_min":-28,"x_max":822,"o":"m -28 0 l 279 926 l 515 926 l 822 0 l 532 0 l 506 83 l 288 83 l 261 0 l -28 0 m 351 288 l 443 288 l 397 435 l 351 288 m 306 1139 l 283 1224 q 390 1238 336 1238 q 528 1198 483 1238 q 574 1107 574 1158 q 537 1026 574 1057 q 442 996 500 996 l 442 963 l 350 963 l 350 1068 q 381 1067 356 1067 q 419 1078 404 1067 q 435 1110 435 1089 q 376 1151 435 1151 q 342 1148 360 1151 q 314 1142 324 1144 l 306 1139 z "},"ả":{"ha":794,"x_min":-28,"x_max":822,"o":"m -28 0 l 279 926 l 515 926 l 822 0 l 532 0 l 506 83 l 288 83 l 261 0 l -28 0 m 351 288 l 443 288 l 397 435 l 351 288 m 306 1139 l 283 1224 q 390 1238 336 1238 q 528 1198 483 1238 q 574 1107 574 1158 q 537 1026 574 1057 q 442 996 500 996 l 442 963 l 350 963 l 350 1068 q 381 1067 356 1067 q 419 1078 404 1067 q 435 1110 435 1089 q 376 1151 435 1151 q 342 1148 360 1151 q 314 1142 324 1144 l 306 1139 z "},"Ấ":{"ha":794,"x_min":-28,"x_max":913,"o":"m -28 0 l 279 926 l 515 926 l 822 0 l 532 0 l 506 83 l 288 83 l 261 0 l -28 0 m 351 288 l 443 288 l 397 435 l 351 288 m 179 981 l 294 1196 l 497 1196 l 613 981 l 454 981 l 396 1079 l 338 981 l 179 981 m 769 1036 l 614 1036 l 729 1251 l 913 1251 l 769 1036 z "},"ấ":{"ha":794,"x_min":-28,"x_max":913,"o":"m -28 0 l 279 926 l 515 926 l 822 0 l 532 0 l 506 83 l 288 83 l 261 0 l -28 0 m 351 288 l 443 288 l 397 435 l 351 288 m 179 981 l 294 1196 l 497 1196 l 613 981 l 454 981 l 396 1079 l 338 981 l 179 981 m 769 1036 l 614 1036 l 729 1251 l 913 1251 l 769 1036 z "},"Ầ":{"ha":794,"x_min":-118,"x_max":822,"o":"m -28 0 l 279 926 l 515 926 l 822 0 l 532 0 l 506 83 l 288 83 l 261 0 l -28 0 m 351 288 l 443 288 l 397 435 l 351 288 m 179 981 l 294 1196 l 497 1196 l 613 981 l 454 981 l 396 1079 l 338 981 l 179 981 m 181 1036 l 25 1036 l -118 1251 l 65 1251 l 181 1036 z "},"ầ":{"ha":794,"x_min":-118,"x_max":822,"o":"m -28 0 l 279 926 l 515 926 l 822 0 l 532 0 l 506 83 l 288 83 l 261 0 l -28 0 m 351 288 l 443 288 l 397 435 l 351 288 m 179 981 l 294 1196 l 497 1196 l 613 981 l 454 981 l 396 1079 l 338 981 l 179 981 m 181 1036 l 25 1036 l -118 1251 l 65 1251 l 181 1036 z "},"Ẩ":{"ha":794,"x_min":-28,"x_max":847,"o":"m -28 0 l 279 926 l 515 926 l 822 0 l 532 0 l 506 83 l 288 83 l 261 0 l -28 0 m 351 288 l 443 288 l 397 435 l 351 288 m 179 981 l 294 1196 l 497 1196 l 613 981 l 454 981 l 396 1079 l 338 981 l 179 981 m 579 1208 l 557 1293 q 664 1307 610 1307 q 802 1267 757 1307 q 847 1176 847 1228 q 810 1096 847 1126 q 715 1065 774 1065 l 715 1032 l 624 1032 l 624 1138 q 654 1136 629 1136 q 693 1147 678 1136 q 708 1179 708 1158 q 650 1221 708 1221 q 615 1217 633 1221 q 589 1211 597 1214 l 579 1208 z "},"ẩ":{"ha":794,"x_min":-28,"x_max":847,"o":"m -28 0 l 279 926 l 515 926 l 822 0 l 532 0 l 506 83 l 288 83 l 261 0 l -28 0 m 351 288 l 443 288 l 397 435 l 351 288 m 179 981 l 294 1196 l 497 1196 l 613 981 l 454 981 l 396 1079 l 338 981 l 179 981 m 579 1208 l 557 1293 q 664 1307 610 1307 q 802 1267 757 1307 q 847 1176 847 1228 q 810 1096 847 1126 q 715 1065 774 1065 l 715 1032 l 624 1032 l 624 1138 q 654 1136 629 1136 q 693 1147 678 1136 q 708 1179 708 1158 q 650 1221 708 1221 q 615 1217 633 1221 q 589 1211 597 1214 l 579 1208 z "},"Ẫ":{"ha":794,"x_min":-28,"x_max":822,"o":"m -28 0 l 279 926 l 515 926 l 822 0 l 532 0 l 506 83 l 288 83 l 261 0 l -28 0 m 351 288 l 443 288 l 397 435 l 351 288 m 179 949 l 294 1100 l 497 1100 l 613 949 l 454 949 l 396 1018 l 338 949 l 179 949 m 294 1121 l 176 1121 q 321 1251 176 1251 q 410 1236 360 1251 q 469 1221 461 1221 q 501 1251 501 1221 l 619 1251 q 475 1121 619 1121 q 385 1136 436 1121 q 326 1151 335 1151 q 294 1121 294 1151 z "},"ẫ":{"ha":794,"x_min":-28,"x_max":822,"o":"m -28 0 l 279 926 l 515 926 l 822 0 l 532 0 l 506 83 l 288 83 l 261 0 l -28 0 m 351 288 l 443 288 l 397 435 l 351 288 m 179 949 l 294 1100 l 497 1100 l 613 949 l 454 949 l 396 1018 l 338 949 l 179 949 m 294 1121 l 176 1121 q 321 1251 176 1251 q 410 1236 360 1251 q 469 1221 461 1221 q 501 1251 501 1221 l 619 1251 q 475 1121 619 1121 q 385 1136 436 1121 q 326 1151 335 1151 q 294 1121 294 1151 z "},"Ậ":{"ha":794,"x_min":-28,"x_max":822,"o":"m -28 0 l 279 926 l 515 926 l 822 0 l 532 0 l 506 83 l 288 83 l 261 0 l -28 0 m 351 288 l 443 288 l 397 435 l 351 288 m 179 981 l 294 1196 l 497 1196 l 613 981 l 454 981 l 396 1079 l 338 981 l 179 981 m 308 -225 l 308 -85 l 486 -85 l 486 -225 l 308 -225 z "},"ậ":{"ha":794,"x_min":-28,"x_max":822,"o":"m -28 0 l 279 926 l 515 926 l 822 0 l 532 0 l 506 83 l 288 83 l 261 0 l -28 0 m 351 288 l 443 288 l 397 435 l 351 288 m 179 981 l 294 1196 l 497 1196 l 613 981 l 454 981 l 396 1079 l 338 981 l 179 981 m 308 -225 l 308 -85 l 486 -85 l 486 -225 l 308 -225 z "},"Ắ":{"ha":794,"x_min":-28,"x_max":822,"o":"m 549 997 q 524 973 549 997 q 397 949 500 949 q 246 997 294 949 q 197 1094 197 1044 l 322 1094 q 323 1090 322 1093 q 328 1077 324 1086 q 340 1062 332 1068 q 362 1050 347 1056 q 397 1044 376 1044 q 448 1057 429 1044 q 469 1082 467 1069 l 472 1094 l 597 1094 q 549 997 597 1044 m 488 1108 l 332 1108 l 447 1260 l 631 1260 l 488 1108 m -28 0 l 279 926 l 515 926 l 822 0 l 532 0 l 506 83 l 288 83 l 261 0 l -28 0 m 351 288 l 443 288 l 397 435 l 351 288 z "},"ắ":{"ha":794,"x_min":-28,"x_max":822,"o":"m 549 997 q 524 973 549 997 q 397 949 500 949 q 246 997 294 949 q 197 1094 197 1044 l 322 1094 q 323 1090 322 1093 q 328 1077 324 1086 q 340 1062 332 1068 q 362 1050 347 1056 q 397 1044 376 1044 q 448 1057 429 1044 q 469 1082 467 1069 l 472 1094 l 597 1094 q 549 997 597 1044 m 488 1108 l 332 1108 l 447 1260 l 631 1260 l 488 1108 m -28 0 l 279 926 l 515 926 l 822 0 l 532 0 l 506 83 l 288 83 l 261 0 l -28 0 m 351 288 l 443 288 l 397 435 l 351 288 z "},"Ằ":{"ha":794,"x_min":-28,"x_max":822,"o":"m 467 1108 l 311 1108 l 168 1260 l 351 1260 l 467 1108 m 549 997 q 524 973 549 997 q 397 949 500 949 q 246 997 294 949 q 197 1094 197 1044 l 322 1094 q 323 1090 322 1093 q 328 1077 324 1086 q 340 1062 332 1068 q 362 1050 347 1056 q 397 1044 376 1044 q 448 1057 429 1044 q 469 1082 467 1069 l 472 1094 l 597 1094 q 549 997 597 1044 m -28 0 l 279 926 l 515 926 l 822 0 l 532 0 l 506 83 l 288 83 l 261 0 l -28 0 m 351 288 l 443 288 l 397 435 l 351 288 z "},"ằ":{"ha":794,"x_min":-28,"x_max":822,"o":"m 467 1108 l 311 1108 l 168 1260 l 351 1260 l 467 1108 m 549 997 q 524 973 549 997 q 397 949 500 949 q 246 997 294 949 q 197 1094 197 1044 l 322 1094 q 323 1090 322 1093 q 328 1077 324 1086 q 340 1062 332 1068 q 362 1050 347 1056 q 397 1044 376 1044 q 448 1057 429 1044 q 469 1082 467 1069 l 472 1094 l 597 1094 q 549 997 597 1044 m -28 0 l 279 926 l 515 926 l 822 0 l 532 0 l 506 83 l 288 83 l 261 0 l -28 0 m 351 288 l 443 288 l 397 435 l 351 288 z "},"Ẳ":{"ha":794,"x_min":-28,"x_max":822,"o":"m 549 997 q 524 973 549 997 q 397 949 500 949 q 246 997 294 949 q 197 1094 197 1044 l 322 1094 q 323 1090 322 1093 q 328 1077 324 1086 q 340 1062 332 1068 q 362 1050 347 1056 q 397 1044 376 1044 q 448 1057 429 1044 q 469 1082 467 1069 l 472 1094 l 597 1094 q 549 997 597 1044 m 306 1215 l 283 1274 q 390 1283 336 1283 q 528 1256 483 1283 q 574 1193 574 1229 q 537 1137 574 1158 q 442 1115 500 1115 l 442 1092 l 350 1092 l 350 1165 q 381 1164 356 1164 q 435 1194 435 1164 q 376 1224 435 1224 l 306 1215 m -28 0 l 279 926 l 515 926 l 822 0 l 532 0 l 506 83 l 288 83 l 261 0 l -28 0 m 351 288 l 443 288 l 397 435 l 351 288 z "},"ẳ":{"ha":794,"x_min":-28,"x_max":822,"o":"m 549 997 q 524 973 549 997 q 397 949 500 949 q 246 997 294 949 q 197 1094 197 1044 l 322 1094 q 323 1090 322 1093 q 328 1077 324 1086 q 340 1062 332 1068 q 362 1050 347 1056 q 397 1044 376 1044 q 448 1057 429 1044 q 469 1082 467 1069 l 472 1094 l 597 1094 q 549 997 597 1044 m 306 1215 l 283 1274 q 390 1283 336 1283 q 528 1256 483 1283 q 574 1193 574 1229 q 537 1137 574 1158 q 442 1115 500 1115 l 442 1092 l 350 1092 l 350 1165 q 381 1164 356 1164 q 435 1194 435 1164 q 376 1224 435 1224 l 306 1215 m -28 0 l 279 926 l 515 926 l 822 0 l 532 0 l 506 83 l 288 83 l 261 0 l -28 0 m 351 288 l 443 288 l 397 435 l 351 288 z "},"Ẵ":{"ha":794,"x_min":-28,"x_max":822,"o":"m 315 1114 l 197 1114 q 342 1244 197 1244 q 431 1229 381 1244 q 490 1214 482 1214 q 522 1244 522 1214 l 640 1244 q 496 1114 640 1114 q 406 1129 457 1114 q 347 1144 356 1144 q 315 1114 315 1144 m 549 997 q 524 973 549 997 q 397 949 500 949 q 246 997 294 949 q 197 1094 197 1044 l 322 1094 q 323 1090 322 1093 q 328 1077 324 1086 q 340 1062 332 1068 q 362 1050 347 1056 q 397 1044 376 1044 q 448 1057 429 1044 q 469 1082 467 1069 l 472 1094 l 597 1094 q 549 997 597 1044 m -28 0 l 279 926 l 515 926 l 822 0 l 532 0 l 506 83 l 288 83 l 261 0 l -28 0 m 351 288 l 443 288 l 397 435 l 351 288 z "},"ẵ":{"ha":794,"x_min":-28,"x_max":822,"o":"m 315 1114 l 197 1114 q 342 1244 197 1244 q 431 1229 381 1244 q 490 1214 482 1214 q 522 1244 522 1214 l 640 1244 q 496 1114 640 1114 q 406 1129 457 1114 q 347 1144 356 1144 q 315 1114 315 1144 m 549 997 q 524 973 549 997 q 397 949 500 949 q 246 997 294 949 q 197 1094 197 1044 l 322 1094 q 323 1090 322 1093 q 328 1077 324 1086 q 340 1062 332 1068 q 362 1050 347 1056 q 397 1044 376 1044 q 448 1057 429 1044 q 469 1082 467 1069 l 472 1094 l 597 1094 q 549 997 597 1044 m -28 0 l 279 926 l 515 926 l 822 0 l 532 0 l 506 83 l 288 83 l 261 0 l -28 0 m 351 288 l 443 288 l 397 435 l 351 288 z "},"Ặ":{"ha":794,"x_min":-28,"x_max":822,"o":"m 548 1042 q 523 1008 548 1042 q 397 974 499 974 q 247 1042 296 974 q 197 1183 197 1111 l 322 1183 q 323 1176 322 1181 q 328 1158 324 1171 q 340 1136 332 1146 q 362 1119 347 1126 q 397 1111 376 1111 q 448 1129 429 1111 q 469 1165 467 1147 l 472 1183 l 597 1183 q 548 1042 597 1111 m 308 -225 l 308 -85 l 486 -85 l 486 -225 l 308 -225 m -28 0 l 279 926 l 515 926 l 822 0 l 532 0 l 506 83 l 288 83 l 261 0 l -28 0 m 351 288 l 443 288 l 397 435 l 351 288 z "},"ặ":{"ha":794,"x_min":-28,"x_max":822,"o":"m 548 1042 q 523 1008 548 1042 q 397 974 499 974 q 247 1042 296 974 q 197 1183 197 1111 l 322 1183 q 323 1176 322 1181 q 328 1158 324 1171 q 340 1136 332 1146 q 362 1119 347 1126 q 397 1111 376 1111 q 448 1129 429 1111 q 469 1165 467 1147 l 472 1183 l 597 1183 q 548 1042 597 1111 m 308 -225 l 308 -85 l 486 -85 l 486 -225 l 308 -225 m -28 0 l 279 926 l 515 926 l 822 0 l 532 0 l 506 83 l 288 83 l 261 0 l -28 0 m 351 288 l 443 288 l 397 435 l 351 288 z "},"Ẹ":{"ha":569,"x_min":49,"x_max":535,"o":"m 49 0 l 49 926 l 525 926 l 525 683 l 344 683 l 344 581 l 521 581 l 521 350 l 344 350 l 344 243 l 535 243 l 535 0 l 49 0 m 194 -225 l 194 -85 l 372 -85 l 372 -225 l 194 -225 z "},"ẹ":{"ha":569,"x_min":49,"x_max":535,"o":"m 49 0 l 49 926 l 525 926 l 525 683 l 344 683 l 344 581 l 521 581 l 521 350 l 344 350 l 344 243 l 535 243 l 535 0 l 49 0 m 194 -225 l 194 -85 l 372 -85 l 372 -225 l 194 -225 z "},"Ẻ":{"ha":569,"x_min":49,"x_max":535,"o":"m 49 0 l 49 926 l 525 926 l 525 683 l 344 683 l 344 581 l 521 581 l 521 350 l 344 350 l 344 243 l 535 243 l 535 0 l 49 0 m 172 1139 l 150 1224 q 257 1238 203 1238 q 395 1198 350 1238 q 440 1107 440 1158 q 403 1026 440 1057 q 308 996 367 996 l 308 963 l 217 963 l 217 1068 q 247 1067 222 1067 q 286 1078 271 1067 q 301 1110 301 1089 q 243 1151 301 1151 q 208 1148 226 1151 q 181 1142 190 1144 l 172 1139 z "},"ẻ":{"ha":569,"x_min":49,"x_max":535,"o":"m 49 0 l 49 926 l 525 926 l 525 683 l 344 683 l 344 581 l 521 581 l 521 350 l 344 350 l 344 243 l 535 243 l 535 0 l 49 0 m 172 1139 l 150 1224 q 257 1238 203 1238 q 395 1198 350 1238 q 440 1107 440 1158 q 403 1026 440 1057 q 308 996 367 996 l 308 963 l 217 963 l 217 1068 q 247 1067 222 1067 q 286 1078 271 1067 q 301 1110 301 1089 q 243 1151 301 1151 q 208 1148 226 1151 q 181 1142 190 1144 l 172 1139 z "},"Ẽ":{"ha":569,"x_min":49,"x_max":535,"o":"m 49 0 l 49 926 l 525 926 l 525 683 l 344 683 l 344 581 l 521 581 l 521 350 l 344 350 l 344 243 l 535 243 l 535 0 l 49 0 m 186 981 l 68 981 q 213 1167 68 1167 q 302 1144 251 1167 q 361 1122 353 1122 q 393 1167 393 1122 l 511 1167 q 367 981 511 981 q 277 1002 328 981 q 218 1024 226 1024 q 186 981 186 1024 z "},"ẽ":{"ha":569,"x_min":49,"x_max":535,"o":"m 49 0 l 49 926 l 525 926 l 525 683 l 344 683 l 344 581 l 521 581 l 521 350 l 344 350 l 344 243 l 535 243 l 535 0 l 49 0 m 186 981 l 68 981 q 213 1167 68 1167 q 302 1144 251 1167 q 361 1122 353 1122 q 393 1167 393 1122 l 511 1167 q 367 981 511 981 q 277 1002 328 981 q 218 1024 226 1024 q 186 981 186 1024 z "},"Ế":{"ha":569,"x_min":49,"x_max":800,"o":"m 49 0 l 49 926 l 525 926 l 525 683 l 344 683 l 344 581 l 521 581 l 521 350 l 344 350 l 344 243 l 535 243 l 535 0 l 49 0 m 67 981 l 182 1196 l 385 1196 l 500 981 l 342 981 l 283 1079 l 225 981 l 67 981 m 657 1036 l 501 1036 l 617 1251 l 800 1251 l 657 1036 z "},"ế":{"ha":569,"x_min":49,"x_max":800,"o":"m 49 0 l 49 926 l 525 926 l 525 683 l 344 683 l 344 581 l 521 581 l 521 350 l 344 350 l 344 243 l 535 243 l 535 0 l 49 0 m 67 981 l 182 1196 l 385 1196 l 500 981 l 342 981 l 283 1079 l 225 981 l 67 981 m 657 1036 l 501 1036 l 617 1251 l 800 1251 l 657 1036 z "},"Ề":{"ha":569,"x_min":-231,"x_max":535,"o":"m 49 0 l 49 926 l 525 926 l 525 683 l 344 683 l 344 581 l 521 581 l 521 350 l 344 350 l 344 243 l 535 243 l 535 0 l 49 0 m 67 981 l 182 1196 l 385 1196 l 500 981 l 342 981 l 283 1079 l 225 981 l 67 981 m 68 1036 l -87 1036 l -231 1251 l -47 1251 l 68 1036 z "},"ề":{"ha":569,"x_min":-231,"x_max":535,"o":"m 49 0 l 49 926 l 525 926 l 525 683 l 344 683 l 344 581 l 521 581 l 521 350 l 344 350 l 344 243 l 535 243 l 535 0 l 49 0 m 67 981 l 182 1196 l 385 1196 l 500 981 l 342 981 l 283 1079 l 225 981 l 67 981 m 68 1036 l -87 1036 l -231 1251 l -47 1251 l 68 1036 z "},"Ể":{"ha":569,"x_min":49,"x_max":735,"o":"m 49 0 l 49 926 l 525 926 l 525 683 l 344 683 l 344 581 l 521 581 l 521 350 l 344 350 l 344 243 l 535 243 l 535 0 l 49 0 m 182 981 l 67 1196 l 225 1196 l 283 1097 l 342 1196 l 500 1196 l 385 981 l 182 981 m 467 1208 l 444 1293 q 551 1307 497 1307 q 690 1267 644 1307 q 735 1176 735 1228 q 698 1096 735 1126 q 603 1065 661 1065 l 603 1032 l 511 1032 l 511 1138 q 542 1136 517 1136 q 581 1147 565 1136 q 596 1179 596 1158 q 538 1221 596 1221 q 503 1217 521 1221 q 475 1211 485 1214 l 467 1208 z "},"ể":{"ha":569,"x_min":49,"x_max":735,"o":"m 49 0 l 49 926 l 525 926 l 525 683 l 344 683 l 344 581 l 521 581 l 521 350 l 344 350 l 344 243 l 535 243 l 535 0 l 49 0 m 182 981 l 67 1196 l 225 1196 l 283 1097 l 342 1196 l 500 1196 l 385 981 l 182 981 m 467 1208 l 444 1293 q 551 1307 497 1307 q 690 1267 644 1307 q 735 1176 735 1228 q 698 1096 735 1126 q 603 1065 661 1065 l 603 1032 l 511 1032 l 511 1138 q 542 1136 517 1136 q 581 1147 565 1136 q 596 1179 596 1158 q 538 1221 596 1221 q 503 1217 521 1221 q 475 1211 485 1214 l 467 1208 z "},"Ễ":{"ha":569,"x_min":49,"x_max":535,"o":"m 49 0 l 49 926 l 525 926 l 525 683 l 344 683 l 344 581 l 521 581 l 521 350 l 344 350 l 344 243 l 535 243 l 535 0 l 49 0 m 67 949 l 182 1100 l 385 1100 l 500 949 l 342 949 l 283 1018 l 225 949 l 67 949 m 182 1121 l 64 1121 q 208 1251 64 1251 q 298 1236 247 1251 q 357 1221 349 1221 q 389 1251 389 1221 l 507 1251 q 363 1121 507 1121 q 273 1136 324 1121 q 214 1151 222 1151 q 182 1121 182 1151 z "},"ễ":{"ha":569,"x_min":49,"x_max":535,"o":"m 49 0 l 49 926 l 525 926 l 525 683 l 344 683 l 344 581 l 521 581 l 521 350 l 344 350 l 344 243 l 535 243 l 535 0 l 49 0 m 67 949 l 182 1100 l 385 1100 l 500 949 l 342 949 l 283 1018 l 225 949 l 67 949 m 182 1121 l 64 1121 q 208 1251 64 1251 q 298 1236 247 1251 q 357 1221 349 1221 q 389 1251 389 1221 l 507 1251 q 363 1121 507 1121 q 273 1136 324 1121 q 214 1151 222 1151 q 182 1121 182 1151 z "},"Ệ":{"ha":569,"x_min":49,"x_max":535,"o":"m 49 0 l 49 926 l 525 926 l 525 683 l 344 683 l 344 581 l 521 581 l 521 350 l 344 350 l 344 243 l 535 243 l 535 0 l 49 0 m 67 981 l 182 1196 l 385 1196 l 500 981 l 342 981 l 283 1079 l 225 981 l 67 981 m 194 -225 l 194 -85 l 372 -85 l 372 -225 l 194 -225 z "},"ệ":{"ha":569,"x_min":49,"x_max":535,"o":"m 49 0 l 49 926 l 525 926 l 525 683 l 344 683 l 344 581 l 521 581 l 521 350 l 344 350 l 344 243 l 535 243 l 535 0 l 49 0 m 67 981 l 182 1196 l 385 1196 l 500 981 l 342 981 l 283 1079 l 225 981 l 67 981 m 194 -225 l 194 -85 l 372 -85 l 372 -225 l 194 -225 z "},"Ỉ":{"ha":411,"x_min":49,"x_max":382,"o":"m 49 0 l 49 926 l 363 926 l 363 0 l 49 0 m 114 1139 l 92 1224 q 199 1238 144 1238 q 337 1198 292 1238 q 382 1107 382 1158 q 345 1026 382 1057 q 250 996 308 996 l 250 963 l 158 963 l 158 1068 q 189 1067 164 1067 q 228 1078 213 1067 q 243 1110 243 1089 q 185 1151 243 1151 q 150 1148 168 1151 q 122 1142 132 1144 l 114 1139 z "},"ỉ":{"ha":411,"x_min":49,"x_max":382,"o":"m 49 0 l 49 926 l 363 926 l 363 0 l 49 0 m 114 1139 l 92 1224 q 199 1238 144 1238 q 337 1198 292 1238 q 382 1107 382 1158 q 345 1026 382 1057 q 250 996 308 996 l 250 963 l 158 963 l 158 1068 q 189 1067 164 1067 q 228 1078 213 1067 q 243 1110 243 1089 q 185 1151 243 1151 q 150 1148 168 1151 q 122 1142 132 1144 l 114 1139 z "},"Ị":{"ha":411,"x_min":49,"x_max":363,"o":"m 49 0 l 49 926 l 363 926 l 363 0 l 49 0 m 117 -225 l 117 -85 l 294 -85 l 294 -225 l 117 -225 z "},"ị":{"ha":411,"x_min":49,"x_max":363,"o":"m 49 0 l 49 926 l 363 926 l 363 0 l 49 0 m 117 -225 l 117 -85 l 294 -85 l 294 -225 l 117 -225 z "},"Ọ":{"ha":931,"x_min":28,"x_max":903,"o":"m 145 115 q 86 185 145 115 q 28 463 28 254 q 145 810 28 671 q 465 949 263 949 q 785 810 668 949 q 903 463 903 671 q 785 115 903 254 q 465 -24 668 -24 q 145 115 263 -24 m 358 603 q 339 575 358 603 q 319 463 319 547 q 358 322 319 378 q 465 267 396 267 q 573 322 535 267 q 611 463 611 378 q 573 603 611 547 q 465 658 535 658 q 358 603 396 658 m 376 -225 l 376 -85 l 554 -85 l 554 -225 l 376 -225 z "},"ọ":{"ha":931,"x_min":28,"x_max":903,"o":"m 145 115 q 86 185 145 115 q 28 463 28 254 q 145 810 28 671 q 465 949 263 949 q 785 810 668 949 q 903 463 903 671 q 785 115 903 254 q 465 -24 668 -24 q 145 115 263 -24 m 358 603 q 339 575 358 603 q 319 463 319 547 q 358 322 319 378 q 465 267 396 267 q 573 322 535 267 q 611 463 611 378 q 573 603 611 547 q 465 658 535 658 q 358 603 396 658 m 376 -225 l 376 -85 l 554 -85 l 554 -225 l 376 -225 z "},"Ỏ":{"ha":931,"x_min":28,"x_max":903,"o":"m 145 115 q 86 185 145 115 q 28 463 28 254 q 145 810 28 671 q 465 949 263 949 q 785 810 668 949 q 903 463 903 671 q 785 115 903 254 q 465 -24 668 -24 q 145 115 263 -24 m 358 603 q 339 575 358 603 q 319 463 319 547 q 358 322 319 378 q 465 267 396 267 q 573 322 535 267 q 611 463 611 378 q 573 603 611 547 q 465 658 535 658 q 358 603 396 658 m 379 1139 l 357 1224 q 464 1238 410 1238 q 602 1198 557 1238 q 647 1107 647 1158 q 610 1026 647 1057 q 515 996 574 996 l 515 963 l 424 963 l 424 1068 q 454 1067 429 1067 q 493 1078 478 1067 q 508 1110 508 1089 q 450 1151 508 1151 q 415 1148 433 1151 q 389 1142 397 1144 l 379 1139 z "},"ỏ":{"ha":931,"x_min":28,"x_max":903,"o":"m 145 115 q 86 185 145 115 q 28 463 28 254 q 145 810 28 671 q 465 949 263 949 q 785 810 668 949 q 903 463 903 671 q 785 115 903 254 q 465 -24 668 -24 q 145 115 263 -24 m 358 603 q 339 575 358 603 q 319 463 319 547 q 358 322 319 378 q 465 267 396 267 q 573 322 535 267 q 611 463 611 378 q 573 603 611 547 q 465 658 535 658 q 358 603 396 658 m 379 1139 l 357 1224 q 464 1238 410 1238 q 602 1198 557 1238 q 647 1107 647 1158 q 610 1026 647 1057 q 515 996 574 996 l 515 963 l 424 963 l 424 1068 q 454 1067 429 1067 q 493 1078 478 1067 q 508 1110 508 1089 q 450 1151 508 1151 q 415 1148 433 1151 q 389 1142 397 1144 l 379 1139 z "},"Ố":{"ha":931,"x_min":28,"x_max":981,"o":"m 145 115 q 86 185 145 115 q 28 463 28 254 q 145 810 28 671 q 465 949 263 949 q 785 810 668 949 q 903 463 903 671 q 785 115 903 254 q 465 -24 668 -24 q 145 115 263 -24 m 358 603 q 339 575 358 603 q 319 463 319 547 q 358 322 319 378 q 465 267 396 267 q 573 322 535 267 q 611 463 611 378 q 573 603 611 547 q 465 658 535 658 q 358 603 396 658 m 247 981 l 363 1196 l 565 1196 l 681 981 l 522 981 l 464 1079 l 406 981 l 247 981 m 838 1036 l 682 1036 l 797 1251 l 981 1251 l 838 1036 z "},"ố":{"ha":931,"x_min":28,"x_max":981,"o":"m 145 115 q 86 185 145 115 q 28 463 28 254 q 145 810 28 671 q 465 949 263 949 q 785 810 668 949 q 903 463 903 671 q 785 115 903 254 q 465 -24 668 -24 q 145 115 263 -24 m 358 603 q 339 575 358 603 q 319 463 319 547 q 358 322 319 378 q 465 267 396 267 q 573 322 535 267 q 611 463 611 378 q 573 603 611 547 q 465 658 535 658 q 358 603 396 658 m 247 981 l 363 1196 l 565 1196 l 681 981 l 522 981 l 464 1079 l 406 981 l 247 981 m 838 1036 l 682 1036 l 797 1251 l 981 1251 l 838 1036 z "},"Ồ":{"ha":931,"x_min":-50,"x_max":903,"o":"m 145 115 q 86 185 145 115 q 28 463 28 254 q 145 810 28 671 q 465 949 263 949 q 785 810 668 949 q 903 463 903 671 q 785 115 903 254 q 465 -24 668 -24 q 145 115 263 -24 m 358 603 q 339 575 358 603 q 319 463 319 547 q 358 322 319 378 q 465 267 396 267 q 573 322 535 267 q 611 463 611 378 q 573 603 611 547 q 465 658 535 658 q 358 603 396 658 m 247 981 l 363 1196 l 565 1196 l 681 981 l 522 981 l 464 1079 l 406 981 l 247 981 m 249 1036 l 93 1036 l -50 1251 l 133 1251 l 249 1036 z "},"ồ":{"ha":931,"x_min":-50,"x_max":903,"o":"m 145 115 q 86 185 145 115 q 28 463 28 254 q 145 810 28 671 q 465 949 263 949 q 785 810 668 949 q 903 463 903 671 q 785 115 903 254 q 465 -24 668 -24 q 145 115 263 -24 m 358 603 q 339 575 358 603 q 319 463 319 547 q 358 322 319 378 q 465 267 396 267 q 573 322 535 267 q 611 463 611 378 q 573 603 611 547 q 465 658 535 658 q 358 603 396 658 m 247 981 l 363 1196 l 565 1196 l 681 981 l 522 981 l 464 1079 l 406 981 l 247 981 m 249 1036 l 93 1036 l -50 1251 l 133 1251 l 249 1036 z "},"Ổ":{"ha":931,"x_min":28,"x_max":915,"o":"m 145 115 q 86 185 145 115 q 28 463 28 254 q 145 810 28 671 q 465 949 263 949 q 785 810 668 949 q 903 463 903 671 q 785 115 903 254 q 465 -24 668 -24 q 145 115 263 -24 m 358 603 q 339 575 358 603 q 319 463 319 547 q 358 322 319 378 q 465 267 396 267 q 573 322 535 267 q 611 463 611 378 q 573 603 611 547 q 465 658 535 658 q 358 603 396 658 m 247 981 l 363 1196 l 565 1196 l 681 981 l 522 981 l 464 1079 l 406 981 l 247 981 m 647 1208 l 625 1293 q 732 1307 678 1307 q 870 1267 825 1307 q 915 1176 915 1228 q 878 1096 915 1126 q 783 1065 842 1065 l 783 1032 l 692 1032 l 692 1138 q 722 1136 697 1136 q 761 1147 746 1136 q 776 1179 776 1158 q 718 1221 776 1221 q 683 1217 701 1221 q 656 1211 665 1214 l 647 1208 z "},"ổ":{"ha":931,"x_min":28,"x_max":915,"o":"m 145 115 q 86 185 145 115 q 28 463 28 254 q 145 810 28 671 q 465 949 263 949 q 785 810 668 949 q 903 463 903 671 q 785 115 903 254 q 465 -24 668 -24 q 145 115 263 -24 m 358 603 q 339 575 358 603 q 319 463 319 547 q 358 322 319 378 q 465 267 396 267 q 573 322 535 267 q 611 463 611 378 q 573 603 611 547 q 465 658 535 658 q 358 603 396 658 m 247 981 l 363 1196 l 565 1196 l 681 981 l 522 981 l 464 1079 l 406 981 l 247 981 m 647 1208 l 625 1293 q 732 1307 678 1307 q 870 1267 825 1307 q 915 1176 915 1228 q 878 1096 915 1126 q 783 1065 842 1065 l 783 1032 l 692 1032 l 692 1138 q 722 1136 697 1136 q 761 1147 746 1136 q 776 1179 776 1158 q 718 1221 776 1221 q 683 1217 701 1221 q 656 1211 665 1214 l 647 1208 z "},"Ỗ":{"ha":931,"x_min":28,"x_max":903,"o":"m 145 115 q 86 185 145 115 q 28 463 28 254 q 145 810 28 671 q 465 949 263 949 q 785 810 668 949 q 903 463 903 671 q 785 115 903 254 q 465 -24 668 -24 q 145 115 263 -24 m 358 603 q 339 575 358 603 q 319 463 319 547 q 358 322 319 378 q 465 267 396 267 q 573 322 535 267 q 611 463 611 378 q 573 603 611 547 q 465 658 535 658 q 358 603 396 658 m 247 949 l 363 1100 l 565 1100 l 681 949 l 522 949 l 464 1018 l 406 949 l 247 949 m 363 1121 l 244 1121 q 389 1251 244 1251 q 478 1236 428 1251 q 538 1221 529 1221 q 569 1251 569 1221 l 688 1251 q 543 1121 688 1121 q 453 1136 504 1121 q 394 1151 403 1151 q 363 1121 363 1151 z "},"ỗ":{"ha":931,"x_min":28,"x_max":903,"o":"m 145 115 q 86 185 145 115 q 28 463 28 254 q 145 810 28 671 q 465 949 263 949 q 785 810 668 949 q 903 463 903 671 q 785 115 903 254 q 465 -24 668 -24 q 145 115 263 -24 m 358 603 q 339 575 358 603 q 319 463 319 547 q 358 322 319 378 q 465 267 396 267 q 573 322 535 267 q 611 463 611 378 q 573 603 611 547 q 465 658 535 658 q 358 603 396 658 m 247 949 l 363 1100 l 565 1100 l 681 949 l 522 949 l 464 1018 l 406 949 l 247 949 m 363 1121 l 244 1121 q 389 1251 244 1251 q 478 1236 428 1251 q 538 1221 529 1221 q 569 1251 569 1221 l 688 1251 q 543 1121 688 1121 q 453 1136 504 1121 q 394 1151 403 1151 q 363 1121 363 1151 z "},"Ộ":{"ha":931,"x_min":28,"x_max":903,"o":"m 145 115 q 86 185 145 115 q 28 463 28 254 q 145 810 28 671 q 465 949 263 949 q 785 810 668 949 q 903 463 903 671 q 785 115 903 254 q 465 -24 668 -24 q 145 115 263 -24 m 358 603 q 339 575 358 603 q 319 463 319 547 q 358 322 319 378 q 465 267 396 267 q 573 322 535 267 q 611 463 611 378 q 573 603 611 547 q 465 658 535 658 q 358 603 396 658 m 247 981 l 363 1196 l 565 1196 l 681 981 l 522 981 l 464 1079 l 406 981 l 247 981 m 376 -225 l 376 -85 l 554 -85 l 554 -225 l 376 -225 z "},"ộ":{"ha":931,"x_min":28,"x_max":903,"o":"m 145 115 q 86 185 145 115 q 28 463 28 254 q 145 810 28 671 q 465 949 263 949 q 785 810 668 949 q 903 463 903 671 q 785 115 903 254 q 465 -24 668 -24 q 145 115 263 -24 m 358 603 q 339 575 358 603 q 319 463 319 547 q 358 322 319 378 q 465 267 396 267 q 573 322 535 267 q 611 463 611 378 q 573 603 611 547 q 465 658 535 658 q 358 603 396 658 m 247 981 l 363 1196 l 565 1196 l 681 981 l 522 981 l 464 1079 l 406 981 l 247 981 m 376 -225 l 376 -85 l 554 -85 l 554 -225 l 376 -225 z "},"Ớ":{"ha":1031,"x_min":28,"x_max":1031,"o":"m 528 981 l 372 981 l 488 1196 l 671 1196 l 528 981 m 145 115 q 86 185 145 115 q 28 463 28 254 q 145 810 28 671 q 465 949 263 949 q 720 870 615 949 q 871 658 825 792 q 942 758 942 683 l 853 758 l 853 926 l 1031 926 l 1031 785 q 885 611 1031 646 q 903 463 903 535 q 785 115 903 254 q 465 -24 668 -24 q 145 115 263 -24 m 358 603 q 339 575 358 603 q 319 463 319 547 q 358 322 319 378 q 465 267 396 267 q 573 322 535 267 q 611 463 611 378 q 573 603 611 547 q 465 658 535 658 q 358 603 396 658 z "},"ớ":{"ha":1031,"x_min":28,"x_max":1031,"o":"m 528 981 l 372 981 l 488 1196 l 671 1196 l 528 981 m 145 115 q 86 185 145 115 q 28 463 28 254 q 145 810 28 671 q 465 949 263 949 q 720 870 615 949 q 871 658 825 792 q 942 758 942 683 l 853 758 l 853 926 l 1031 926 l 1031 785 q 885 611 1031 646 q 903 463 903 535 q 785 115 903 254 q 465 -24 668 -24 q 145 115 263 -24 m 358 603 q 339 575 358 603 q 319 463 319 547 q 358 322 319 378 q 465 267 396 267 q 573 322 535 267 q 611 463 611 378 q 573 603 611 547 q 465 658 535 658 q 358 603 396 658 z "},"Ờ":{"ha":1031,"x_min":28,"x_max":1031,"o":"m 560 981 l 404 981 l 261 1196 l 444 1196 l 560 981 m 145 115 q 86 185 145 115 q 28 463 28 254 q 145 810 28 671 q 465 949 263 949 q 720 870 615 949 q 871 658 825 792 q 942 758 942 683 l 853 758 l 853 926 l 1031 926 l 1031 785 q 885 611 1031 646 q 903 463 903 535 q 785 115 903 254 q 465 -24 668 -24 q 145 115 263 -24 m 358 603 q 339 575 358 603 q 319 463 319 547 q 358 322 319 378 q 465 267 396 267 q 573 322 535 267 q 611 463 611 378 q 573 603 611 547 q 465 658 535 658 q 358 603 396 658 z "},"ờ":{"ha":1031,"x_min":28,"x_max":1031,"o":"m 560 981 l 404 981 l 261 1196 l 444 1196 l 560 981 m 145 115 q 86 185 145 115 q 28 463 28 254 q 145 810 28 671 q 465 949 263 949 q 720 870 615 949 q 871 658 825 792 q 942 758 942 683 l 853 758 l 853 926 l 1031 926 l 1031 785 q 885 611 1031 646 q 903 463 903 535 q 785 115 903 254 q 465 -24 668 -24 q 145 115 263 -24 m 358 603 q 339 575 358 603 q 319 463 319 547 q 358 322 319 378 q 465 267 396 267 q 573 322 535 267 q 611 463 611 378 q 573 603 611 547 q 465 658 535 658 q 358 603 396 658 z "},"Ở":{"ha":1031,"x_min":28,"x_max":1031,"o":"m 145 115 q 86 185 145 115 q 28 463 28 254 q 145 810 28 671 q 465 949 263 949 q 720 870 615 949 q 871 658 825 792 q 942 758 942 683 l 853 758 l 853 926 l 1031 926 l 1031 785 q 885 611 1031 646 q 903 463 903 535 q 785 115 903 254 q 465 -24 668 -24 q 145 115 263 -24 m 358 603 q 339 575 358 603 q 319 463 319 547 q 358 322 319 378 q 465 267 396 267 q 573 322 535 267 q 611 463 611 378 q 573 603 611 547 q 465 658 535 658 q 358 603 396 658 m 379 1139 l 357 1224 q 464 1238 410 1238 q 602 1198 557 1238 q 647 1107 647 1158 q 610 1026 647 1057 q 515 996 574 996 l 515 963 l 424 963 l 424 1068 q 454 1067 429 1067 q 493 1078 478 1067 q 508 1110 508 1089 q 450 1151 508 1151 q 415 1148 433 1151 q 389 1142 397 1144 l 379 1139 z "},"ở":{"ha":1031,"x_min":28,"x_max":1031,"o":"m 145 115 q 86 185 145 115 q 28 463 28 254 q 145 810 28 671 q 465 949 263 949 q 720 870 615 949 q 871 658 825 792 q 942 758 942 683 l 853 758 l 853 926 l 1031 926 l 1031 785 q 885 611 1031 646 q 903 463 903 535 q 785 115 903 254 q 465 -24 668 -24 q 145 115 263 -24 m 358 603 q 339 575 358 603 q 319 463 319 547 q 358 322 319 378 q 465 267 396 267 q 573 322 535 267 q 611 463 611 378 q 573 603 611 547 q 465 658 535 658 q 358 603 396 658 m 379 1139 l 357 1224 q 464 1238 410 1238 q 602 1198 557 1238 q 647 1107 647 1158 q 610 1026 647 1057 q 515 996 574 996 l 515 963 l 424 963 l 424 1068 q 454 1067 429 1067 q 493 1078 478 1067 q 508 1110 508 1089 q 450 1151 508 1151 q 415 1148 433 1151 q 389 1142 397 1144 l 379 1139 z "},"Ỡ":{"ha":1031,"x_min":28,"x_max":1031,"o":"m 361 981 l 243 981 q 388 1167 243 1167 q 477 1144 426 1167 q 536 1122 528 1122 q 568 1167 568 1122 l 686 1167 q 542 981 686 981 q 452 1002 503 981 q 393 1024 401 1024 q 361 981 361 1024 m 145 115 q 86 185 145 115 q 28 463 28 254 q 145 810 28 671 q 465 949 263 949 q 720 870 615 949 q 871 658 825 792 q 942 758 942 683 l 853 758 l 853 926 l 1031 926 l 1031 785 q 885 611 1031 646 q 903 463 903 535 q 785 115 903 254 q 465 -24 668 -24 q 145 115 263 -24 m 358 603 q 339 575 358 603 q 319 463 319 547 q 358 322 319 378 q 465 267 396 267 q 573 322 535 267 q 611 463 611 378 q 573 603 611 547 q 465 658 535 658 q 358 603 396 658 z "},"ỡ":{"ha":1031,"x_min":28,"x_max":1031,"o":"m 361 981 l 243 981 q 388 1167 243 1167 q 477 1144 426 1167 q 536 1122 528 1122 q 568 1167 568 1122 l 686 1167 q 542 981 686 981 q 452 1002 503 981 q 393 1024 401 1024 q 361 981 361 1024 m 145 115 q 86 185 145 115 q 28 463 28 254 q 145 810 28 671 q 465 949 263 949 q 720 870 615 949 q 871 658 825 792 q 942 758 942 683 l 853 758 l 853 926 l 1031 926 l 1031 785 q 885 611 1031 646 q 903 463 903 535 q 785 115 903 254 q 465 -24 668 -24 q 145 115 263 -24 m 358 603 q 339 575 358 603 q 319 463 319 547 q 358 322 319 378 q 465 267 396 267 q 573 322 535 267 q 611 463 611 378 q 573 603 611 547 q 465 658 535 658 q 358 603 396 658 z "},"Ợ":{"ha":1031,"x_min":28,"x_max":1031,"o":"m 376 -225 l 376 -85 l 554 -85 l 554 -225 l 376 -225 m 145 115 q 86 185 145 115 q 28 463 28 254 q 145 810 28 671 q 465 949 263 949 q 720 870 615 949 q 871 658 825 792 q 942 758 942 683 l 853 758 l 853 926 l 1031 926 l 1031 785 q 885 611 1031 646 q 903 463 903 535 q 785 115 903 254 q 465 -24 668 -24 q 145 115 263 -24 m 358 603 q 339 575 358 603 q 319 463 319 547 q 358 322 319 378 q 465 267 396 267 q 573 322 535 267 q 611 463 611 378 q 573 603 611 547 q 465 658 535 658 q 358 603 396 658 z "},"ợ":{"ha":1031,"x_min":28,"x_max":1031,"o":"m 376 -225 l 376 -85 l 554 -85 l 554 -225 l 376 -225 m 145 115 q 86 185 145 115 q 28 463 28 254 q 145 810 28 671 q 465 949 263 949 q 720 870 615 949 q 871 658 825 792 q 942 758 942 683 l 853 758 l 853 926 l 1031 926 l 1031 785 q 885 611 1031 646 q 903 463 903 535 q 785 115 903 254 q 465 -24 668 -24 q 145 115 263 -24 m 358 603 q 339 575 358 603 q 319 463 319 547 q 358 322 319 378 q 465 267 396 267 q 573 322 535 267 q 611 463 611 378 q 573 603 611 547 q 465 658 535 658 q 358 603 396 658 z "},"Ụ":{"ha":788,"x_min":44,"x_max":743,"o":"m 393 -24 q 135 68 226 -24 q 44 340 44 160 l 44 926 l 340 926 l 340 350 q 351 273 340 296 q 393 250 361 250 q 435 273 425 250 q 446 350 446 296 l 446 926 l 743 926 l 743 340 q 652 68 743 160 q 393 -24 561 -24 m 304 -225 l 304 -85 l 482 -85 l 482 -225 l 304 -225 z "},"ụ":{"ha":788,"x_min":44,"x_max":743,"o":"m 393 -24 q 135 68 226 -24 q 44 340 44 160 l 44 926 l 340 926 l 340 350 q 351 273 340 296 q 393 250 361 250 q 435 273 425 250 q 446 350 446 296 l 446 926 l 743 926 l 743 340 q 652 68 743 160 q 393 -24 561 -24 m 304 -225 l 304 -85 l 482 -85 l 482 -225 l 304 -225 z "},"Ủ":{"ha":788,"x_min":44,"x_max":743,"o":"m 393 -24 q 135 68 226 -24 q 44 340 44 160 l 44 926 l 340 926 l 340 350 q 351 273 340 296 q 393 250 361 250 q 435 273 425 250 q 446 350 446 296 l 446 926 l 743 926 l 743 340 q 652 68 743 160 q 393 -24 561 -24 m 300 1139 l 278 1224 q 385 1238 331 1238 q 523 1198 478 1238 q 568 1107 568 1158 q 531 1026 568 1057 q 436 996 494 996 l 436 963 l 344 963 l 344 1068 q 375 1067 350 1067 q 414 1078 399 1067 q 429 1110 429 1089 q 371 1151 429 1151 q 336 1148 354 1151 q 308 1142 318 1144 l 300 1139 z "},"ủ":{"ha":788,"x_min":44,"x_max":743,"o":"m 393 -24 q 135 68 226 -24 q 44 340 44 160 l 44 926 l 340 926 l 340 350 q 351 273 340 296 q 393 250 361 250 q 435 273 425 250 q 446 350 446 296 l 446 926 l 743 926 l 743 340 q 652 68 743 160 q 393 -24 561 -24 m 300 1139 l 278 1224 q 385 1238 331 1238 q 523 1198 478 1238 q 568 1107 568 1158 q 531 1026 568 1057 q 436 996 494 996 l 436 963 l 344 963 l 344 1068 q 375 1067 350 1067 q 414 1078 399 1067 q 429 1110 429 1089 q 371 1151 429 1151 q 336 1148 354 1151 q 308 1142 318 1144 l 300 1139 z "},"Ứ":{"ha":965,"x_min":44,"x_max":965,"o":"m 456 981 l 300 981 l 415 1196 l 599 1196 l 456 981 m 393 -24 q 135 68 226 -24 q 44 340 44 160 l 44 926 l 340 926 l 340 350 q 351 273 340 296 q 393 250 361 250 q 435 273 425 250 q 446 350 446 296 l 446 926 l 743 926 l 743 649 q 838 676 800 649 q 876 758 876 704 l 788 758 l 788 926 l 965 926 l 965 785 q 901 647 965 689 q 743 606 838 606 l 743 340 q 652 68 743 160 q 393 -24 561 -24 z "},"ứ":{"ha":965,"x_min":44,"x_max":965,"o":"m 456 981 l 300 981 l 415 1196 l 599 1196 l 456 981 m 393 -24 q 135 68 226 -24 q 44 340 44 160 l 44 926 l 340 926 l 340 350 q 351 273 340 296 q 393 250 361 250 q 435 273 425 250 q 446 350 446 296 l 446 926 l 743 926 l 743 649 q 838 676 800 649 q 876 758 876 704 l 788 758 l 788 926 l 965 926 l 965 785 q 901 647 965 689 q 743 606 838 606 l 743 340 q 652 68 743 160 q 393 -24 561 -24 z "},"Ừ":{"ha":965,"x_min":44,"x_max":965,"o":"m 488 981 l 332 981 l 189 1196 l 372 1196 l 488 981 m 393 -24 q 135 68 226 -24 q 44 340 44 160 l 44 926 l 340 926 l 340 350 q 351 273 340 296 q 393 250 361 250 q 435 273 425 250 q 446 350 446 296 l 446 926 l 743 926 l 743 649 q 838 676 800 649 q 876 758 876 704 l 788 758 l 788 926 l 965 926 l 965 785 q 901 647 965 689 q 743 606 838 606 l 743 340 q 652 68 743 160 q 393 -24 561 -24 z "},"ừ":{"ha":965,"x_min":44,"x_max":965,"o":"m 488 981 l 332 981 l 189 1196 l 372 1196 l 488 981 m 393 -24 q 135 68 226 -24 q 44 340 44 160 l 44 926 l 340 926 l 340 350 q 351 273 340 296 q 393 250 361 250 q 435 273 425 250 q 446 350 446 296 l 446 926 l 743 926 l 743 649 q 838 676 800 649 q 876 758 876 704 l 788 758 l 788 926 l 965 926 l 965 785 q 901 647 965 689 q 743 606 838 606 l 743 340 q 652 68 743 160 q 393 -24 561 -24 z "},"Ử":{"ha":965,"x_min":44,"x_max":965,"o":"m 393 -24 q 135 68 226 -24 q 44 340 44 160 l 44 926 l 340 926 l 340 350 q 351 273 340 296 q 393 250 361 250 q 435 273 425 250 q 446 350 446 296 l 446 926 l 743 926 l 743 649 q 838 676 800 649 q 876 758 876 704 l 788 758 l 788 926 l 965 926 l 965 785 q 901 647 965 689 q 743 606 838 606 l 743 340 q 652 68 743 160 q 393 -24 561 -24 m 300 1139 l 278 1224 q 385 1238 331 1238 q 523 1198 478 1238 q 568 1107 568 1158 q 531 1026 568 1057 q 436 996 494 996 l 436 963 l 344 963 l 344 1068 q 375 1067 350 1067 q 414 1078 399 1067 q 429 1110 429 1089 q 371 1151 429 1151 q 336 1148 354 1151 q 308 1142 318 1144 l 300 1139 z "},"ử":{"ha":965,"x_min":44,"x_max":965,"o":"m 393 -24 q 135 68 226 -24 q 44 340 44 160 l 44 926 l 340 926 l 340 350 q 351 273 340 296 q 393 250 361 250 q 435 273 425 250 q 446 350 446 296 l 446 926 l 743 926 l 743 649 q 838 676 800 649 q 876 758 876 704 l 788 758 l 788 926 l 965 926 l 965 785 q 901 647 965 689 q 743 606 838 606 l 743 340 q 652 68 743 160 q 393 -24 561 -24 m 300 1139 l 278 1224 q 385 1238 331 1238 q 523 1198 478 1238 q 568 1107 568 1158 q 531 1026 568 1057 q 436 996 494 996 l 436 963 l 344 963 l 344 1068 q 375 1067 350 1067 q 414 1078 399 1067 q 429 1110 429 1089 q 371 1151 429 1151 q 336 1148 354 1151 q 308 1142 318 1144 l 300 1139 z "},"Ữ":{"ha":965,"x_min":44,"x_max":965,"o":"m 290 981 l 172 981 q 317 1167 172 1167 q 406 1144 356 1167 q 465 1122 457 1122 q 497 1167 497 1122 l 615 1167 q 471 981 615 981 q 381 1002 432 981 q 322 1024 331 1024 q 290 981 290 1024 m 393 -24 q 135 68 226 -24 q 44 340 44 160 l 44 926 l 340 926 l 340 350 q 351 273 340 296 q 393 250 361 250 q 435 273 425 250 q 446 350 446 296 l 446 926 l 743 926 l 743 649 q 838 676 800 649 q 876 758 876 704 l 788 758 l 788 926 l 965 926 l 965 785 q 901 647 965 689 q 743 606 838 606 l 743 340 q 652 68 743 160 q 393 -24 561 -24 z "},"ữ":{"ha":965,"x_min":44,"x_max":965,"o":"m 290 981 l 172 981 q 317 1167 172 1167 q 406 1144 356 1167 q 465 1122 457 1122 q 497 1167 497 1122 l 615 1167 q 471 981 615 981 q 381 1002 432 981 q 322 1024 331 1024 q 290 981 290 1024 m 393 -24 q 135 68 226 -24 q 44 340 44 160 l 44 926 l 340 926 l 340 350 q 351 273 340 296 q 393 250 361 250 q 435 273 425 250 q 446 350 446 296 l 446 926 l 743 926 l 743 649 q 838 676 800 649 q 876 758 876 704 l 788 758 l 788 926 l 965 926 l 965 785 q 901 647 965 689 q 743 606 838 606 l 743 340 q 652 68 743 160 q 393 -24 561 -24 z "},"Ự":{"ha":965,"x_min":44,"x_max":965,"o":"m 304 -225 l 304 -85 l 482 -85 l 482 -225 l 304 -225 m 393 -24 q 135 68 226 -24 q 44 340 44 160 l 44 926 l 340 926 l 340 350 q 351 273 340 296 q 393 250 361 250 q 435 273 425 250 q 446 350 446 296 l 446 926 l 743 926 l 743 649 q 838 676 800 649 q 876 758 876 704 l 788 758 l 788 926 l 965 926 l 965 785 q 901 647 965 689 q 743 606 838 606 l 743 340 q 652 68 743 160 q 393 -24 561 -24 z "},"ự":{"ha":965,"x_min":44,"x_max":965,"o":"m 304 -225 l 304 -85 l 482 -85 l 482 -225 l 304 -225 m 393 -24 q 135 68 226 -24 q 44 340 44 160 l 44 926 l 340 926 l 340 350 q 351 273 340 296 q 393 250 361 250 q 435 273 425 250 q 446 350 446 296 l 446 926 l 743 926 l 743 649 q 838 676 800 649 q 876 758 876 704 l 788 758 l 788 926 l 965 926 l 965 785 q 901 647 965 689 q 743 606 838 606 l 743 340 q 652 68 743 160 q 393 -24 561 -24 z "},"Ỳ":{"ha":715,"x_min":-28,"x_max":743,"o":"m 211 0 l 211 406 l -28 926 l 285 926 l 360 761 l 431 926 l 743 926 l 507 406 l 507 0 l 211 0 m 428 981 l 272 981 l 129 1196 l 313 1196 l 428 981 z "},"ỳ":{"ha":715,"x_min":-28,"x_max":743,"o":"m 211 0 l 211 406 l -28 926 l 285 926 l 360 761 l 431 926 l 743 926 l 507 406 l 507 0 l 211 0 m 428 981 l 272 981 l 129 1196 l 313 1196 l 428 981 z "},"Ỵ":{"ha":715,"x_min":-28,"x_max":743,"o":"m 211 0 l 211 406 l -28 926 l 285 926 l 360 761 l 431 926 l 743 926 l 507 406 l 507 0 l 211 0 m 271 -225 l 271 -85 l 449 -85 l 449 -225 l 271 -225 z "},"ỵ":{"ha":715,"x_min":-28,"x_max":743,"o":"m 211 0 l 211 406 l -28 926 l 285 926 l 360 761 l 431 926 l 743 926 l 507 406 l 507 0 l 211 0 m 271 -225 l 271 -85 l 449 -85 l 449 -225 l 271 -225 z "},"Ỷ":{"ha":715,"x_min":-28,"x_max":743,"o":"m 211 0 l 211 406 l -28 926 l 285 926 l 360 761 l 431 926 l 743 926 l 507 406 l 507 0 l 211 0 m 267 1139 l 244 1224 q 351 1238 297 1238 q 490 1198 444 1238 q 535 1107 535 1158 q 498 1026 535 1057 q 403 996 461 996 l 403 963 l 311 963 l 311 1068 q 342 1067 317 1067 q 381 1078 365 1067 q 396 1110 396 1089 q 338 1151 396 1151 q 303 1148 321 1151 q 275 1142 285 1144 l 267 1139 z "},"ỷ":{"ha":715,"x_min":-28,"x_max":743,"o":"m 211 0 l 211 406 l -28 926 l 285 926 l 360 761 l 431 926 l 743 926 l 507 406 l 507 0 l 211 0 m 267 1139 l 244 1224 q 351 1238 297 1238 q 490 1198 444 1238 q 535 1107 535 1158 q 498 1026 535 1057 q 403 996 461 996 l 403 963 l 311 963 l 311 1068 q 342 1067 317 1067 q 381 1078 365 1067 q 396 1110 396 1089 q 338 1151 396 1151 q 303 1148 321 1151 q 275 1142 285 1144 l 267 1139 z "},"Ỹ":{"ha":715,"x_min":-28,"x_max":743,"o":"m 211 0 l 211 406 l -28 926 l 285 926 l 360 761 l 431 926 l 743 926 l 507 406 l 507 0 l 211 0 m 257 981 l 139 981 q 283 1167 139 1167 q 373 1144 322 1167 q 432 1122 424 1122 q 464 1167 464 1122 l 582 1167 q 438 981 582 981 q 348 1002 399 981 q 289 1024 297 1024 q 257 981 257 1024 z "},"ỹ":{"ha":715,"x_min":-28,"x_max":743,"o":"m 211 0 l 211 406 l -28 926 l 285 926 l 360 761 l 431 926 l 743 926 l 507 406 l 507 0 l 211 0 m 257 981 l 139 981 q 283 1167 139 1167 q 373 1144 322 1167 q 432 1122 424 1122 q 464 1167 464 1122 l 582 1167 q 438 981 582 981 q 348 1002 399 981 q 289 1024 297 1024 q 257 981 257 1024 z "},"–":{"ha":611,"x_min":42,"x_max":569,"o":"m 42 356 l 42 571 l 569 571 l 569 356 l 42 356 z "},"—":{"ha":958,"x_min":42,"x_max":917,"o":"m 42 356 l 42 571 l 917 571 l 917 356 l 42 356 z "},"―":{"ha":958,"x_min":42,"x_max":917,"o":"m 42 356 l 42 571 l 917 571 l 917 356 l 42 356 z "},"‘":{"ha":385,"x_min":0,"x_max":385,"o":"m 385 926 l 264 551 l 0 551 l 149 926 l 385 926 z "},"’":{"ha":385,"x_min":0,"x_max":385,"o":"m 0 551 l 121 926 l 385 926 l 236 551 l 0 551 z "},"‚":{"ha":385,"x_min":0,"x_max":385,"o":"m 0 -143 l 121 232 l 385 232 l 236 -143 l 0 -143 z "},"“":{"ha":708,"x_min":0,"x_max":708,"o":"m 708 926 l 588 551 l 324 551 l 472 926 l 708 926 m 385 926 l 264 551 l 0 551 l 149 926 l 385 926 z "},"”":{"ha":708,"x_min":0,"x_max":708,"o":"m 0 551 l 121 926 l 385 926 l 236 551 l 0 551 m 324 551 l 444 926 l 708 926 l 560 551 l 324 551 z "},"„":{"ha":708,"x_min":0,"x_max":708,"o":"m 0 -143 l 121 232 l 385 232 l 236 -143 l 0 -143 m 324 -143 l 444 232 l 708 232 l 560 -143 l 324 -143 z "},"†":{"ha":694,"x_min":21,"x_max":674,"o":"m 235 -269 l 204 501 l 21 501 l 21 732 l 194 732 l 188 926 l 507 926 l 499 732 l 674 732 l 674 501 l 489 501 l 460 -269 l 235 -269 z "},"‡":{"ha":694,"x_min":21,"x_max":674,"o":"m 674 231 l 479 231 l 460 -269 l 235 -269 l 214 231 l 21 231 l 21 447 l 206 447 l 204 515 l 21 515 l 21 732 l 194 732 l 188 926 l 507 926 l 499 732 l 674 732 l 674 515 l 489 515 l 488 447 l 674 447 l 674 231 z "},"•":{"ha":522,"x_min":90,"x_max":432,"o":"m 140 343 q 115 368 140 343 q 90 464 90 393 q 140 585 90 535 q 261 635 190 635 q 382 585 332 635 q 432 464 432 535 q 382 343 432 393 q 261 293 332 293 q 140 343 190 293 z "},"…":{"ha":1058,"x_min":42,"x_max":1017,"o":"m 42 0 l 42 232 l 311 232 l 311 0 l 42 0 m 394 0 l 394 232 l 664 232 l 664 0 l 394 0 m 747 0 l 747 232 l 1017 232 l 1017 0 l 747 0 z "},"‰":{"ha":1438,"x_min":21,"x_max":1417,"o":"m 924 452 q 951 417 924 452 q 978 254 978 382 q 924 57 978 126 q 772 -12 869 -12 q 621 57 675 -12 q 567 254 567 126 q 621 452 567 382 q 772 522 675 522 q 924 452 869 522 m 772 135 q 797 135 772 135 q 821 254 821 135 q 772 374 821 374 q 724 254 724 374 q 772 135 724 135 m 75 474 q 48 509 75 474 q 21 672 21 544 q 75 869 21 800 q 226 939 129 939 q 378 869 324 939 q 432 672 432 800 q 378 474 432 544 q 226 404 324 404 q 75 474 129 404 m 226 792 q 202 792 226 792 q 178 672 178 792 q 226 553 178 553 q 275 672 275 553 q 226 792 275 792 m 233 0 l 601 926 l 765 926 l 397 0 l 233 0 m 1363 452 q 1390 417 1363 452 q 1417 254 1417 382 q 1363 57 1417 126 q 1211 -12 1308 -12 q 1060 57 1114 -12 q 1006 254 1006 126 q 1060 452 1006 382 q 1211 522 1114 522 q 1363 452 1308 522 m 1211 135 q 1235 135 1211 135 q 1260 254 1260 135 q 1211 374 1260 374 q 1163 254 1163 374 q 1211 135 1163 135 z "},"‹":{"ha":431,"x_min":0,"x_max":417,"o":"m 183 0 l 0 315 l 183 629 l 417 629 l 247 315 l 417 0 l 183 0 z "},"›":{"ha":431,"x_min":14,"x_max":431,"o":"m 431 315 l 247 0 l 14 0 l 183 315 l 14 629 l 247 629 l 431 315 z "},"⁄":{"ha":490,"x_min":-21,"x_max":511,"o":"m -21 0 l 347 926 l 511 926 l 143 0 l -21 0 z "},"⁰":{"ha":439,"x_min":14,"x_max":425,"o":"m 371 869 q 398 834 371 869 q 425 671 425 799 q 371 474 425 543 q 219 404 317 404 q 68 474 122 404 q 14 671 14 543 q 68 869 14 799 q 219 939 122 939 q 371 869 317 939 m 219 551 q 244 551 219 551 q 268 671 268 551 q 219 790 268 790 q 171 671 171 790 q 219 551 171 551 z "},"⁴":{"ha":375,"x_min":-7,"x_max":375,"o":"m -7 568 l 215 926 l 344 926 l 344 585 l 375 585 l 375 488 l 344 488 l 344 417 l 200 417 l 200 488 l -7 488 l -7 568 m 200 726 l 113 585 l 200 585 l 200 726 z "},"⁵":{"ha":299,"x_min":-7,"x_max":292,"o":"m 3 407 l 3 551 q 90 572 60 551 q 121 628 121 593 q -7 701 121 701 l 85 926 l 292 926 l 292 783 l 197 783 q 222 765 207 778 q 260 711 236 753 q 285 621 285 669 q 207 461 285 517 q 22 406 129 406 l 3 407 z "},"⁶":{"ha":421,"x_min":14,"x_max":407,"o":"m 14 604 q 31 703 14 651 q 71 792 47 754 q 119 862 94 831 q 160 910 143 893 l 176 926 l 361 926 q 254 785 301 867 q 365 719 324 771 q 407 596 407 667 q 352 460 407 515 q 215 404 297 404 q 72 461 129 404 q 14 604 14 518 m 165 601 q 178 568 165 582 q 211 554 192 554 q 244 567 231 554 q 257 600 257 581 q 244 633 257 619 q 211 646 231 646 q 179 633 193 646 q 165 601 165 619 z "},"⁷":{"ha":344,"x_min":-14,"x_max":358,"o":"m -14 417 l 132 786 l -8 786 l 47 926 l 358 926 l 158 417 l -14 417 z "},"⁸":{"ha":392,"x_min":7,"x_max":385,"o":"m 166 564 q 172 558 166 564 q 196 551 178 551 q 226 564 214 551 q 238 593 238 576 q 226 623 238 611 q 196 635 214 635 q 166 623 178 635 q 154 593 154 611 q 166 564 154 576 m 177 761 q 181 758 177 761 q 196 754 185 754 q 215 761 207 754 q 222 779 222 768 q 196 806 222 806 q 169 779 169 806 q 177 761 169 768 m 330 454 q 302 429 330 454 q 196 404 275 404 q 62 454 117 404 q 7 581 7 504 q 21 650 7 618 q 50 694 35 682 l 64 708 q 36 790 36 739 q 83 896 36 853 q 196 939 129 939 q 309 896 263 939 q 356 790 356 853 q 349 747 356 768 q 335 717 342 726 l 328 708 q 344 693 335 703 q 369 651 353 683 q 385 581 385 618 q 330 454 385 504 z "},"⁹":{"ha":421,"x_min":14,"x_max":407,"o":"m 407 739 q 390 640 407 692 q 350 551 374 589 q 302 481 326 513 q 261 433 278 450 l 244 417 l 60 417 q 167 558 119 476 q 56 624 97 572 q 14 747 14 676 q 69 883 14 828 q 206 939 124 939 q 349 882 292 939 q 407 739 407 825 m 256 742 q 242 775 256 761 q 210 789 229 789 q 178 775 192 789 q 164 743 164 761 q 178 711 164 725 q 210 697 192 697 q 242 710 228 697 q 256 742 256 724 z "},"₀":{"ha":439,"x_min":14,"x_max":425,"o":"m 371 452 q 398 417 371 452 q 425 254 425 382 q 371 57 425 126 q 219 -12 317 -12 q 68 57 122 -12 q 14 254 14 126 q 68 452 14 382 q 219 522 122 522 q 371 452 317 522 m 219 135 q 244 135 219 135 q 268 254 268 135 q 219 374 268 374 q 171 254 171 374 q 219 135 171 135 z "},"₁":{"ha":242,"x_min":-21,"x_max":214,"o":"m 49 0 l 49 311 l -21 392 l 92 510 l 214 510 l 214 0 l 49 0 z "},"₂":{"ha":319,"x_min":-28,"x_max":313,"o":"m -28 0 l 100 244 q 126 319 126 296 q 64 371 126 371 l 32 368 l 32 510 q 104 517 68 517 q 246 478 188 517 q 304 358 304 440 q 288 281 304 321 q 228 154 272 242 l 217 133 l 313 133 l 269 0 l -28 0 z "},"₃":{"ha":300,"x_min":7,"x_max":286,"o":"m 7 -6 l 7 136 q 36 135 18 135 q 122 194 122 135 q 17 289 122 240 q 96 363 96 339 q 61 386 96 386 l 7 378 l 7 510 q 111 515 53 515 q 224 482 183 515 q 264 393 264 449 q 253 349 264 371 q 231 317 242 328 l 218 306 q 237 290 225 300 q 267 244 249 279 q 286 174 286 210 q 218 40 286 85 q 49 -6 150 -6 l 7 -6 z "},"₄":{"ha":375,"x_min":-7,"x_max":375,"o":"m -7 151 l 215 510 l 344 510 l 344 168 l 375 168 l 375 71 l 344 71 l 344 0 l 200 0 l 200 71 l -7 71 l -7 151 m 200 310 l 113 168 l 200 168 l 200 310 z "},"₅":{"ha":299,"x_min":-7,"x_max":292,"o":"m 3 -10 l 3 135 q 90 156 60 135 q 121 211 121 176 q -7 285 121 285 l 85 510 l 292 510 l 292 367 l 197 367 q 222 349 207 361 q 260 294 236 336 q 285 204 285 253 q 207 44 285 100 q 22 -11 129 -11 l 3 -10 z "},"₆":{"ha":421,"x_min":14,"x_max":407,"o":"m 14 188 q 31 286 14 235 q 71 376 47 338 q 119 445 94 414 q 160 493 143 476 l 176 510 l 361 510 q 254 368 301 450 q 365 302 324 354 q 407 179 407 250 q 352 43 407 99 q 215 -12 297 -12 q 72 44 129 -12 q 14 188 14 101 m 165 185 q 178 151 165 165 q 211 138 192 138 q 244 151 231 138 q 257 183 257 164 q 244 216 257 203 q 211 229 231 229 q 179 216 193 229 q 165 185 165 203 z "},"₇":{"ha":344,"x_min":-14,"x_max":358,"o":"m -14 0 l 132 369 l -8 369 l 47 510 l 358 510 l 158 0 l -14 0 z "},"₈":{"ha":392,"x_min":7,"x_max":385,"o":"m 166 147 q 172 141 166 147 q 196 135 178 135 q 226 147 214 135 q 238 176 238 160 q 226 206 238 194 q 196 218 214 218 q 166 206 178 218 q 154 176 154 194 q 166 147 154 160 m 177 344 q 181 341 177 344 q 196 338 185 338 q 215 344 207 338 q 222 363 222 351 q 196 389 222 389 q 169 363 169 389 q 177 344 169 351 m 330 38 q 302 13 330 38 q 196 -12 275 -12 q 62 38 117 -12 q 7 164 7 88 q 21 233 7 201 q 50 278 35 265 l 64 292 q 36 374 36 322 q 83 479 36 436 q 196 522 129 522 q 309 479 263 522 q 356 374 356 436 q 349 331 356 351 q 335 300 342 310 l 328 292 q 344 276 335 286 q 369 234 353 267 q 385 164 385 201 q 330 38 385 88 z "},"₉":{"ha":421,"x_min":14,"x_max":407,"o":"m 407 322 q 390 224 407 275 q 350 134 374 172 q 302 65 326 96 q 261 17 278 33 l 244 0 l 60 0 q 167 142 119 60 q 56 208 97 156 q 14 331 14 260 q 69 467 14 411 q 206 522 124 522 q 349 465 292 522 q 407 322 407 408 m 256 325 q 242 358 256 344 q 210 372 229 372 q 178 358 192 372 q 164 326 164 344 q 178 294 164 308 q 210 281 192 281 q 242 294 228 281 q 256 325 256 307 z "},"₫":{"ha":740,"x_min":21,"x_max":740,"o":"m 376 250 l 396 250 l 396 344 l 376 344 q 331 331 347 344 q 315 297 315 317 q 331 264 315 278 q 376 250 347 250 m 692 0 l 386 0 q 122 74 224 0 q 21 297 21 149 q 122 520 21 446 q 386 594 224 594 l 396 594 l 396 661 l 258 661 l 258 828 l 396 828 l 396 926 l 692 926 l 692 828 l 740 828 l 740 661 l 692 661 l 692 0 m 64 -158 l 64 -57 l 692 -57 l 692 -158 l 64 -158 z "},"€":{"ha":699,"x_min":-28,"x_max":713,"o":"m 500 343 l 364 343 q 503 243 399 243 q 549 249 526 243 q 583 261 572 256 l 594 267 l 713 31 q 685 16 703 25 q 604 -8 667 7 q 474 -24 542 -24 q 208 74 315 -24 q 67 343 101 172 l -28 343 l 21 565 l 64 565 q 204 846 96 743 q 474 949 313 949 q 601 935 542 949 q 686 908 661 922 l 713 894 l 594 658 q 503 682 556 682 q 360 565 392 682 l 549 565 l 500 343 z "},"№":{"ha":1406,"x_min":49,"x_max":1392,"o":"m 851 0 l 851 199 l 1361 199 l 1361 0 l 851 0 m 49 0 l 49 926 l 294 926 l 478 624 l 478 926 l 768 926 l 768 0 l 521 0 l 339 297 l 339 0 l 49 0 m 899 336 q 860 381 899 336 q 822 563 822 426 q 899 789 822 699 q 1107 879 975 879 q 1315 789 1239 879 q 1392 563 1392 699 q 1315 336 1392 426 q 1107 246 1239 246 q 899 336 975 246 m 1045 647 q 1034 631 1045 647 q 1024 563 1024 615 q 1045 478 1024 510 q 1107 446 1067 446 q 1169 478 1147 446 q 1190 563 1190 510 q 1169 647 1190 615 q 1107 679 1147 679 q 1045 647 1067 679 z "},"℗":{"ha":1028,"x_min":28,"x_max":1000,"o":"m 767 521 q 693 361 767 414 q 506 308 619 308 l 506 176 l 333 176 l 333 732 l 511 732 q 696 679 625 732 q 767 521 767 626 m 506 588 l 506 453 l 519 453 q 572 472 553 453 q 590 521 590 490 q 572 569 590 551 q 519 588 553 588 l 506 588 m 170 119 q 99 190 170 119 q 28 463 28 261 q 170 806 28 664 q 514 949 313 949 q 858 806 715 949 q 1000 463 1000 664 q 858 119 1000 261 q 514 -24 715 -24 q 170 119 313 -24 m 206 770 q 143 707 206 770 q 79 463 79 643 q 206 155 79 282 q 514 28 333 28 q 822 155 694 28 q 949 463 949 282 q 822 770 949 643 q 514 897 694 897 q 206 770 333 897 z "},"℠":{"ha":803,"x_min":21,"x_max":768,"o":"m 332 510 l 332 926 l 438 926 l 550 761 l 663 926 l 768 926 l 768 510 l 640 510 l 640 667 l 550 535 l 460 667 l 460 510 l 332 510 m 24 515 l 24 636 q 92 621 57 621 q 128 647 128 621 q 101 680 128 658 q 48 736 75 701 q 21 817 21 771 q 58 905 21 874 q 151 936 96 936 l 232 928 l 232 815 q 201 819 217 819 q 172 800 172 819 q 197 772 172 793 q 247 713 222 750 q 272 631 272 676 q 235 536 272 574 q 129 499 199 499 q 78 503 104 499 q 38 511 51 507 l 24 515 z "},"™":{"ha":756,"x_min":0,"x_max":721,"o":"m 65 510 l 65 822 l 0 822 l 0 926 l 264 926 l 264 822 l 197 822 l 197 510 l 65 510 m 313 510 l 313 926 l 418 926 l 517 747 l 615 926 l 721 926 l 721 510 l 593 510 l 593 681 l 517 535 l 440 681 l 440 510 l 313 510 z "},"℮":{"ha":1088,"x_min":35,"x_max":1053,"o":"m 1053 450 l 218 450 l 218 163 q 543 10 358 10 q 876 164 738 10 l 943 164 q 765 26 871 76 q 542 -24 660 -24 q 183 118 331 -24 q 35 463 35 260 q 183 806 35 663 q 542 949 331 949 q 903 803 753 949 q 1053 450 1053 658 m 860 474 l 860 756 q 542 915 731 915 q 218 756 353 915 l 218 474 l 860 474 z "},"∂":{"ha":814,"x_min":42,"x_max":772,"o":"m 333 574 q 521 510 447 574 q 438 654 507 603 q 267 706 368 706 q 213 701 239 706 l 183 808 q 346 840 250 840 q 650 717 528 840 q 772 376 772 593 q 672 92 772 200 q 390 -15 571 -15 q 142 66 243 -15 q 42 293 42 147 q 124 493 42 413 q 333 574 207 574 m 546 344 q 545 365 546 351 q 544 386 544 378 q 413 442 486 442 q 308 397 347 442 q 269 288 269 353 q 307 181 269 222 q 408 139 344 139 q 515 198 483 139 q 546 344 546 257 z "},"∏":{"ha":1182,"x_min":42,"x_max":1140,"o":"m 679 -168 l 679 817 l 501 817 l 501 -168 l 193 -168 l 193 817 l 42 817 l 42 1054 l 1140 1054 l 1140 817 l 990 817 l 990 -168 l 679 -168 z "},"∑":{"ha":893,"x_min":42,"x_max":851,"o":"m 42 46 l 333 478 l 42 843 l 42 1054 l 838 1054 l 838 814 l 413 814 l 681 478 l 404 72 l 851 72 l 851 -168 l 42 -168 l 42 46 z "},"−":{"ha":639,"x_min":28,"x_max":611,"o":"m 611 260 l 28 260 l 28 490 l 611 490 l 611 260 z "},"∕":{"ha":490,"x_min":-21,"x_max":511,"o":"m -21 0 l 347 926 l 511 926 l 143 0 l -21 0 z "},"∙":{"ha":353,"x_min":42,"x_max":311,"o":"m 42 347 l 42 579 l 311 579 l 311 347 l 42 347 z "},"√":{"ha":785,"x_min":42,"x_max":743,"o":"m 79 136 l 42 218 l 296 338 l 400 114 l 618 1067 l 743 1067 l 449 -219 l 319 -219 l 139 164 l 79 136 z "},"∞":{"ha":1178,"x_min":42,"x_max":1136,"o":"m 1136 357 q 1059 165 1136 242 q 864 88 982 88 q 708 124 778 88 q 568 226 639 161 q 301 88 429 88 q 115 156 189 88 q 42 343 42 225 q 118 542 42 460 q 314 624 194 624 q 469 587 400 624 q 608 483 538 550 q 876 624 746 624 q 1060 550 983 624 q 1136 357 1136 476 m 876 468 q 715 382 806 468 q 888 296 808 296 q 958 319 928 296 q 988 381 988 343 q 957 445 988 422 q 876 468 926 468 m 301 243 q 461 329 372 243 q 290 415 365 415 q 220 392 250 415 q 190 331 190 368 q 221 267 190 290 q 301 243 251 243 z "},"∫":{"ha":767,"x_min":42,"x_max":725,"o":"m 242 3 l 242 697 q 331 973 242 875 q 553 1071 419 1071 q 725 967 725 1071 q 706 917 725 939 q 656 896 686 896 q 599 917 621 896 q 576 975 576 939 q 579 1001 576 982 q 542 974 558 1001 q 525 883 525 947 l 525 189 q 436 -87 525 11 q 214 -185 347 -185 q 42 -81 42 -185 q 61 -31 42 -53 q 111 -10 81 -10 q 168 -31 146 -10 q 190 -89 190 -53 q 188 -115 190 -96 q 225 -88 208 -115 q 242 3 242 -61 z "},"≈":{"ha":739,"x_min":42,"x_max":697,"o":"m 600 367 l 697 226 q 692 215 696 222 q 672 188 688 207 q 635 153 656 168 q 579 127 615 139 q 500 115 543 115 q 360 136 453 115 q 239 157 268 157 q 181 146 206 157 q 147 124 156 135 l 139 113 l 42 253 q 47 265 43 257 q 67 292 51 272 q 103 326 83 311 q 160 352 124 340 q 239 364 196 364 q 378 343 286 364 q 500 322 471 322 q 558 333 533 322 q 592 356 583 344 l 600 367 m 600 635 l 697 494 q 692 483 696 490 q 672 456 688 475 q 635 422 656 436 q 579 395 615 407 q 500 383 543 383 q 360 404 453 383 q 239 425 268 425 q 181 414 206 425 q 147 392 156 403 l 139 381 l 42 521 q 47 533 43 525 q 67 560 51 540 q 103 594 83 579 q 160 620 124 608 q 239 632 196 632 q 378 611 286 632 q 500 590 471 590 q 558 601 533 590 q 592 624 583 613 l 600 635 z "},"≠":{"ha":667,"x_min":42,"x_max":625,"o":"m 625 371 l 625 169 l 292 169 l 231 72 l 42 72 l 103 169 l 42 169 l 42 371 l 228 371 l 249 404 l 42 404 l 42 606 l 375 606 l 436 703 l 625 703 l 564 606 l 625 606 l 625 404 l 438 404 l 417 371 l 625 371 z "},"≤":{"ha":583,"x_min":35,"x_max":549,"o":"m 549 0 l 35 0 l 35 231 l 549 231 l 549 0 m 35 500 l 35 672 l 549 924 l 549 664 l 390 586 l 549 508 l 549 249 l 35 500 z "},"≥":{"ha":653,"x_min":35,"x_max":549,"o":"m 549 0 l 35 0 l 35 231 l 549 231 l 549 0 m 549 672 l 549 500 l 35 249 l 35 508 l 193 586 l 35 664 l 35 924 l 549 672 z "},"⋅":{"ha":353,"x_min":42,"x_max":311,"o":"m 42 347 l 42 579 l 311 579 l 311 347 l 42 347 z "},"◊":{"ha":738,"x_min":42,"x_max":696,"o":"m 464 993 l 696 463 l 464 -68 l 275 -68 l 42 463 l 275 993 l 464 993 m 369 638 l 292 463 l 369 288 l 446 463 l 369 638 z "},"":{"ha":851,"x_min":63,"x_max":789,"o":"m 218 -181 q 185 -187 203 -187 q 127 -165 153 -187 q 89 -112 101 -143 q 63 36 63 -51 q 89 165 63 113 q 119 278 108 206 q 179 422 131 351 q 146 497 146 450 q 166 574 146 536 q 211 628 186 613 q 169 636 197 636 q 78 624 140 636 q 113 702 78 658 q 185 756 147 746 q 135 892 136 797 q 167 867 153 874 q 151 946 151 938 q 153 956 151 953 q 206 910 163 929 q 201 931 206 913 q 192 966 196 949 q 189 994 189 983 q 190 1008 189 1004 q 227 969 200 990 q 268 946 254 947 q 261 1004 261 988 q 293 1076 261 1061 q 307 1031 293 1058 q 339 993 321 1003 q 371 1035 343 1013 q 428 1071 399 1057 q 424 1043 428 1064 q 419 1011 419 1022 q 425 993 419 999 q 451 1022 435 999 q 467 1054 467 1046 q 481 1028 476 1049 q 488 992 486 1008 l 489 975 q 517 983 500 975 q 538 997 535 992 q 533 963 538 989 q 529 935 529 936 q 596 963 585 951 q 572 881 596 938 q 513 819 549 825 q 622 709 569 790 q 679 519 675 628 q 704 376 682 461 q 726 288 726 292 q 789 142 742 201 q 749 133 771 133 q 710 143 726 133 q 697 117 704 138 q 736 35 697 90 q 713 32 719 32 q 636 64 671 32 q 686 -1 657 28 q 646 -10 664 -10 q 600 0 629 -10 q 613 -22 601 -8 q 601 -24 608 -24 q 568 -12 579 -24 q 574 -28 569 -19 q 585 -44 579 -36 q 592 -53 590 -51 q 571 -56 578 -56 q 516 -42 543 -56 q 479 -14 489 -28 q 529 -111 488 -43 q 507 -112 521 -112 q 390 -49 440 -112 q 426 -168 390 -92 q 350 -132 385 -167 q 392 -187 369 -167 q 350 -197 372 -197 q 292 -172 317 -197 l 307 -207 q 292 -208 303 -208 q 218 -181 246 -208 m 146 267 q 147 260 146 264 q 147 253 147 256 q 124 176 147 233 q 96 81 101 118 q 93 31 93 64 q 119 -103 93 -46 q 192 -161 144 -161 l 197 -161 q 147 -59 165 -137 q 128 99 128 19 q 140 186 128 158 q 154 238 154 210 q 146 267 154 256 m 692 58 q 646 212 658 97 q 628 425 633 326 q 601 532 622 524 q 606 476 606 518 q 603 379 606 451 q 601 267 601 307 q 624 92 601 124 l 633 113 q 692 58 664 65 m 419 788 q 492 613 492 750 q 499 624 493 617 q 506 635 504 632 q 521 546 521 613 q 506 454 521 486 q 479 557 501 492 q 462 484 479 524 q 422 433 444 444 l 415 490 q 456 592 456 513 q 455 610 456 600 q 454 624 454 621 q 441 581 454 613 q 422 549 428 550 q 421 568 422 554 q 419 590 419 582 l 419 603 q 391 552 413 585 q 356 507 369 519 q 364 540 356 517 q 243 432 356 532 l 238 451 q 182 311 182 417 q 188 246 182 276 q 163 138 163 215 q 170 48 163 93 q 185 -10 178 3 l 165 -4 q 167 -10 165 -6 q 272 -183 213 -168 q 217 -60 239 -132 q 194 51 194 13 q 197 67 194 61 q 212 38 204 54 q 225 15 219 22 q 239 4 231 8 q 278 -109 244 -47 q 347 -176 313 -171 q 277 -25 318 -144 q 236 199 236 94 q 260 319 236 271 q 258 269 258 306 q 285 49 258 158 q 378 -124 313 -61 q 348 -6 361 -87 q 335 143 335 76 q 336 178 335 167 q 356 111 338 146 q 390 64 375 76 q 388 44 388 50 q 419 -35 388 4 q 481 -82 451 -74 q 389 243 389 78 q 414 369 389 317 q 419 300 415 356 q 428 201 422 244 q 444 146 435 158 l 444 165 q 458 219 444 204 q 470 136 460 211 q 497 22 481 61 q 549 -29 514 -18 q 493 196 493 56 q 547 478 493 349 q 546 463 547 472 q 544 447 544 453 q 550 429 544 436 q 539 354 539 374 q 543 326 539 339 q 557 258 557 299 q 547 206 557 226 q 535 135 535 181 q 575 8 535 40 q 569 51 569 31 l 569 61 q 640 14 586 21 q 569 200 569 90 q 574 266 569 225 q 578 321 578 307 q 575 349 578 340 q 572 371 572 360 q 576 419 572 382 q 579 483 579 457 q 513 713 579 608 q 465 773 482 760 q 419 788 447 786 m 185 467 l 219 482 q 214 504 214 492 q 231 561 214 524 q 249 610 249 599 q 203 564 225 601 q 181 492 181 526 q 185 467 181 478 m 243 499 l 260 507 q 258 515 258 510 q 276 574 258 519 q 253 547 265 568 q 240 510 240 526 q 243 499 240 504 m 231 764 q 275 791 242 768 q 347 830 308 814 q 429 846 386 846 q 392 857 414 857 q 342 844 369 857 q 298 818 315 831 q 256 785 281 806 q 231 764 232 765 m 339 575 q 374 588 358 588 l 381 588 q 408 633 394 601 q 422 688 422 664 q 419 704 422 693 q 403 645 417 674 q 375 608 389 617 q 339 575 339 590 m 168 656 q 249 643 215 643 q 258 650 258 644 q 206 664 258 664 q 168 656 183 664 m 267 703 q 265 697 265 701 q 275 679 265 689 q 286 674 281 674 q 292 679 292 674 q 267 703 292 694 m 117 660 q 197 676 144 676 q 228 675 211 676 q 249 674 246 674 q 215 711 228 704 q 231 747 215 726 q 158 717 194 744 q 117 660 122 690 m 374 718 l 378 707 q 400 722 390 710 q 410 749 410 735 q 396 775 410 767 q 399 763 399 769 q 374 718 399 732 m 332 724 l 346 719 l 347 719 q 375 754 375 725 q 372 765 375 760 q 363 771 367 771 q 361 767 361 771 l 361 765 q 362 762 361 764 q 363 756 363 760 q 351 733 363 743 q 332 724 340 724 m 325 738 q 331 739 329 738 q 336 746 333 740 q 339 753 339 751 q 340 758 340 754 q 322 769 340 769 q 310 756 310 769 q 325 738 314 740 m 351 639 q 365 654 365 639 q 350 664 365 664 q 333 653 333 664 q 351 639 333 639 m 314 607 q 328 618 328 607 q 314 629 328 629 q 301 618 301 629 q 314 607 301 607 m 751 157 q 654 481 683 243 q 657 508 657 497 q 611 669 657 579 q 496 785 565 758 q 561 683 554 710 l 571 686 q 643 528 615 642 q 688 147 643 279 l 700 179 q 751 157 738 157 z "},"ﬁ":{"ha":964,"x_min":49,"x_max":915,"o":"m 49 0 l 49 926 l 525 926 l 525 683 l 344 683 l 344 581 l 521 581 l 521 350 l 344 350 l 344 0 l 49 0 m 601 0 l 601 926 l 915 926 l 915 0 l 601 0 z "},"ﬂ":{"ha":1096,"x_min":49,"x_max":1096,"o":"m 49 0 l 49 926 l 525 926 l 525 683 l 344 683 l 344 581 l 521 581 l 521 350 l 344 350 l 344 0 l 49 0 m 601 0 l 601 926 l 910 926 l 910 243 l 1096 243 l 1096 0 l 601 0 z "}}}
